<svg height="74.242" viewBox="0 0 73.871 74.242" width="73.871" xmlns="http://www.w3.org/2000/svg" xmlns:xlink="http://www.w3.org/1999/xlink"><clipPath id="a"><path d="m0 0h73.871v74.242h-73.871z"/></clipPath><g clip-path="url(#a)"><path d="m225.712 240.265a34.273 34.273 0 0 1 -21.368-7.379 1.092 1.092 0 0 1 1.349-1.718 32.434 32.434 0 0 0 52.062-20.509 2.168 2.168 0 0 0 .027-.338 2.208 2.208 0 0 0 -1.358-2.039 8.675 8.675 0 0 1 -4.318-3.806 3.785 3.785 0 0 0 -3.466-1.989 12.813 12.813 0 0 1 -3.08-.228 13.09 13.09 0 0 1 -10.524-11.172 13.436 13.436 0 0 1 -.109-1.7 13.03 13.03 0 0 1 .459-3.432 3.87 3.87 0 0 0 .139-1.022 3.373 3.373 0 0 0 -1.165-2.6 9.259 9.259 0 0 1 -3.306-7.1 1.8 1.8 0 0 0 -1.581-1.807 34.164 34.164 0 0 0 -14.144 1.4 31.154 31.154 0 0 0 -20.682 21.232 34.865 34.865 0 0 0 -1.371 9.584 32.4 32.4 0 0 0 4.5 16.5 1.091 1.091 0 0 1 -1.878 1.113 34.583 34.583 0 0 1 -4.81-17.614 37.031 37.031 0 0 1 1.455-10.185 33.329 33.329 0 0 1 22.129-22.715 36.363 36.363 0 0 1 15.047-1.49 3.972 3.972 0 0 1 3.514 3.95 7.093 7.093 0 0 0 2.529 5.454 5.547 5.547 0 0 1 1.942 4.271 6.075 6.075 0 0 1 -.215 1.6 10.823 10.823 0 0 0 -.383 2.857 11.248 11.248 0 0 0 .091 1.424 11.051 11.051 0 0 0 8.776 9.307 10.674 10.674 0 0 0 2.553.19c.085 0 .176-.006.267-.006a6 6 0 0 1 5.215 3.111 6.486 6.486 0 0 0 3.227 2.846 4.4 4.4 0 0 1 2.673 4.736 34.413 34.413 0 0 1 -34.196 29.274z" fill="#29246a" stroke="#29246a" stroke-width="5" transform="translate(-188.593 -168.524)"/><g fill="#37cd8f"><path d="m221.749 206.323a5.438 5.438 0 1 1 5.437-5.437 5.443 5.443 0 0 1 -5.437 5.437z" transform="translate(-194.15 -173.905)"/><path d="m219.939 234.074a5.438 5.438 0 1 1 5.437-5.437 5.444 5.444 0 0 1 -5.437 5.437z" transform="translate(-193.751 -180.02)"/><path d="m249.092 233.134a5.437 5.437 0 1 1 5.437-5.437 5.444 5.444 0 0 1 -5.437 5.437z" transform="translate(-200.175 -179.813)"/></g></g></svg>