<svg viewBox="0 0 132.2 25" xmlns="http://www.w3.org/2000/svg" xmlns:xlink="http://www.w3.org/1999/xlink"><clipPath id="a"><path d="m0 0h132.2v25h-132.2z"/></clipPath><g clip-path="url(#a)" fill="#fff"><path d="m128.6 3.5a13.12 13.12 0 0 0 -17.9 0 11.55 11.55 0 0 0 -3.5 8v2a12 12 0 0 0 3.5 8 13.12 13.12 0 0 0 17.9 0 11.55 11.55 0 0 0 3.5-8 2.51 2.51 0 0 1 .1-1 4.59 4.59 0 0 0 -.1-1 12 12 0 0 0 -3.5-8zm-3.3 9.2a5.23 5.23 0 0 1 -1.6 3.7 6.35 6.35 0 0 1 -8.2 0 5.23 5.23 0 0 1 -1.6-3.7v-.9a5.23 5.23 0 0 1 1.6-3.7 6.35 6.35 0 0 1 8.2 0 5.23 5.23 0 0 1 1.6 3.7z"/><path d="m78.8 25v-13.5a12 12 0 0 1 3.5-8 13.12 13.12 0 0 1 17.9 0 11.55 11.55 0 0 1 3.5 8v13.5h-6.7v-12.9a5.23 5.23 0 0 0 -1.6-3.7 6.35 6.35 0 0 0 -8.2 0 5.68 5.68 0 0 0 -1.6 3.7v12.9z"/><path d="m68.9 12.1a5.23 5.23 0 0 0 -1.6-3.7 6.35 6.35 0 0 0 -8.2 0 5.23 5.23 0 0 0 -1.6 3.7v.9a5.14 5.14 0 0 0 1.5 3.7 4.76 4.76 0 0 0 3.7 1.5 6 6 0 0 0 3.7-.9v7a7.22 7.22 0 0 1 -3.2.8 12.22 12.22 0 0 1 -8.9-3.5 11.55 11.55 0 0 1 -3.5-8v-2a12 12 0 0 1 12.4-11.5 12.22 12.22 0 0 1 8.9 3.5 11.55 11.55 0 0 1 3.5 8v13.4h-6.8v-12.9z"/><path d="m41.3 10.2c3.1 1.1 5.1 2.8 5.8 5.2a7.38 7.38 0 0 1 -.8 6.6c-1.3 2-3.3 3-6.2 3h-11.1v-6.9h10.6c.6-.1.9-.3.9-.7s-1.8-1.3-5.3-2.6c-3.2-1.1-5.2-2.9-5.9-5.3a7.86 7.86 0 0 1 1-6.5c1.2-1.8 3.6-2.7 7.2-2.8h8.5v6.9h-7.6c-.9-.1-1.4.1-1.6.5s.2 1 1.2 1.4z"/><path d="m21.4 3.5a12.38 12.38 0 0 0 -8.9-3.5 12.45 12.45 0 0 0 -9 3.5 11.55 11.55 0 0 0 -3.5 8v2a12 12 0 0 0 3.5 8 11.6 11.6 0 0 0 8.9 3.5 12.22 12.22 0 0 0 8.9-3.5 11.55 11.55 0 0 0 3.5-8v-2a11 11 0 0 0 -3.4-8zm-3.3 9.4a5.23 5.23 0 0 1 -1.6 3.7 5.65 5.65 0 0 1 -4.1 1.5 5.65 5.65 0 0 1 -4.1-1.5 5.23 5.23 0 0 1 -1.6-3.7v-.9a5.23 5.23 0 0 1 1.6-3.7 5.65 5.65 0 0 1 4.1-1.5 5.65 5.65 0 0 1 4.1 1.5 5.23 5.23 0 0 1 1.6 3.7z"/></g></svg>