<?xml version="1.0" encoding="UTF-8" standalone="no"?>
<!DOCTYPE svg PUBLIC "-//W3C//DTD SVG 20010904//EN"
              "http://www.w3.org/TR/2001/REC-SVG-20010904/DTD/svg10.dtd">

<svg xmlns="http://www.w3.org/2000/svg"
     width="141.799mm" height="124.162mm"
     viewBox="0 0 402 352">
  <path id="Selection"
        fill="none" stroke="black" stroke-width="1"
        d="M 25.00,106.00
           C 21.83,106.75 14.46,110.33 12.30,109.55
             9.55,108.56 6.95,103.49 6.03,100.83
             2.77,91.41 4.29,82.69 10.96,75.10
             17.43,67.74 27.76,63.14 37.00,60.42
             40.20,59.48 51.58,56.80 53.49,55.15
             56.59,52.46 55.45,48.02 56.76,44.00
             58.38,39.03 63.49,32.76 67.18,29.05
             83.65,12.51 114.25,4.34 137.00,2.04
             137.00,2.04 145.00,2.04 145.00,2.04
             145.00,2.04 155.00,1.00 155.00,1.00
             174.83,0.77 207.19,5.38 225.00,13.98
             230.88,16.82 238.76,21.06 243.99,24.86
             243.99,24.86 254.09,32.63 254.09,32.63
             258.14,34.33 265.49,30.82 270.00,30.42
             280.76,28.62 291.31,28.35 302.00,30.42
             310.13,32.43 320.04,35.94 325.81,42.09
             331.16,47.79 330.64,52.76 336.05,54.97
             336.05,54.97 354.00,59.23 354.00,59.23
             364.76,61.85 375.44,65.31 385.00,71.02
             392.62,75.56 400.28,83.31 399.23,93.00
             396.13,121.77 354.77,129.93 331.00,130.00
             331.00,130.00 331.00,123.00 331.00,123.00
             335.42,121.74 336.76,122.18 341.00,121.57
             352.07,119.98 367.70,115.64 375.91,107.82
             380.84,103.11 385.46,94.97 383.15,88.00
             381.15,82.01 375.38,77.61 370.00,74.78
             358.12,68.54 347.97,66.31 335.00,63.80
             332.07,63.24 322.18,62.04 320.30,60.83
             317.31,58.89 317.05,54.10 314.63,50.04
             311.69,45.12 306.39,41.38 301.00,39.51
             290.64,36.17 279.40,36.49 269.00,39.51
             262.13,41.37 255.01,46.56 248.01,44.35
             242.97,42.76 240.49,38.01 236.82,34.61
             231.75,29.94 223.30,24.28 217.00,21.44
             188.91,8.73 158.08,5.98 128.00,12.00
             110.29,15.54 98.45,19.05 84.01,30.66
             78.53,35.07 72.98,42.21 70.90,49.00
             69.06,55.04 71.78,57.61 69.36,60.49
             67.16,63.12 56.68,64.43 53.00,65.21
             39.15,68.16 18.62,76.66 20.11,94.00
             20.53,98.91 23.16,101.72 25.00,106.00 Z
           M 77.00,83.00
           C 77.00,83.00 89.00,83.00 89.00,83.00
             89.00,83.00 89.00,106.00 89.00,106.00
             89.00,106.00 90.60,112.40 90.60,112.40
             90.60,112.40 97.00,114.00 97.00,114.00
             97.00,114.00 125.00,114.00 125.00,114.00
             125.00,114.00 125.00,83.00 125.00,83.00
             125.00,83.00 138.00,83.00 138.00,83.00
             138.00,83.00 138.00,114.00 138.00,114.00
             138.00,114.00 165.00,114.00 165.00,114.00
             165.00,114.00 172.40,112.40 172.40,112.40
             172.40,112.40 174.00,104.00 174.00,104.00
             174.00,104.00 174.00,83.00 174.00,83.00
             174.00,83.00 186.00,83.00 186.00,83.00
             186.00,83.00 186.00,106.00 186.00,106.00
             186.00,106.00 187.60,112.40 187.60,112.40
             187.60,112.40 194.00,114.00 194.00,114.00
             194.00,114.00 222.00,114.00 222.00,114.00
             222.00,114.00 222.00,83.00 222.00,83.00
             222.00,83.00 235.00,83.00 235.00,83.00
             235.00,83.00 235.00,114.00 235.00,114.00
             235.00,114.00 262.00,114.00 262.00,114.00
             262.00,114.00 269.40,112.40 269.40,112.40
             269.40,112.40 271.00,104.00 271.00,104.00
             271.00,104.00 271.00,83.00 271.00,83.00
             271.00,83.00 283.00,83.00 283.00,83.00
             283.00,83.00 283.00,105.00 283.00,105.00
             283.01,107.00 282.88,109.98 284.02,111.69
             285.60,114.05 288.48,113.95 291.00,114.00
             295.81,114.08 310.17,112.91 313.43,115.74
             317.37,119.15 316.00,132.79 316.00,138.00
             316.00,138.00 356.00,138.00 356.00,138.00
             356.00,138.00 356.00,148.00 356.00,148.00
             356.00,148.00 316.00,148.00 316.00,148.00
             316.00,148.00 316.00,167.00 316.00,167.00
             316.05,169.52 315.95,172.40 318.31,173.98
             320.16,175.21 323.81,175.00 326.00,175.00
             326.00,175.00 356.00,175.00 356.00,175.00
             356.00,175.00 356.00,184.00 356.00,184.00
             356.00,184.00 324.00,184.00 324.00,184.00
             321.48,184.05 318.60,183.95 317.02,186.31
             315.79,188.16 316.00,191.81 316.00,194.00
             316.00,194.00 316.00,211.00 316.00,211.00
             316.00,211.00 356.00,211.00 356.00,211.00
             356.00,211.00 356.00,221.00 356.00,221.00
             356.00,221.00 316.00,221.00 316.00,221.00
             316.00,221.00 316.00,240.00 316.00,240.00
             316.05,242.52 315.95,245.40 318.31,246.98
             320.16,248.21 323.81,248.00 326.00,248.00
             326.00,248.00 356.00,248.00 356.00,248.00
             356.00,248.00 356.00,257.00 356.00,257.00
             356.00,257.00 325.00,257.00 325.00,257.00
             322.30,257.04 318.75,256.92 317.02,259.43
             315.78,261.24 316.00,264.84 316.00,267.00
             316.00,267.00 316.00,284.00 316.00,284.00
             316.00,284.00 356.00,284.00 356.00,284.00
             356.00,284.00 356.00,294.10 356.00,294.10
             356.00,294.10 325.00,294.10 325.00,294.10
             323.68,294.01 321.28,293.98 320.06,294.10
             311.90,296.54 319.06,311.71 314.40,316.26
             312.29,318.32 307.77,318.00 305.00,318.00
             299.43,318.01 284.95,315.88 283.80,323.04
             283.80,323.04 283.80,349.00 283.80,349.00
             283.80,349.00 271.00,349.00 271.00,349.00
             271.00,349.00 271.00,327.00 271.00,327.00
             270.99,325.00 271.12,322.02 269.98,320.31
             268.40,317.95 265.52,318.05 263.00,318.00
             263.00,318.00 244.00,318.00 244.00,318.00
             241.68,318.05 239.20,318.01 237.31,319.60
             234.62,321.87 235.01,325.82 235.00,329.00
             235.00,329.00 235.00,349.00 235.00,349.00
             235.00,349.00 222.00,349.00 222.00,349.00
             222.00,349.00 222.00,327.00 222.00,327.00
             221.99,325.00 222.12,322.02 220.98,320.31
             219.40,317.95 216.52,318.05 214.00,318.00
             208.57,317.90 191.84,316.68 188.33,320.31
             185.49,323.24 186.95,328.19 187.00,332.00
             187.00,332.00 187.00,349.00 187.00,349.00
             187.00,349.00 174.00,349.00 174.00,349.00
             174.00,349.00 174.00,329.00 174.00,329.00
             174.00,326.65 174.19,323.20 172.98,321.15
             169.75,315.69 155.77,318.99 150.00,319.00
             147.05,319.01 141.82,318.57 139.60,320.74
             137.66,322.64 138.01,326.47 138.00,329.00
             138.00,329.00 138.00,349.00 138.00,349.00
             138.00,349.00 125.00,349.00 125.00,349.00
             125.00,349.00 125.00,327.00 125.00,327.00
             124.96,324.86 125.04,322.23 123.40,320.60
             120.08,317.28 106.62,319.76 102.00,319.96
             98.75,320.10 91.94,319.13 90.04,322.31
             89.13,324.02 89.97,329.67 90.04,332.00
             90.04,332.00 90.04,350.00 90.04,350.00
             90.04,350.00 77.00,350.00 77.00,350.00
             77.00,350.00 77.00,320.00 77.00,320.00
             77.00,320.00 56.00,320.00 56.00,320.00
             52.89,319.94 49.02,319.72 46.74,317.26
             41.93,312.11 49.06,297.53 40.94,295.10
             39.59,294.94 36.50,295.00 35.00,295.10
             35.00,295.10 4.00,295.10 4.00,295.10
             4.00,295.10 4.00,286.00 4.00,286.00
             4.00,286.00 19.00,286.00 19.00,286.00
             19.00,286.00 36.00,285.00 36.00,285.00
             46.41,284.93 45.09,281.41 45.00,268.00
             44.98,265.65 45.19,262.39 43.40,260.60
             41.48,258.68 37.54,259.01 35.00,259.00
             35.00,259.00 4.00,259.00 4.00,259.00
             4.00,259.00 4.00,249.00 4.00,249.00
             4.00,249.00 34.00,249.00 34.00,249.00
             36.81,248.98 40.39,249.16 42.69,247.26
             46.03,244.51 45.03,235.17 45.00,231.00
             44.98,228.65 45.19,225.39 43.40,223.60
             41.48,221.68 37.54,222.01 35.00,222.00
             35.00,222.00 4.00,222.00 4.00,222.00
             4.00,222.00 4.00,213.00 4.00,213.00
             4.00,213.00 21.00,212.00 21.00,212.00
             21.00,212.00 36.00,212.00 36.00,212.00
             47.31,211.79 45.06,204.01 45.00,195.00
             44.98,192.65 45.19,189.39 43.40,187.60
             41.48,185.68 37.54,186.01 35.00,186.00
             35.00,186.00 4.00,186.00 4.00,186.00
             4.00,186.00 4.00,176.00 4.00,176.00
             4.00,176.00 34.00,176.00 34.00,176.00
             36.76,175.96 40.41,175.95 42.69,174.15
             46.07,171.46 45.05,162.12 45.00,158.00
             44.96,155.63 45.04,152.42 43.26,150.60
             41.36,148.66 37.53,149.01 35.00,149.00
             35.00,149.00 4.00,149.00 4.00,149.00
             4.00,149.00 4.00,138.90 4.00,138.90
             4.00,138.90 34.00,138.90 34.00,138.90
             35.55,139.00 38.57,139.06 39.98,138.90
             49.40,136.23 41.98,121.38 46.60,116.58
             48.34,114.77 52.58,114.26 55.00,114.04
             55.00,114.04 77.00,114.04 77.00,114.04
             77.00,114.04 77.00,83.00 77.00,83.00 Z
           M 303.00,309.00
           C 303.00,309.00 303.00,166.00 303.00,166.00
             303.00,166.00 303.00,136.00 303.00,136.00
             303.00,136.00 301.98,124.60 301.98,124.60
             301.98,124.60 294.00,123.00 294.00,123.00
             294.00,123.00 166.00,123.00 166.00,123.00
             166.00,123.00 151.00,124.00 151.00,124.00
             151.00,124.00 115.00,124.00 115.00,124.00
             115.00,124.00 98.00,125.00 98.00,125.00
             98.00,125.00 57.00,125.00 57.00,125.00
             57.00,125.00 57.00,266.00 57.00,266.00
             57.00,266.00 57.00,296.00 57.00,296.00
             57.00,296.00 58.02,307.40 58.02,307.40
             58.02,307.40 66.00,309.00 66.00,309.00
             66.00,309.00 303.00,309.00 303.00,309.00 Z
           M 214.06,140.74
           C 219.43,139.41 228.20,140.00 234.00,140.00
             234.00,140.00 271.00,140.00 271.00,140.00
             280.61,140.05 281.98,141.59 282.00,151.00
             282.00,151.00 282.00,211.00 282.00,211.00
             281.98,221.30 279.94,221.98 270.00,222.00
             270.00,222.00 230.00,222.00 230.00,222.00
             225.94,222.00 216.38,222.55 213.15,220.69
             209.48,218.58 210.01,214.65 210.00,211.00
             210.00,211.00 210.00,159.00 210.00,159.00
             210.00,152.85 208.10,144.38 214.06,140.74 Z
           M 279.00,143.00
           C 279.00,143.00 222.00,143.00 222.00,143.00
             213.36,143.02 213.02,143.36 213.00,152.00
             213.00,152.00 213.00,210.00 213.00,210.00
             213.02,218.64 213.36,218.98 222.00,219.00
             222.00,219.00 279.00,219.00 279.00,219.00
             279.00,219.00 279.00,143.00 279.00,143.00 Z
           M 82.00,185.00
           C 82.00,177.22 80.08,158.76 85.28,153.27
             93.65,144.27 120.17,143.73 128.20,153.27
             131.94,157.81 131.00,164.49 131.00,170.00
             131.00,170.00 128.00,170.00 128.00,170.00
             128.00,170.00 128.00,164.00 128.00,164.00
             114.83,172.13 98.27,171.51 85.00,164.00
             85.00,164.00 85.00,185.00 85.00,185.00
             85.00,185.00 82.00,185.00 82.00,185.00 Z
           M 238.00,183.00
           C 234.93,185.96 233.89,189.06 231.86,190.29
             224.34,194.85 225.01,181.53 225.00,178.00
             225.00,176.03 225.12,172.90 224.40,171.10
             223.26,168.25 220.70,167.28 219.01,164.79
             215.20,159.22 216.86,151.16 223.04,148.05
             224.45,147.34 226.43,146.74 228.00,146.56
             236.97,145.49 246.62,153.69 241.83,162.98
             240.22,166.11 237.94,167.41 235.00,169.00
             237.57,173.93 237.57,174.07 235.00,179.00
             235.00,179.00 238.00,180.00 238.00,180.00
             238.00,180.00 238.00,183.00 238.00,183.00 Z
           M 99.00,149.32
           C 96.57,149.87 94.30,150.47 92.00,151.47
             86.25,153.97 81.95,159.34 89.06,163.59
             93.55,166.27 99.86,166.98 105.00,167.00
             111.21,167.03 117.26,166.94 122.98,164.08
             125.75,162.70 128.40,160.51 127.34,157.04
             124.69,148.28 106.18,148.54 99.00,149.32 Z
           M 234.00,181.00
           C 233.13,178.85 232.16,170.44 233.15,168.37
             234.33,165.91 242.06,162.40 239.26,155.02
             236.03,146.50 222.37,147.33 220.32,156.00
             218.42,164.02 225.83,165.52 227.40,169.21
             228.77,172.41 227.12,182.37 229.00,189.00
             229.00,189.00 234.00,181.00 234.00,181.00 Z
           M 229.05,152.08
           C 236.70,152.48 235.04,159.12 230.95,160.04
             227.02,160.92 222.16,155.37 229.05,152.08 Z
           M 232.00,155.00
           C 232.00,155.00 228.00,154.00 228.00,154.00
             228.00,154.00 228.00,158.00 228.00,158.00
             228.00,158.00 232.00,157.00 232.00,157.00
             232.00,157.00 232.00,155.00 232.00,155.00 Z
           M 149.00,162.00
           C 149.00,162.00 199.00,162.00 199.00,162.00
             199.00,162.00 199.00,191.00 199.00,191.00
             199.00,191.00 149.00,191.00 149.00,191.00
             149.00,191.00 149.00,162.00 149.00,162.00 Z
           M 198.00,163.00
           C 198.00,163.00 150.00,163.00 150.00,163.00
             150.00,163.00 150.00,190.00 150.00,190.00
             150.00,190.00 198.00,190.00 198.00,190.00
             198.00,190.00 198.00,163.00 198.00,163.00 Z
           M 155.00,167.00
           C 156.57,170.96 156.57,182.04 155.00,186.00
             155.00,186.00 155.00,167.00 155.00,167.00 Z
           M 161.00,167.00
           C 162.57,170.96 162.57,182.04 161.00,186.00
             161.00,186.00 161.00,167.00 161.00,167.00 Z
           M 167.00,167.00
           C 168.57,170.96 168.57,182.04 167.00,186.00
             167.00,186.00 167.00,167.00 167.00,167.00 Z
           M 173.00,167.00
           C 173.00,167.00 175.00,167.00 175.00,167.00
             175.00,167.00 175.00,186.00 175.00,186.00
             175.00,186.00 173.00,186.00 173.00,186.00
             173.00,186.00 173.00,167.00 173.00,167.00 Z
           M 180.00,167.00
           C 181.57,170.96 181.57,182.04 180.00,186.00
             180.00,186.00 180.00,167.00 180.00,167.00 Z
           M 186.00,167.00
           C 187.57,170.96 187.57,182.04 186.00,186.00
             186.00,186.00 186.00,167.00 186.00,167.00 Z
           M 192.00,167.00
           C 193.57,170.96 193.57,182.04 192.00,186.00
             192.00,186.00 192.00,167.00 192.00,167.00 Z
           M 246.00,188.00
           C 246.04,184.04 245.90,180.42 248.51,177.11
             253.09,171.29 262.18,171.79 266.15,178.04
             268.10,181.12 267.97,184.52 268.00,188.00
             268.00,188.00 275.00,188.00 275.00,188.00
             275.00,188.00 275.00,207.00 275.00,207.00
             274.99,208.82 275.15,211.92 273.98,213.40
             272.63,215.10 269.95,214.96 268.00,215.00
             268.00,215.00 246.00,215.00 246.00,215.00
             244.05,214.96 241.37,215.10 240.02,213.40
             238.77,211.81 239.00,207.99 239.00,206.00
             238.97,189.69 237.70,188.29 246.00,188.00 Z
           M 116.00,197.00
           C 116.64,190.75 118.69,186.64 121.13,181.00
             121.94,179.13 122.80,176.22 124.51,175.01
             127.42,172.98 136.67,174.05 140.00,175.01
             140.00,175.01 134.00,189.00 134.00,189.00
             134.00,189.00 142.00,190.00 142.00,190.00
             142.00,190.00 130.05,210.00 130.05,210.00
             130.05,210.00 119.00,225.00 119.00,225.00
             119.00,225.00 124.00,197.00 124.00,197.00
             124.00,197.00 116.00,197.00 116.00,197.00 Z
           M 250.16,188.00
           C 252.76,188.00 261.49,188.50 263.40,186.98
             268.41,182.98 259.84,170.16 252.31,177.43
             251.20,178.51 250.69,179.54 250.16,181.02
             249.91,182.57 250.00,186.26 250.16,188.00 Z
           M 136.00,177.00
           C 133.84,177.00 128.12,176.76 126.39,177.57
             122.55,179.38 119.37,190.93 119.00,195.00
             119.00,195.00 127.00,195.00 127.00,195.00
             127.00,195.00 124.00,214.00 124.00,214.00
             127.71,210.37 136.13,196.90 138.00,192.00
             138.00,192.00 130.00,192.00 130.00,192.00
             130.00,192.00 136.00,177.00 136.00,177.00 Z
           M 104.00,184.00
           C 104.00,184.00 106.00,184.00 106.00,184.00
             106.00,184.00 106.00,189.00 106.00,189.00
             106.00,189.00 111.00,189.00 111.00,189.00
             111.00,189.00 111.00,192.00 111.00,192.00
             111.00,192.00 106.00,192.00 106.00,192.00
             106.00,192.00 106.00,198.00 106.00,198.00
             106.00,198.00 104.00,198.00 104.00,198.00
             104.00,198.00 104.00,192.00 104.00,192.00
             104.00,192.00 99.00,192.00 99.00,192.00
             99.00,192.00 99.00,189.00 99.00,189.00
             99.00,189.00 104.00,189.00 104.00,189.00
             104.00,189.00 104.00,184.00 104.00,184.00 Z
           M 71.00,189.00
           C 71.00,189.00 95.00,189.00 95.00,189.00
             95.00,189.00 95.00,192.00 95.00,192.00
             95.00,192.00 71.00,192.00 71.00,192.00
             71.00,192.00 71.00,189.00 71.00,189.00 Z
           M 272.00,212.00
           C 272.00,212.00 272.00,198.00 272.00,198.00
             272.00,198.00 270.40,191.02 270.40,191.02
             270.40,191.02 263.00,190.00 263.00,190.00
             263.00,190.00 249.00,190.00 249.00,190.00
             249.00,190.00 243.60,191.02 243.60,191.02
             243.60,191.02 242.00,198.00 242.00,198.00
             242.00,198.00 242.00,212.00 242.00,212.00
             242.00,212.00 272.00,212.00 272.00,212.00 Z
           M 256.00,208.00
           C 255.05,202.01 252.02,200.17 252.88,197.26
             253.96,193.60 260.95,193.77 261.55,198.09
             261.93,200.92 259.50,201.64 259.00,208.00
             259.00,208.00 256.00,208.00 256.00,208.00 Z
           M 259.00,197.00
           C 259.00,197.00 255.00,200.00 255.00,200.00
             257.87,199.45 257.87,199.71 259.00,197.00 Z
           M 77.00,202.00
           C 77.00,202.00 116.00,202.00 116.00,202.00
             116.00,202.00 116.00,205.00 116.00,205.00
             116.00,205.00 77.00,205.00 77.00,205.00
             77.00,205.00 77.00,202.00 77.00,202.00 Z
           M 84.00,209.00
           C 84.00,209.00 91.01,213.36 91.01,213.36
             98.04,216.52 106.49,216.00 114.00,216.00
             111.58,219.11 108.79,219.12 105.00,218.91
             97.34,218.48 86.53,217.39 84.00,209.00 Z
           M 137.00,295.00
           C 136.99,297.30 137.42,301.26 135.43,302.83
             133.62,304.25 129.26,304.00 127.00,304.00
             123.11,304.01 108.03,304.76 105.57,302.83
             103.59,301.26 104.00,297.30 104.00,295.00
             104.00,295.00 104.00,243.00 104.00,243.00
             104.03,241.41 103.93,239.05 104.99,237.74
             106.48,235.89 109.85,236.03 112.00,236.00
             112.00,236.00 127.00,236.00 127.00,236.00
             129.26,236.00 133.62,235.75 135.43,237.17
             137.42,238.74 136.99,242.70 137.00,245.00
             137.00,245.00 207.00,245.00 207.00,245.00
             207.01,242.70 206.58,238.74 208.57,237.17
             210.38,235.75 214.74,236.00 217.00,236.00
             220.89,235.99 235.97,235.24 238.43,237.17
             240.41,238.74 240.00,242.70 240.00,245.00
             240.00,245.00 240.00,296.00 240.00,296.00
             239.95,303.70 238.90,303.96 231.00,304.00
             231.00,304.00 215.00,304.00 215.00,304.00
             212.85,303.97 209.48,304.11 207.99,302.26
             206.74,300.72 207.01,296.95 207.00,295.00
             207.00,295.00 137.00,295.00 137.00,295.00 Z
           M 132.00,241.00
           C 132.00,241.00 109.00,241.00 109.00,241.00
             109.00,241.00 109.00,299.00 109.00,299.00
             109.00,299.00 132.00,299.00 132.00,299.00
             132.00,299.00 132.00,241.00 132.00,241.00 Z
           M 235.00,241.00
           C 235.00,241.00 212.00,241.00 212.00,241.00
             212.00,241.00 212.00,299.00 212.00,299.00
             212.00,299.00 235.00,299.00 235.00,299.00
             235.00,299.00 235.00,241.00 235.00,241.00 Z
           M 207.00,250.00
           C 207.00,250.00 137.00,250.00 137.00,250.00
             137.00,250.00 137.00,290.00 137.00,290.00
             137.00,290.00 207.00,290.00 207.00,290.00
             207.00,290.00 207.00,250.00 207.00,250.00 Z
           M 169.00,256.00
           C 169.00,256.00 187.00,256.00 187.00,256.00
             187.00,256.00 187.00,261.00 187.00,261.00
             187.00,261.00 169.00,261.00 169.00,261.00
             169.00,261.00 169.00,256.00 169.00,256.00 Z
           M 194.00,256.00
           C 194.00,256.00 200.00,256.00 200.00,256.00
             200.00,256.00 200.00,261.00 200.00,261.00
             200.00,261.00 194.00,261.00 194.00,261.00
             194.00,261.00 194.00,256.00 194.00,256.00 Z" />
</svg>
