<?xml version="1.0" encoding="UTF-8" standalone="no"?>
<!DOCTYPE svg PUBLIC "-//W3C//DTD SVG 20010904//EN"
              "http://www.w3.org/TR/2001/REC-SVG-20010904/DTD/svg10.dtd">

<svg xmlns="http://www.w3.org/2000/svg"
     width="162.257mm" height="35.2734mm"
     viewBox="0 0 460 100">
  <path id="Selection"
        fill="none" stroke="black" stroke-width="1"
        d="M 47.00,58.00
           C 51.56,59.08 56.59,62.68 60.98,61.67
             63.58,61.07 65.97,58.98 64.83,56.10
             63.72,53.29 59.53,51.88 57.00,50.69
             50.66,47.71 46.42,44.78 47.20,37.00
             48.16,27.41 54.77,25.81 63.00,26.01
             65.70,26.08 70.23,26.35 72.01,28.70
             73.32,30.44 73.00,34.82 73.00,37.00
             69.41,35.99 64.66,33.47 61.02,34.33
             58.20,34.99 56.43,37.05 58.46,39.73
             61.24,43.40 69.22,43.64 72.99,49.18
             76.70,54.63 75.70,64.50 69.96,68.15
             66.61,70.27 61.84,70.08 58.00,69.99
             53.15,69.86 51.53,69.02 47.00,68.00
             47.00,68.00 47.00,58.00 47.00,58.00 Z
           M 81.00,58.00
           C 85.56,59.08 90.59,62.68 94.98,61.67
             97.58,61.07 99.97,58.98 98.83,56.10
             97.72,53.29 93.53,51.88 91.00,50.69
             84.66,47.71 80.42,44.78 81.20,37.00
             82.16,27.41 88.77,25.81 97.00,26.01
             99.70,26.08 104.23,26.35 106.01,28.70
             107.32,30.44 107.00,34.82 107.00,37.00
             103.41,35.99 98.66,33.47 95.02,34.33
             92.20,34.99 90.43,37.05 92.46,39.73
             95.24,43.40 103.22,43.64 106.99,49.18
             110.70,54.63 109.70,64.50 103.96,68.15
             100.61,70.27 95.84,70.08 92.00,69.99
             87.15,69.86 85.53,69.02 81.00,68.00
             81.00,68.00 81.00,58.00 81.00,58.00 Z
           M 361.02,26.74
           C 363.89,26.04 365.02,25.94 368.00,26.02
             382.14,26.38 382.12,40.48 382.00,51.00
             381.92,57.84 380.22,66.47 373.00,69.26
             371.19,69.96 368.92,69.99 367.00,69.99
             364.15,69.99 361.55,69.94 359.10,68.26
             350.01,62.03 350.24,39.45 355.97,31.04
             357.71,28.49 358.44,28.16 361.02,26.74 Z
           M 21.00,27.00
           C 21.00,27.00 33.00,27.00 33.00,27.00
             33.00,27.00 44.00,69.00 44.00,69.00
             44.00,69.00 34.00,69.00 34.00,69.00
             32.55,58.81 30.99,59.01 22.00,59.00
             22.00,59.00 20.00,69.00 20.00,69.00
             20.00,69.00 10.00,69.00 10.00,69.00
             10.00,69.00 21.00,27.00 21.00,27.00 Z
           M 114.00,27.00
           C 114.00,27.00 124.00,27.00 124.00,27.00
             124.00,27.00 124.00,53.00 124.00,53.00
             124.06,56.11 124.28,60.36 128.05,61.26
             132.27,62.26 134.36,57.30 134.91,54.00
             134.91,54.00 134.91,27.00 134.91,27.00
             134.91,27.00 144.00,27.00 144.00,27.00
             144.00,27.00 144.00,53.00 144.00,53.00
             143.95,57.10 143.47,62.36 141.00,65.79
             136.07,72.63 120.15,71.55 116.31,63.98
             113.01,57.46 114.00,35.26 114.00,27.00 Z
           M 148.00,27.00
           C 148.00,27.00 159.00,27.00 159.00,27.00
             159.00,27.00 164.00,42.00 164.00,42.00
             164.00,42.00 167.00,27.00 167.00,27.00
             167.00,27.00 178.00,27.00 178.00,27.00
             178.00,27.00 178.00,69.00 178.00,69.00
             178.00,69.00 170.00,69.00 170.00,69.00
             170.00,69.00 169.00,44.00 169.00,44.00
             168.13,54.37 166.31,53.98 159.00,54.00
             159.00,54.00 156.00,42.00 156.00,42.00
             156.00,42.00 156.00,69.00 156.00,69.00
             156.00,69.00 148.00,69.00 148.00,69.00
             148.00,69.00 148.00,27.00 148.00,27.00 Z
           M 184.00,27.00
           C 184.00,27.00 211.00,27.00 211.00,27.00
             211.00,27.00 211.00,34.00 211.00,34.00
             211.00,34.00 193.00,34.00 193.00,34.00
             193.00,34.00 193.00,43.00 193.00,43.00
             193.00,43.00 209.00,43.00 209.00,43.00
             209.00,43.00 209.00,50.00 209.00,50.00
             209.00,50.00 193.00,50.00 193.00,50.00
             193.00,50.00 193.00,62.00 193.00,62.00
             193.00,62.00 211.00,62.00 211.00,62.00
             211.00,62.00 211.00,69.00 211.00,69.00
             211.00,69.00 184.00,69.00 184.00,69.00
             184.00,69.00 184.00,27.00 184.00,27.00 Z
           M 216.00,27.00
           C 216.00,27.00 246.00,27.00 246.00,27.00
             246.00,27.00 246.00,34.00 246.00,34.00
             246.00,34.00 236.00,34.00 236.00,34.00
             236.00,34.00 236.00,69.00 236.00,69.00
             236.00,69.00 227.00,69.00 227.00,69.00
             227.00,69.00 227.00,34.00 227.00,34.00
             227.00,34.00 216.00,34.00 216.00,34.00
             216.00,34.00 216.00,27.00 216.00,27.00 Z
           M 251.00,27.00
           C 251.00,27.00 261.00,27.00 261.00,27.00
             261.00,27.00 261.00,43.00 261.00,43.00
             261.00,43.00 270.00,43.00 270.00,43.00
             270.00,43.00 270.00,27.00 270.00,27.00
             270.00,27.00 279.00,27.00 279.00,27.00
             279.00,27.00 279.00,69.00 279.00,69.00
             279.00,69.00 270.00,69.00 270.00,69.00
             270.00,69.00 270.00,50.00 270.00,50.00
             270.00,50.00 261.00,50.00 261.00,50.00
             261.00,50.00 261.00,69.00 261.00,69.00
             261.00,69.00 251.00,69.00 251.00,69.00
             251.00,69.00 251.00,27.00 251.00,27.00 Z
           M 286.00,27.00
           C 286.00,27.00 313.00,27.00 313.00,27.00
             313.00,27.00 313.00,34.00 313.00,34.00
             313.00,34.00 295.00,34.00 295.00,34.00
             295.00,34.00 295.00,43.00 295.00,43.00
             295.00,43.00 311.00,43.00 311.00,43.00
             311.00,43.00 311.00,50.00 311.00,50.00
             311.00,50.00 295.00,50.00 295.00,50.00
             295.00,50.00 295.00,62.00 295.00,62.00
             295.00,62.00 313.00,62.00 313.00,62.00
             313.00,62.00 313.00,69.00 313.00,69.00
             313.00,69.00 286.00,69.00 286.00,69.00
             286.00,69.00 286.00,27.00 286.00,27.00 Z
           M 319.00,27.00
           C 325.13,27.00 339.12,25.65 343.61,29.65
             347.22,32.87 347.82,39.64 346.00,43.91
             344.76,46.79 342.49,47.98 342.52,50.32
             342.52,50.32 351.00,69.00 351.00,69.00
             348.52,69.00 342.60,69.42 340.70,68.01
             336.10,64.60 338.34,56.29 328.00,52.00
             328.00,52.00 328.00,69.00 328.00,69.00
             328.00,69.00 319.00,69.00 319.00,69.00
             319.00,69.00 319.00,27.00 319.00,27.00 Z
           M 390.00,27.00
           C 390.00,27.00 399.00,27.00 399.00,27.00
             399.00,27.00 399.00,62.00 399.00,62.00
             399.00,62.00 417.00,62.00 417.00,62.00
             417.00,62.00 417.00,69.00 417.00,69.00
             417.00,69.00 390.00,69.00 390.00,69.00
             390.00,69.00 390.00,27.00 390.00,27.00 Z
           M 422.00,27.00
           C 422.00,27.00 449.00,27.00 449.00,27.00
             449.00,27.00 449.00,34.00 449.00,34.00
             449.00,34.00 431.00,34.00 431.00,34.00
             431.00,34.00 431.00,43.00 431.00,43.00
             431.00,43.00 447.00,43.00 447.00,43.00
             447.00,43.00 447.00,50.00 447.00,50.00
             447.00,50.00 431.00,50.00 431.00,50.00
             431.00,50.00 431.00,62.00 431.00,62.00
             431.00,62.00 449.00,62.00 449.00,62.00
             449.00,62.00 449.00,69.00 449.00,69.00
             449.00,69.00 422.00,69.00 422.00,69.00
             422.00,69.00 422.00,27.00 422.00,27.00 Z
           M 328.00,45.00
           C 331.70,44.69 337.57,44.23 337.09,39.04
             336.93,37.37 336.14,36.27 334.72,35.43
             332.83,34.31 330.13,34.18 328.00,34.00
             328.00,34.00 328.00,45.00 328.00,45.00 Z
           M 366.11,34.85
           C 360.67,38.12 361.37,49.10 362.19,55.00
             362.62,58.15 364.65,62.82 368.73,61.34
             371.17,60.46 371.73,57.22 372.19,55.00
             373.09,50.65 373.64,37.77 369.49,34.85
             367.87,33.97 366.38,34.64 366.11,34.85 Z
           M 28.00,39.00
           C 25.23,42.60 24.63,47.56 24.00,52.00
             24.00,52.00 30.00,52.00 30.00,52.00
             30.00,52.00 28.00,39.00 28.00,39.00 Z" />
</svg>
