<?xml version="1.0" encoding="UTF-8" standalone="no"?>
<!DOCTYPE svg PUBLIC "-//W3C//DTD SVG 20010904//EN"
              "http://www.w3.org/TR/2001/REC-SVG-20010904/DTD/svg10.dtd">

<svg xmlns="http://www.w3.org/2000/svg"
     width="162.257mm" height="143.915mm"
     viewBox="0 0 460 408">
  <path id="Selection #5"
        fill="none" stroke="black" stroke-width="1"
        d="M 180.00,317.00
           C 179.99,319.30 180.42,323.26 178.43,324.83
             176.62,326.25 172.26,326.00 170.00,326.00
             170.00,326.00 155.00,326.00 155.00,326.00
             153.11,325.97 150.12,326.04 148.57,324.83
             146.59,323.26 147.00,319.30 147.00,317.00
             147.00,317.00 147.00,266.00 147.00,266.00
             147.05,258.30 148.10,258.04 156.00,258.00
             156.00,258.00 172.00,258.00 172.00,258.00
             174.15,258.03 177.52,257.89 179.01,259.74
             180.26,261.28 179.99,265.05 180.00,267.00
             180.00,267.00 250.00,267.00 250.00,267.00
             250.01,264.70 249.58,260.74 251.57,259.17
             253.38,257.75 257.74,258.00 260.00,258.00
             263.89,257.99 278.97,257.24 281.43,259.17
             283.41,260.74 283.00,264.70 283.00,267.00
             283.00,267.00 283.00,318.00 283.00,318.00
             282.95,325.70 281.90,325.96 274.00,326.00
             274.00,326.00 258.00,326.00 258.00,326.00
             255.85,325.97 252.48,326.11 250.99,324.26
             249.74,322.72 250.01,318.95 250.00,317.00
             250.00,317.00 180.00,317.00 180.00,317.00 Z
           M 175.00,263.00
           C 175.00,263.00 152.00,263.00 152.00,263.00
             152.00,263.00 152.00,321.00 152.00,321.00
             152.00,321.00 175.00,321.00 175.00,321.00
             175.00,321.00 175.00,263.00 175.00,263.00 Z
           M 278.00,263.00
           C 278.00,263.00 255.00,263.00 255.00,263.00
             255.00,263.00 255.00,321.00 255.00,321.00
             255.00,321.00 278.00,321.00 278.00,321.00
             278.00,321.00 278.00,263.00 278.00,263.00 Z
           M 250.00,272.00
           C 250.00,272.00 180.00,272.00 180.00,272.00
             180.00,272.00 180.00,312.00 180.00,312.00
             180.00,312.00 250.00,312.00 250.00,312.00
             250.00,312.00 250.00,272.00 250.00,272.00 Z
           M 212.00,278.00
           C 212.00,278.00 230.00,278.00 230.00,278.00
             230.00,278.00 230.00,283.00 230.00,283.00
             230.00,283.00 212.00,283.00 212.00,283.00
             212.00,283.00 212.00,278.00 212.00,278.00 Z
           M 237.00,278.00
           C 237.00,278.00 243.00,278.00 243.00,278.00
             243.00,278.00 243.00,283.00 243.00,283.00
             243.00,283.00 237.00,283.00 237.00,283.00
             237.00,283.00 237.00,278.00 237.00,278.00 Z" />
  <path id="Selection #4"
        fill="none" stroke="black" stroke-width="1"
        d="M 257.06,162.74
           C 262.47,161.40 272.08,162.00 278.00,162.00
             278.00,162.00 316.00,162.00 316.00,162.00
             325.69,162.14 325.99,165.36 326.00,174.00
             326.00,174.00 326.00,233.00 326.00,233.00
             325.98,243.30 323.94,243.98 314.00,244.00
             314.00,244.00 263.00,244.00 263.00,244.00
             253.83,243.87 253.02,241.47 253.00,233.00
             253.00,233.00 253.00,181.00 253.00,181.00
             253.00,174.85 251.10,166.38 257.06,162.74 Z
           M 322.00,165.00
           C 322.00,165.00 272.00,165.00 272.00,165.00
             258.11,165.00 256.63,163.88 256.96,171.00
             256.96,171.00 256.96,177.00 256.96,177.00
             256.96,177.00 256.96,216.00 256.96,216.00
             257.00,223.10 257.64,232.26 256.00,239.00
             261.47,240.55 267.35,240.00 273.00,240.00
             283.09,240.00 313.14,239.09 321.00,241.00
             321.00,241.00 322.00,215.00 322.00,215.00
             322.00,215.00 322.00,165.00 322.00,165.00 Z
           M 281.00,204.00
           C 279.44,206.11 276.68,211.19 274.86,212.29
             267.34,216.86 268.01,203.52 268.00,200.00
             268.00,198.03 268.12,194.90 267.40,193.10
             266.26,190.25 263.70,189.28 262.01,186.79
             258.20,181.22 259.86,173.16 266.04,170.05
             267.45,169.34 269.43,168.74 271.00,168.56
             279.97,167.49 289.62,175.69 284.83,184.98
             283.22,188.11 280.94,189.41 278.00,191.00
             278.00,191.00 281.00,204.00 281.00,204.00 Z
           M 277.00,203.00
           C 276.13,200.85 275.16,192.44 276.15,190.37
             277.33,187.91 285.06,184.40 282.26,177.02
             279.03,168.50 265.37,169.33 263.32,178.00
             261.42,186.02 268.83,187.52 270.40,191.21
             271.77,194.41 270.12,204.37 272.00,211.00
             272.00,211.00 277.00,203.00 277.00,203.00 Z
           M 272.05,174.08
           C 279.70,174.48 278.04,181.12 273.95,182.04
             270.02,182.92 265.16,177.37 272.05,174.08 Z
           M 275.00,177.00
           C 275.00,177.00 271.00,176.00 271.00,176.00
             271.00,176.00 271.00,180.00 271.00,180.00
             271.00,180.00 275.00,179.00 275.00,179.00
             275.00,179.00 275.00,177.00 275.00,177.00 Z
           M 289.00,210.00
           C 289.03,206.52 288.90,203.12 290.85,200.04
             294.82,193.79 303.91,193.29 308.49,199.11
             311.10,202.42 310.96,206.04 311.00,210.00
             311.00,210.00 318.00,210.00 318.00,210.00
             318.00,210.00 318.00,229.00 318.00,229.00
             317.99,230.82 318.15,233.92 316.98,235.40
             315.63,237.10 312.95,236.96 311.00,237.00
             311.00,237.00 289.00,237.00 289.00,237.00
             287.05,236.96 284.37,237.10 283.02,235.40
             281.77,233.81 282.00,229.99 282.00,228.00
             281.97,211.69 280.70,210.29 289.00,210.00 Z
           M 293.16,210.00
           C 295.76,210.00 304.49,210.50 306.40,208.98
             311.41,204.98 302.84,192.16 295.31,199.43
             294.20,200.51 293.69,201.54 293.16,203.02
             292.91,204.57 293.00,208.26 293.16,210.00 Z
           M 315.00,234.00
           C 315.00,234.00 315.00,219.00 315.00,219.00
             315.00,219.00 313.40,213.02 313.40,213.02
             313.40,213.02 307.00,212.00 307.00,212.00
             307.00,212.00 286.60,213.02 286.60,213.02
             286.60,213.02 285.00,219.00 285.00,219.00
             285.00,219.00 285.00,234.00 285.00,234.00
             285.00,234.00 315.00,234.00 315.00,234.00 Z
           M 298.00,230.00
           C 297.56,224.22 295.12,221.72 295.88,219.26
             297.02,215.56 303.95,215.81 304.55,220.09
             304.93,222.92 302.50,223.64 302.00,230.00
             302.00,230.00 298.00,230.00 298.00,230.00 Z
           M 302.00,219.00
           C 302.00,219.00 298.00,222.00 298.00,222.00
             300.87,221.45 300.87,221.71 302.00,219.00 Z" />
  <path id="Selection #3"
        fill="none" stroke="black" stroke-width="1"
        d="M 191.00,184.00
           C 191.00,184.00 243.00,184.00 243.00,184.00
             243.00,184.00 243.00,213.00 243.00,213.00
             243.00,213.00 191.00,213.00 191.00,213.00
             191.00,213.00 191.00,184.00 191.00,184.00 Z
           M 240.00,186.00
           C 240.00,186.00 194.00,186.00 194.00,186.00
             194.00,186.00 194.00,211.00 194.00,211.00
             194.00,211.00 240.00,211.00 240.00,211.00
             240.00,211.00 240.00,186.00 240.00,186.00 Z
           M 197.00,188.00
           C 197.00,188.00 200.00,188.00 200.00,188.00
             200.00,188.00 200.00,209.00 200.00,209.00
             200.00,209.00 197.00,209.00 197.00,209.00
             197.00,209.00 197.00,188.00 197.00,188.00 Z
           M 203.00,188.00
           C 203.00,188.00 206.00,188.00 206.00,188.00
             206.00,188.00 206.00,209.00 206.00,209.00
             206.00,209.00 203.00,209.00 203.00,209.00
             203.00,209.00 203.00,188.00 203.00,188.00 Z
           M 209.00,188.00
           C 209.00,188.00 212.00,188.00 212.00,188.00
             212.00,188.00 212.00,209.00 212.00,209.00
             212.00,209.00 209.00,209.00 209.00,209.00
             209.00,209.00 209.00,188.00 209.00,188.00 Z
           M 215.00,188.00
           C 215.00,188.00 218.00,188.00 218.00,188.00
             218.00,188.00 218.00,209.00 218.00,209.00
             218.00,209.00 215.00,209.00 215.00,209.00
             215.00,209.00 215.00,188.00 215.00,188.00 Z
           M 222.00,188.00
           C 222.00,188.00 224.00,188.00 224.00,188.00
             224.00,188.00 225.00,209.00 225.00,209.00
             225.00,209.00 221.00,209.00 221.00,209.00
             221.00,209.00 222.00,188.00 222.00,188.00 Z
           M 228.00,188.00
           C 228.00,188.00 231.00,188.00 231.00,188.00
             231.00,188.00 231.00,209.00 231.00,209.00
             231.00,209.00 228.00,209.00 228.00,209.00
             228.00,209.00 228.00,188.00 228.00,188.00 Z
           M 234.00,188.00
           C 234.00,188.00 237.00,188.00 237.00,188.00
             237.00,188.00 237.00,209.00 237.00,209.00
             237.00,209.00 234.00,209.00 234.00,209.00
             234.00,209.00 234.00,188.00 234.00,188.00 Z" />
  <path id="Selection #2"
        fill="none" stroke="black" stroke-width="1"
        d="M 125.00,207.00
           C 125.00,199.26 123.02,179.84 128.39,174.53
             135.53,167.47 151.79,167.18 161.00,169.51
             164.83,170.49 169.97,172.76 172.26,176.10
             174.73,179.71 174.00,187.58 174.00,192.00
             174.00,192.00 171.00,192.00 171.00,192.00
             171.00,192.00 171.00,186.00 171.00,186.00
             159.30,193.98 139.70,193.98 128.00,186.00
             128.00,186.00 128.00,207.00 128.00,207.00
             128.00,207.00 125.00,207.00 125.00,207.00 Z
           M 143.00,171.30
           C 140.62,171.75 138.26,172.23 136.00,173.12
             134.67,173.64 133.23,174.32 132.06,175.13
             127.43,178.34 126.96,182.55 132.06,185.59
             136.18,188.04 143.24,188.94 148.00,189.00
             153.70,189.06 160.79,188.65 165.98,186.08
             168.76,184.71 171.40,182.50 170.34,179.04
             167.82,170.72 149.89,170.61 143.00,171.30 Z
           M 159.00,219.00
           C 159.64,212.75 161.69,208.64 164.13,203.00
             164.94,201.13 165.80,198.22 167.51,197.01
             170.42,194.98 179.67,196.05 183.00,197.01
             183.00,197.01 176.00,211.00 176.00,211.00
             176.00,211.00 185.00,212.00 185.00,212.00
             185.00,212.00 173.05,232.00 173.05,232.00
             173.05,232.00 162.00,247.00 162.00,247.00
             162.00,247.00 168.00,219.00 168.00,219.00
             168.00,219.00 159.00,219.00 159.00,219.00 Z
           M 179.00,199.00
           C 176.77,199.00 171.09,198.76 169.27,199.60
             165.61,201.29 162.36,213.07 162.00,217.00
             162.00,217.00 170.00,217.00 170.00,217.00
             170.00,217.00 166.00,236.00 166.00,236.00
             170.82,233.22 178.99,219.42 181.00,214.00
             181.00,214.00 173.00,214.00 173.00,214.00
             173.00,214.00 179.00,199.00 179.00,199.00 Z
           M 146.00,205.00
           C 146.00,205.00 149.00,205.00 149.00,205.00
             149.00,205.00 149.00,211.00 149.00,211.00
             149.00,211.00 154.00,211.00 154.00,211.00
             154.00,211.00 154.00,214.00 154.00,214.00
             154.00,214.00 149.00,214.00 149.00,214.00
             149.00,214.00 149.00,220.00 149.00,220.00
             149.00,220.00 146.00,220.00 146.00,220.00
             146.00,220.00 146.00,214.00 146.00,214.00
             146.00,214.00 141.00,214.00 141.00,214.00
             141.00,214.00 141.00,211.00 141.00,211.00
             141.00,211.00 146.00,211.00 146.00,211.00
             146.00,211.00 146.00,205.00 146.00,205.00 Z
           M 113.00,214.00
           C 113.00,214.00 115.31,210.60 115.31,210.60
             115.31,210.60 138.00,210.00 138.00,210.00
             138.00,210.00 138.00,214.00 138.00,214.00
             138.00,214.00 113.00,214.00 113.00,214.00 Z
           M 120.00,224.00
           C 120.00,224.00 159.00,224.00 159.00,224.00
             159.00,224.00 159.00,228.00 159.00,228.00
             159.00,228.00 120.00,228.00 120.00,228.00
             120.00,228.00 120.00,224.00 120.00,224.00 Z
           M 126.00,231.00
           C 130.78,232.39 131.85,234.61 137.00,236.23
             143.93,238.40 149.90,238.00 157.00,238.00
             154.63,241.40 151.92,241.11 148.00,240.96
             139.03,240.62 130.57,239.41 126.00,231.00 Z" />
  <path id="Selection #1"
        fill="none" stroke="black" stroke-width="1"
        d="M 120.00,105.00
           C 120.00,105.00 132.00,105.00 132.00,105.00
             132.00,105.00 132.00,128.00 132.00,128.00
             132.00,128.00 133.60,134.40 133.60,134.40
             133.60,134.40 140.00,136.00 140.00,136.00
             140.00,136.00 168.00,136.00 168.00,136.00
             168.00,136.00 168.00,105.00 168.00,105.00
             168.00,105.00 181.00,105.00 181.00,105.00
             181.00,105.00 181.00,136.00 181.00,136.00
             181.00,136.00 208.00,136.00 208.00,136.00
             208.00,136.00 215.40,134.40 215.40,134.40
             215.40,134.40 217.00,126.00 217.00,126.00
             217.00,126.00 217.00,105.00 217.00,105.00
             217.00,105.00 229.00,105.00 229.00,105.00
             229.00,105.00 229.00,128.00 229.00,128.00
             229.00,128.00 230.60,134.40 230.60,134.40
             230.60,134.40 237.00,136.00 237.00,136.00
             237.00,136.00 265.00,136.00 265.00,136.00
             265.00,136.00 265.00,105.00 265.00,105.00
             265.00,105.00 278.00,105.00 278.00,105.00
             278.00,105.00 278.00,136.00 278.00,136.00
             278.00,136.00 305.00,136.00 305.00,136.00
             305.00,136.00 312.40,134.40 312.40,134.40
             312.40,134.40 314.00,126.00 314.00,126.00
             314.00,126.00 314.00,105.00 314.00,105.00
             314.00,105.00 326.00,105.00 326.00,105.00
             326.00,105.00 326.00,127.00 326.00,127.00
             326.01,129.00 325.88,131.98 327.02,133.69
             328.60,136.05 331.48,135.95 334.00,136.00
             338.81,136.08 353.17,134.91 356.43,137.74
             360.37,141.15 359.00,154.79 359.00,160.00
             359.00,160.00 399.00,160.00 399.00,160.00
             399.00,160.00 399.00,170.00 399.00,170.00
             399.00,170.00 359.00,170.00 359.00,170.00
             359.00,170.00 359.00,189.00 359.00,189.00
             359.05,191.52 358.95,194.40 361.31,195.98
             363.16,197.21 366.81,197.00 369.00,197.00
             369.00,197.00 399.00,197.00 399.00,197.00
             399.00,197.00 399.00,206.00 399.00,206.00
             399.00,206.00 367.00,206.00 367.00,206.00
             364.48,206.05 361.60,205.95 360.02,208.31
             358.79,210.16 359.00,213.81 359.00,216.00
             359.00,216.00 359.00,233.00 359.00,233.00
             359.00,233.00 399.00,233.00 399.00,233.00
             399.00,233.00 399.00,243.00 399.00,243.00
             399.00,243.00 359.00,243.00 359.00,243.00
             359.00,243.00 359.00,262.00 359.00,262.00
             359.05,264.52 358.95,267.40 361.31,268.98
             363.16,270.21 366.81,270.00 369.00,270.00
             369.00,270.00 399.00,270.00 399.00,270.00
             399.00,270.00 399.00,279.00 399.00,279.00
             399.00,279.00 368.00,279.00 368.00,279.00
             365.30,279.04 361.75,278.92 360.02,281.43
             358.78,283.24 359.00,286.84 359.00,289.00
             359.00,289.00 359.00,306.00 359.00,306.00
             359.00,306.00 399.00,306.00 399.00,306.00
             399.00,306.00 399.00,316.10 399.00,316.10
             399.00,316.10 368.00,316.10 368.00,316.10
             366.68,316.01 364.28,315.98 363.06,316.10
             354.90,318.54 362.06,333.71 357.40,338.26
             355.29,340.32 350.77,340.00 348.00,340.00
             342.43,340.01 327.95,337.88 326.80,345.04
             326.80,345.04 326.80,371.00 326.80,371.00
             326.80,371.00 314.00,371.00 314.00,371.00
             314.00,371.00 314.00,349.00 314.00,349.00
             313.99,347.00 314.12,344.02 312.98,342.31
             311.40,339.95 308.52,340.05 306.00,340.00
             306.00,340.00 287.00,340.00 287.00,340.00
             284.68,340.05 282.20,340.01 280.31,341.60
             277.62,343.87 278.01,347.82 278.00,351.00
             278.00,351.00 278.00,371.00 278.00,371.00
             278.00,371.00 265.00,371.00 265.00,371.00
             265.00,371.00 265.00,349.00 265.00,349.00
             264.99,347.00 265.12,344.02 263.98,342.31
             262.40,339.95 259.52,340.05 257.00,340.00
             251.57,339.90 234.84,338.68 231.33,342.31
             228.49,345.24 229.95,350.19 230.00,354.00
             230.00,354.00 230.00,371.00 230.00,371.00
             230.00,371.00 217.00,371.00 217.00,371.00
             217.00,371.00 217.00,351.00 217.00,351.00
             217.00,348.65 217.19,345.20 215.98,343.15
             212.75,337.69 198.77,340.99 193.00,341.00
             190.05,341.01 184.82,340.57 182.60,342.74
             180.66,344.64 181.01,348.47 181.00,351.00
             181.00,351.00 181.00,371.00 181.00,371.00
             181.00,371.00 168.00,371.00 168.00,371.00
             168.00,371.00 168.00,349.00 168.00,349.00
             167.96,346.86 168.04,344.23 166.40,342.60
             163.08,339.28 149.62,341.76 145.00,341.96
             141.75,342.10 134.94,341.13 133.04,344.31
             132.13,346.02 132.97,351.67 133.04,354.00
             133.04,354.00 133.04,372.00 133.04,372.00
             133.04,372.00 120.00,372.00 120.00,372.00
             120.00,372.00 120.00,342.00 120.00,342.00
             120.00,342.00 99.00,342.00 99.00,342.00
             95.89,341.94 92.02,341.72 89.74,339.26
             84.93,334.11 92.06,319.53 83.94,317.10
             82.59,316.94 79.50,317.00 78.00,317.10
             78.00,317.10 47.00,317.10 47.00,317.10
             47.00,317.10 47.00,308.00 47.00,308.00
             47.00,308.00 62.00,308.00 62.00,308.00
             62.00,308.00 79.00,307.00 79.00,307.00
             89.41,306.93 88.09,303.41 88.00,290.00
             87.98,287.65 88.19,284.39 86.40,282.60
             84.48,280.68 80.54,281.01 78.00,281.00
             78.00,281.00 47.00,281.00 47.00,281.00
             47.00,281.00 47.00,271.00 47.00,271.00
             47.00,271.00 77.00,271.00 77.00,271.00
             79.81,270.98 83.39,271.16 85.69,269.26
             89.03,266.51 88.03,257.17 88.00,253.00
             87.98,250.65 88.19,247.39 86.40,245.60
             84.48,243.68 80.54,244.01 78.00,244.00
             78.00,244.00 47.00,244.00 47.00,244.00
             47.00,244.00 47.00,235.00 47.00,235.00
             47.00,235.00 64.00,234.00 64.00,234.00
             64.00,234.00 79.00,234.00 79.00,234.00
             90.31,233.79 88.06,226.01 88.00,217.00
             87.98,214.65 88.19,211.39 86.40,209.60
             84.48,207.68 80.54,208.01 78.00,208.00
             78.00,208.00 47.00,208.00 47.00,208.00
             47.00,208.00 47.00,198.00 47.00,198.00
             47.00,198.00 77.00,198.00 77.00,198.00
             79.76,197.96 83.41,197.95 85.69,196.15
             89.07,193.46 88.05,184.12 88.00,180.00
             87.96,177.63 88.04,174.42 86.26,172.60
             84.36,170.66 80.53,171.01 78.00,171.00
             78.00,171.00 47.00,171.00 47.00,171.00
             47.00,171.00 47.00,160.90 47.00,160.90
             47.00,160.90 77.00,160.90 77.00,160.90
             78.55,161.00 81.57,161.06 82.98,160.90
             92.41,158.22 84.90,143.72 89.74,138.58
             91.48,136.73 95.56,136.26 98.00,136.04
             98.00,136.04 120.00,136.04 120.00,136.04
             120.00,136.04 120.00,105.00 120.00,105.00 Z
           M 346.00,331.00
           C 346.00,331.00 346.00,188.00 346.00,188.00
             346.00,188.00 346.00,158.00 346.00,158.00
             346.00,158.00 344.98,146.60 344.98,146.60
             344.98,146.60 337.00,145.00 337.00,145.00
             337.00,145.00 209.00,145.00 209.00,145.00
             209.00,145.00 194.00,146.00 194.00,146.00
             194.00,146.00 158.00,146.00 158.00,146.00
             158.00,146.00 141.00,147.00 141.00,147.00
             141.00,147.00 100.00,147.00 100.00,147.00
             100.00,147.00 100.00,288.00 100.00,288.00
             100.00,288.00 100.00,318.00 100.00,318.00
             100.00,318.00 101.02,329.40 101.02,329.40
             101.02,329.40 109.00,331.00 109.00,331.00
             109.00,331.00 346.00,331.00 346.00,331.00 Z" />
  <path id="Selection"
        fill="none" stroke="black" stroke-width="1"
        d="M 56.00,133.00
           C 53.55,130.65 51.64,128.49 50.09,125.42
             40.49,106.50 56.37,91.26 73.00,84.81
             73.00,84.81 96.69,77.15 96.69,77.15
             99.69,74.72 98.63,71.44 99.24,68.17
             99.72,65.54 101.97,61.24 103.47,59.04
             111.86,46.76 126.35,38.29 140.00,33.06
             151.25,28.76 167.96,25.32 180.00,24.04
             180.00,24.04 189.00,24.04 189.00,24.04
             189.00,24.04 200.00,23.00 200.00,23.00
             200.00,23.00 213.00,24.04 213.00,24.04
             213.00,24.04 221.00,24.04 221.00,24.04
             233.70,25.38 251.09,29.51 263.00,34.06
             269.05,36.38 280.76,42.42 286.00,46.14
             288.67,48.05 295.72,54.35 298.04,54.98
             301.39,55.89 309.01,52.74 313.00,52.17
             323.92,50.60 335.20,50.29 346.00,52.90
             353.74,54.76 363.27,58.22 368.81,64.09
             373.79,69.36 373.78,74.26 378.13,76.57
             378.13,76.57 396.00,81.01 396.00,81.01
             409.18,84.00 430.33,90.77 438.43,102.00
             446.06,112.57 440.81,126.89 431.99,134.82
             418.86,146.61 391.33,151.95 374.00,152.00
             374.00,152.00 374.00,145.00 374.00,145.00
             378.42,143.74 379.76,144.18 384.00,143.57
             395.07,141.98 410.70,137.64 418.91,129.82
             423.84,125.11 428.46,116.97 426.15,110.00
             424.15,104.01 418.38,99.61 413.00,96.78
             401.12,90.54 390.97,88.31 378.00,85.80
             374.95,85.22 365.37,84.01 363.31,82.69
             360.60,80.95 360.03,75.97 357.64,72.04
             354.45,66.80 348.85,62.97 343.00,61.36
             332.64,58.34 322.33,58.51 312.00,61.36
             305.13,63.37 298.01,68.56 291.01,66.35
             286.04,64.78 283.43,60.01 279.83,56.61
             274.38,51.46 266.82,46.52 260.00,43.44
             230.99,30.32 198.93,27.79 168.00,34.58
             151.43,38.21 140.54,41.78 127.01,52.66
             121.53,57.07 115.98,64.21 113.90,71.00
             112.06,77.04 114.78,79.61 112.36,82.49
             110.08,85.22 95.27,87.28 91.00,88.38
             78.42,91.62 61.81,100.81 63.11,116.00
             63.50,120.53 65.92,124.07 68.00,128.00
             68.00,128.00 56.00,133.00 56.00,133.00 Z" />
</svg>
