<?xml version="1.0" encoding="UTF-8" standalone="no"?>
<!-- Created with Inkscape (http://www.inkscape.org/) -->

<svg
   width="1390"
   height="320"
   viewBox="0 0 367.77084 84.666662"
   version="1.1"
   id="svg5"
   inkscape:version="1.1 (ce6663b3b7, 2021-05-25)"
   sodipodi:docname="inkscapeLogoPathsWithColorNoStroke.svg"
   xmlns:inkscape="http://www.inkscape.org/namespaces/inkscape"
   xmlns:sodipodi="http://sodipodi.sourceforge.net/DTD/sodipodi-0.dtd"
   xmlns:xlink="http://www.w3.org/1999/xlink"
   xmlns="http://www.w3.org/2000/svg"
   xmlns:svg="http://www.w3.org/2000/svg">
  <sodipodi:namedview
     id="namedview7"
     pagecolor="#505050"
     bordercolor="#ffffff"
     borderopacity="1"
     inkscape:pageshadow="0"
     inkscape:pageopacity="0"
     inkscape:pagecheckerboard="1"
     inkscape:document-units="mm"
     showgrid="true"
     units="px"
     fit-margin-top="0"
     fit-margin-left="0"
     fit-margin-right="0"
     fit-margin-bottom="0"
     inkscape:zoom="1.8519355"
     inkscape:cx="277.27748"
     inkscape:cy="185.48163"
     inkscape:window-width="1848"
     inkscape:window-height="1016"
     inkscape:window-x="0"
     inkscape:window-y="0"
     inkscape:window-maximized="1"
     inkscape:current-layer="layer1">
    <inkscape:grid
       type="xygrid"
       id="grid67239" />
  </sodipodi:namedview>
  <defs
     id="defs2">
    <linearGradient
       id="linearGradient67901"
       inkscape:swatch="solid">
      <stop
         style="stop-color:#000000;stop-opacity:1;"
         offset="0"
         id="stop67899" />
    </linearGradient>
    <linearGradient
       id="linearGradient67895"
       inkscape:swatch="solid">
      <stop
         style="stop-color:#000000;stop-opacity:1;"
         offset="0"
         id="stop67893" />
    </linearGradient>
    <linearGradient
       inkscape:collect="always"
       xlink:href="#linearGradient67895"
       id="linearGradient67897"
       x1="338.25487"
       y1="317.50006"
       x2="476.43422"
       y2="317.50006"
       gradientUnits="userSpaceOnUse" />
    <linearGradient
       inkscape:collect="always"
       xlink:href="#linearGradient67901"
       id="linearGradient67903"
       x1="338.25487"
       y1="317.50006"
       x2="476.43422"
       y2="317.50006"
       gradientUnits="userSpaceOnUse" />
  </defs>
  <g
     inkscape:label="Layer 1"
     inkscape:groupmode="layer"
     id="layer1"
     transform="translate(-2.398759,-3.3025789)"
     style="display:inline">
    <path
       d="m 112.27891,17.854662 c 0,0 7.15604,0 7.15604,0 0,0 6.5597,58.208334 6.5597,58.208334 0,0 -5.96336,0 -5.96336,0 -0.86468,-14.122418 -1.79497,-13.845233 -7.15604,-13.859107 0,0 -1.19267,13.859107 -1.19267,13.859107 0,0 -5.96337,0 -5.96337,0 0,0 6.5597,-58.208334 6.5597,-58.208334 z"
       id="path5033"
       style="fill:#d40000;fill-opacity:1;stroke-width:1.01383" />
    <path
       d="m 351.40996,18.623553 c 0,0 16.10107,0 16.10107,0 0,0 0,9.438546 0,9.438546 0,0 -10.73406,0 -10.73406,0 0,0 0,12.13528 0,12.13528 0,0 9.54139,0 9.54139,0 0,0 0,9.438523 0,9.438523 0,0 -9.54139,0 -9.54139,0 0,0 0,16.180389 0,16.180389 0,0 10.73406,0 10.73406,0 0,0 0,9.4385 0,9.4385 0,0 -16.10107,0 -16.10107,0 0,0 0,-56.631238 0,-56.631238 z"
       id="path5051"
       style="fill:#0000ff;fill-opacity:1" />
    <path
       d="m 332.32718,18.623553 c 0,0 5.36702,0 5.36702,0 0,0 0,47.192738 0,47.192738 0,0 10.73405,0 10.73405,0 0,0 0,9.4385 0,9.4385 0,0 -16.10107,0 -16.10107,0 0,0 0,-56.631238 0,-56.631238 z"
       id="path5049"
       style="fill:#0000ff;fill-opacity:1" />
    <path
       d="m 290.05534,18.530912 c 3.65554,0 11.99829,-1.820235 14.67585,3.573205 2.15277,4.341688 2.51059,13.470087 1.42525,19.227624 -0.73948,3.883261 -2.09316,5.487815 -2.07526,8.643021 0,0 5.05692,25.187388 5.05692,25.187388 -1.4789,0 -5.0092,0.566327 -6.14226,-1.334855 -2.74315,-4.597933 -1.40735,-15.802813 -7.57347,-21.587279 0,0 0,22.922134 0,22.922134 0,0 -5.36703,0 -5.36703,0 0,0 0,-56.631238 0,-56.631238 z"
       id="path5047"
       style="fill:#0000ff;fill-opacity:1" />
    <path
       d="m 270.30815,18.623553 c 0,0 16.1011,0 16.1011,0 0,0 0,9.438546 0,9.438546 0,0 -10.73408,0 -10.73408,0 0,0 0,12.13528 0,12.13528 0,0 9.54138,0 9.54138,0 0,0 0,9.438523 0,9.438523 0,0 -9.54138,0 -9.54138,0 0,0 0,16.180389 0,16.180389 0,0 10.73408,0 10.73408,0 0,0 0,9.4385 0,9.4385 0,0 -16.1011,0 -16.1011,0 0,0 0,-56.631238 0,-56.631238 z"
       id="path5045"
       style="fill:#00ff00;fill-opacity:1" />
    <path
       d="m 249.43636,18.623553 c 0,0 5.96338,0 5.96338,0 0,0 0,21.573826 0,21.573826 0,0 5.36702,0 5.36702,0 0,0 0,-21.573826 0,-21.573826 0,0 5.36702,0 5.36702,0 0,0 0,56.631238 0,56.631238 0,0 -5.36702,0 -5.36702,0 0,0 0,-25.618889 0,-25.618889 0,0 -5.36702,0 -5.36702,0 0,0 0,25.618889 0,25.618889 0,0 -5.96338,0 -5.96338,0 0,0 0,-56.631238 0,-56.631238 z"
       id="path5043"
       style="fill:#00ff00;fill-opacity:1" />
    <path
       d="m 228.56458,18.623553 c 0,0 17.89011,0 17.89011,0 0,0 0,9.438546 0,9.438546 0,0 -5.96338,0 -5.96338,0 0,0 0,47.192692 0,47.192692 0,0 -5.36703,0 -5.36703,0 0,0 0,-47.192692 0,-47.192692 0,0 -6.5597,0 -6.5597,0 0,0 0,-9.438546 0,-9.438546 z"
       id="path5041"
       style="fill:#00ff00;fill-opacity:1" />
    <path
       d="m 209.48181,18.623553 c 0,0 16.10108,0 16.10108,0 0,0 0,9.438546 0,9.438546 0,0 -10.73405,0 -10.73405,0 0,0 0,12.13528 0,12.13528 0,0 9.54137,0 9.54137,0 0,0 0,9.438523 0,9.438523 0,0 -9.54137,0 -9.54137,0 0,0 0,16.180389 0,16.180389 0,0 10.73405,0 10.73405,0 0,0 0,9.4385 0,9.4385 0,0 -16.10108,0 -16.10108,0 0,0 0,-56.631238 0,-56.631238 z"
       id="path5039"
       style="fill:#d40000;fill-opacity:1" />
    <path
       d="m 188.01368,18.623553 c 0,0 6.55971,0 6.55971,0 0,0 2.98167,20.225448 2.98167,20.225448 0,0 1.78901,-20.225448 1.78901,-20.225448 0,0 6.55971,0 6.55971,0 0,0 0,56.631238 0,56.631238 0,0 -4.77068,0 -4.77068,0 0,0 -0.59634,-33.709059 -0.59634,-33.709059 -0.51881,13.982558 -1.60415,13.456682 -5.96337,13.483657 0,0 -1.78903,-16.180388 -1.78903,-16.180388 0,0 0,36.40579 0,36.40579 0,0 -4.77068,0 -4.77068,0 0,0 0,-56.631238 0,-56.631238 z"
       id="path5037"
       style="fill:#d40000;fill-opacity:1" />
    <path
       d="m 167.73824,18.623553 c 0,0 5.96336,0 5.96336,0 0,0 0,35.057436 0,35.057436 0.0358,4.19341 0.16697,9.923948 2.41517,11.137478 2.51652,1.348399 3.76287,-5.339515 4.09087,-9.789078 0,0 0,-36.405836 0,-36.405836 0,0 5.42068,0 5.42068,0 0,0 0,35.057436 0,35.057436 -0.0299,5.528335 -0.31605,12.620703 -1.789,17.245566 -2.93994,9.222799 -12.43363,7.766593 -14.72355,-2.440508 -1.96792,-8.791344 -1.37753,-38.72497 -1.37753,-49.862494 z"
       id="path5035"
       style="fill:#d40000;fill-opacity:1" />
    <path
       d="m 314.60709,17.854662 c 1.71148,-0.943854 2.38533,-1.07868 4.16243,-0.970805 8.43219,0.485403 8.42028,19.497323 8.34871,33.682109 -0.0478,9.222798 -1.06148,20.859175 -5.36704,24.621087 -1.07936,0.943874 -2.43304,0.984325 -3.57803,0.984325 -1.69955,0 -3.25001,-0.06737 -4.71104,-2.33268 -5.42071,-8.400295 -5.28354,-38.846321 -1.86654,-50.186097 1.03763,-3.43826 1.47296,-3.883283 3.01151,-5.797939 z"
       id="path5031"
       style="fill:#0000ff;fill-opacity:1" />
    <path
       d="m 148.05912,60.422876 c 2.7193,1.456228 5.71886,6.310317 8.33678,4.948462 1.55048,-0.809025 2.97573,-3.627107 2.29591,-7.510368 -0.66195,-3.788885 -3.16059,-5.69009 -4.66933,-7.294643 -3.78077,-4.018111 -6.30922,-7.968843 -5.84409,-18.459072 0.57248,-12.93083 4.51427,-15.088211 9.4221,-14.818512 1.61013,0.09448 4.31153,0.458452 5.373,3.627086 0.78122,2.346131 0.59038,8.251971 0.59038,11.191426 -2.14084,-1.361852 -4.97345,-4.759758 -7.14412,-3.600157 -1.68166,0.889951 -2.73717,3.667581 -1.52661,7.281168 1.65782,4.948488 6.41658,5.272111 8.66477,12.742031 2.21242,7.348593 1.61607,20.65695 -1.80691,25.578437 -1.99771,2.85851 -4.84224,2.60238 -7.13217,2.481006 -2.89223,-0.175511 -3.8583,-1.307927 -6.55971,-2.683256 0,0 0,-13.483608 0,-13.483608 z"
       id="path5029"
       style="fill:#d40000;fill-opacity:1" />
    <path
       d="m 127.78368,60.422876 c 2.71928,1.456228 5.71886,6.310317 8.33678,4.948462 1.55049,-0.809025 2.97572,-3.627107 2.29591,-7.510368 -0.66195,-3.788885 -3.1606,-5.69009 -4.66932,-7.294643 -3.78078,-4.018111 -6.30925,-7.968843 -5.84411,-18.459072 0.5725,-12.93083 4.51427,-15.088211 9.42213,-14.818512 1.61009,0.09448 4.31152,0.458452 5.373,3.627086 0.78119,2.346131 0.59036,8.251971 0.59036,11.191426 -2.14084,-1.361852 -4.97345,-4.759758 -7.14411,-3.600157 -1.68168,0.889951 -2.73719,3.667581 -1.52662,7.281168 1.65782,4.948488 6.41658,5.272111 8.66475,12.742031 2.21243,7.348593 1.61609,20.65695 -1.80687,25.578437 -1.99775,2.85851 -4.84227,2.60238 -7.13219,2.481006 -2.89226,-0.175511 -3.85831,-1.307927 -6.55971,-2.683256 0,0 0,-13.483608 0,-13.483608 z"
       id="Selection"
       style="fill:#d40000;fill-opacity:1" />
    <path
       id="Selection-4"
       d="M 8.8436188,29.522124 C 8.0041498,29.6993 6.0524507,30.545022 5.4804467,30.360759 4.7522006,30.126885 4.0636778,28.929174 3.8200459,28.300788 2.9567438,26.075454 3.3592651,24.015484 5.1255925,22.222459 c 1.7133638,-1.738691 4.4489199,-2.825372 6.8958275,-3.46793 0.847412,-0.222062 3.861027,-0.855172 4.366827,-1.244961 0.820932,-0.63547 0.51904,-1.684355 0.86595,-2.63402 0.429004,-1.174089 1.782216,-2.655283 2.75939,-3.531714 4.36153,-3.9073307 12.464921,-5.8373712 18.489501,-6.380712 0,0 2.118534,0 2.118534,0 0,0 2.648167,-0.2456843 2.648167,-0.2456843 5.251315,-0.054335 13.820783,1.0347094 18.537168,3.0663316 1.557123,0.6709071 3.643878,1.6725442 5.02887,2.5702377 0,0 2.674648,1.835548 2.674648,1.835548 1.072507,0.4016 3.01891,-0.427586 4.213234,-0.52208 2.84943,-0.425224 5.64325,-0.489007 8.474137,0 2.15296,0.474832 4.77729,1.304018 6.305284,2.756864 1.416768,1.346539 1.279063,2.520628 2.711726,3.042708 0,0 4.753462,1.006361 4.753462,1.006361 2.849422,0.618936 5.677672,1.43631 8.209322,2.785212 2.0179,1.072507 4.0464,2.903328 3.76834,5.192447 -0.82093,6.796483 -11.773756,8.724162 -18.068447,8.740698 0,0 0,-1.653645 0,-1.653645 1.17049,-0.297656 1.525343,-0.193713 2.648166,-0.337816 2.93152,-0.375613 7.070606,-1.400874 9.244741,-3.248233 1.30556,-1.112666 2.52901,-3.03562 1.91728,-4.68218 -0.52963,-1.415048 -2.05762,-2.454482 -3.48234,-3.123026 -3.146024,-1.474108 -5.833907,-2.000912 -9.268583,-2.593862 -0.775913,-0.132292 -3.394951,-0.415774 -3.892808,-0.701619 -0.791801,-0.458295 -0.860653,-1.589863 -1.501506,-2.548977 -0.778566,-1.162277 -2.18209,-2.045795 -3.609451,-2.487556 -2.743506,-0.789024 -5.720048,-0.713428 -8.47414,0 C 71.639601,14.25425 69.754107,15.480309 67.90039,14.95823 66.565713,14.582617 65.908968,13.4605 64.937091,12.6573 63.59447,11.554082 61.356769,10.21699 59.688423,9.5460833 52.249723,6.5435351 44.085425,5.8938883 36.119738,7.316024 c -4.689904,0.8362717 -7.825333,1.6654571 -11.649287,4.408148 -1.451195,1.041796 -2.920927,2.728515 -3.471746,4.332552 -0.487262,1.426859 0.233039,2.033983 -0.407818,2.71434 -0.582596,0.621299 -3.357875,0.930766 -4.332401,1.11503 -3.667711,0.696894 -9.1043981,2.704892 -8.7098213,6.801208 0.1112227,1.159915 0.8076914,1.823736 1.2949541,2.834822 z M 22.614087,24.088717 c 0,0 3.177801,0 3.177801,0 0,0 0,5.433407 0,5.433407 0,0 0.423707,1.511904 0.423707,1.511904 0,0 1.694826,0.377977 1.694826,0.377977 0,0 7.414868,0 7.414868,0 0,0 0,-7.323288 0,-7.323288 0,0 3.442617,0 3.442617,0 0,0 0,7.323288 0,7.323288 0,0 7.150049,0 7.150049,0 0,0 1.959645,-0.377977 1.959645,-0.377977 0,0 0.423706,-1.984375 0.423706,-1.984375 0,0 0,-4.960936 0,-4.960936 0,0 3.1778,0 3.1778,0 0,0 0,5.433407 0,5.433407 0,0 0.423708,1.511904 0.423708,1.511904 0,0 1.694826,0.377977 1.694826,0.377977 0,0 7.414868,0 7.414868,0 0,0 0,-7.323288 0,-7.323288 0,0 3.442616,0 3.442616,0 0,0 0,7.323288 0,7.323288 0,0 7.15005,0 7.15005,0 0,0 1.959643,-0.377977 1.959643,-0.377977 0,0 0.423708,-1.984375 0.423708,-1.984375 0,0 0,-4.960936 0,-4.960936 0,0 3.1778,0 3.1778,0 0,0 0,5.197172 0,5.197172 0.003,0.47247 -0.03176,1.17645 0.270116,1.580413 0.418411,0.557514 1.181083,0.53389 1.848423,0.545703 1.273764,0.01889 5.076535,-0.257496 5.939838,0.411048 1.04338,0.805563 0.680576,4.027809 0.680576,5.258593 0,0 10.59267,0 10.59267,0 0,0 0,2.362352 0,2.362352 0,0 -10.59267,0 -10.59267,0 0,0 0,4.488467 0,4.488467 0.0132,0.595311 -0.0132,1.275669 0.611732,1.64892 0.489907,0.290569 1.456492,0.240961 2.036436,0.240961 0,0 7.944502,0 7.944502,0 0,0 0,2.126114 0,2.126114 0,0 -8.474131,0 -8.474131,0 -0.667341,0.01181 -1.430012,-0.01181 -1.848424,0.545704 -0.325723,0.437034 -0.270115,1.299293 -0.270115,1.816647 0,0 0,4.015998 0,4.015998 0,0 10.59267,0 10.59267,0 0,0 0,2.36235 0,2.36235 0,0 -10.59267,0 -10.59267,0 0,0 0,4.488467 0,4.488467 0.0132,0.595312 -0.0132,1.275669 0.611732,1.64892 0.489907,0.290571 1.456492,0.240961 2.036436,0.240961 0,0 7.944502,0 7.944502,0 0,0 0,2.126116 0,2.126116 0,0 -8.209316,0 -8.209316,0 -0.715007,0.0095 -1.655105,-0.01889 -2.113239,0.574051 -0.328374,0.427586 -0.270115,1.278031 -0.270115,1.7883 0,0 0,4.015993 0,4.015993 0,0 10.59267,0 10.59267,0 0,0 0,2.385974 0,2.385974 0,0 -8.209316,0 -8.209316,0 -0.349561,-0.02123 -0.985122,-0.02832 -1.308195,0 -2.160903,0.576414 -0.264814,4.1601 -1.498863,5.234973 -0.558765,0.486644 -1.755735,0.411046 -2.489277,0.411046 -1.475027,0.0026 -5.309579,-0.500815 -5.614115,1.190629 0,0 0,6.132665 0,6.132665 0,0 -3.389657,0 -3.389657,0 0,0 0,-5.197175 0,-5.197175 -0.0026,-0.472473 0.03179,-1.176452 -0.270113,-1.580411 -0.418411,-0.557515 -1.181083,-0.533893 -1.84842,-0.545708 0,0 -5.031518,0 -5.031518,0 -0.614374,0.01178 -1.271119,0.0026 -1.771622,0.377981 -0.712358,0.536251 -0.609079,1.469376 -0.611728,2.220604 0,0 0,4.724709 0,4.724709 0,0 -3.442616,0 -3.442616,0 0,0 0,-5.197175 0,-5.197175 -0.0026,-0.472473 0.03178,-1.176452 -0.270114,-1.580411 -0.41841,-0.557515 -1.181082,-0.533893 -1.848419,-0.545708 -1.437956,-0.02364 -5.86834,-0.311831 -6.797846,0.545708 -0.752079,0.692163 -0.365447,1.861529 -0.352206,2.761582 0,0 0,4.016004 0,4.016004 0,0 -3.442617,0 -3.442617,0 0,0 0,-4.724709 0,-4.724709 0,-0.555151 0.05032,-1.370163 -0.270113,-1.854444 -0.855358,-1.289841 -4.557495,-0.510265 -6.085487,-0.5079 -0.78121,0.0026 -2.166202,-0.101586 -2.754094,0.411044 -0.513745,0.448846 -0.421059,1.353628 -0.423706,1.9513 0,0 0,4.724709 0,4.724709 0,0 -3.442617,0 -3.442617,0 0,0 0,-5.197175 0,-5.197175 -0.01059,-0.505544 0.01059,-1.126845 -0.423708,-1.511905 -0.879191,-0.784304 -4.443623,-0.19844 -5.667077,-0.151191 -0.860654,0.03309 -2.664055,-0.196076 -3.167208,0.555151 -0.240983,0.40396 -0.01853,1.738694 0,2.289116 0,0 0,4.252243 0,4.252243 0,0 -3.453209,0 -3.453209,0 0,0 0,-7.08706 0,-7.08706 0,0 -5.561151,0 -5.561151,0 -0.823579,-0.01419 -1.84842,-0.06617 -2.452202,-0.647285 -1.273768,-1.216608 0.614374,-4.660918 -1.535937,-5.234968 -0.357503,-0.03778 -1.175786,-0.02364 -1.573011,0 0,0 -8.2093173,0 -8.2093173,0 0,0 0,-2.14974 0,-2.14974 0,0 3.9722504,0 3.9722504,0 0,0 4.5018829,-0.23624 4.5018829,-0.23624 2.756743,-0.01654 2.407185,-0.848079 2.383351,-4.015991 -0.0054,-0.555153 0.05032,-1.325279 -0.423707,-1.74814 -0.508448,-0.453572 -1.551825,-0.375614 -2.22446,-0.377977 0,0 -8.2093173,0 -8.2093173,0 0,0 0,-2.36235 0,-2.36235 0,0 7.9445013,0 7.9445013,0 0.744134,-0.0048 1.692178,0.0378 2.301256,-0.411049 0.884487,-0.649646 0.619671,-2.856082 0.611727,-3.841184 -0.0054,-0.555151 0.05032,-1.325277 -0.423707,-1.748138 -0.508448,-0.453572 -1.551825,-0.375615 -2.22446,-0.377977 0,0 -8.2093173,0 -8.2093173,0 0,0 0,-2.126115 0,-2.126115 0,0 4.5018829,-0.236235 4.5018829,-0.236235 0,0 3.9722504,0 3.9722504,0 2.995077,-0.04962 2.399239,-1.887519 2.383351,-4.015997 -0.0054,-0.555152 0.05032,-1.32528 -0.423707,-1.748139 -0.508448,-0.453571 -1.551825,-0.375615 -2.22446,-0.377978 0,0 -8.2093173,0 -8.2093173,0 0,0 0,-2.362349 0,-2.362349 0,0 7.9445013,0 7.9445013,0 0.730893,-0.0095 1.697474,-0.01181 2.301256,-0.437035 0.89508,-0.635473 0.624968,-2.841909 0.611727,-3.815198 -0.0106,-0.559877 0.0106,-1.318192 -0.460781,-1.748139 -0.503152,-0.458296 -1.5174,-0.375615 -2.187386,-0.377976 0,0 -8.2093173,0 -8.2093173,0 0,0 0,-2.385974 0,-2.385974 0,0 7.9445013,0 7.9445013,0 0.410466,0.02362 1.210212,0.0378 1.583603,0 2.494573,-0.630748 0.529634,-4.13884 1.753086,-5.272768 0.460782,-0.427586 1.583604,-0.548066 2.224461,-0.600038 0,0 5.825967,0 5.825967,0 0,0 0,-7.332736 0,-7.332736 z M 82.46266,77.477849 c 0,0 0,-33.78162 0,-33.78162 0,0 0,-7.087053 0,-7.087053 0,0 -0.270108,-2.69308 -0.270108,-2.69308 0,0 -2.113236,-0.377976 -2.113236,-0.377976 0,0 -33.896543,0 -33.896543,0 0,0 -3.972251,0.236235 -3.972251,0.236235 0,0 -9.533401,0 -9.533401,0 0,0 -4.501884,0.236235 -4.501884,0.236235 0,0 -10.857484,0 -10.857484,0 0,0 0,33.309148 0,33.309148 0,0 0,7.087053 0,7.087053 0,0 0.270113,2.693076 0.270113,2.693076 0,0 2.113238,0.377982 2.113238,0.377982 0,0 62.761556,0 62.761556,0 z M 58.909862,37.72893 c 1.422066,-0.314193 3.744509,-0.174813 5.280445,-0.174813 0,0 9.798218,0 9.798218,0 2.54489,0.01181 2.907685,0.375613 2.912986,2.598585 0,0 0,14.174107 0,14.174107 -0.0053,2.43322 -0.545522,2.593861 -3.177802,2.598585 0,0 -10.592668,0 -10.592668,0 -1.075156,0 -3.606803,0.129929 -4.462162,-0.309467 -0.971876,-0.498456 -0.831523,-1.426861 -0.834173,-2.289118 0,0 0,-12.284226 0,-12.284226 0,-1.452846 -0.503151,-3.453756 1.075156,-4.313653 z m 17.197198,0.533892 c 0,0 -15.094552,0 -15.094552,0 -2.288017,0.0048 -2.378054,0.08504 -2.383352,2.126115 0,0 0,13.701636 0,13.701636 0.0054,2.041071 0.09533,2.121391 2.383352,2.126116 0,0 15.094552,0 15.094552,0 0,0 0,-17.953867 0,-17.953867 z m -52.168889,9.921873 c 0,-1.837908 -0.508449,-6.198809 0.868598,-7.495738 2.216515,-2.126116 9.239454,-2.253684 11.365933,0 0.990413,1.072507 0.741487,2.650557 0.741487,3.952213 0,0 -0.794451,0 -0.794451,0 0,0 0,-1.417411 0,-1.417411 -3.487635,1.920591 -7.873,1.774125 -11.387118,0 0,0 0,4.960936 0,4.960936 0,0 -0.794449,0 -0.794449,0 z m 41.311403,-0.472469 c -0.812988,0.699256 -1.088396,1.431584 -1.625975,1.722155 -1.991421,1.077231 -1.813994,-2.06942 -1.816642,-2.90333 0,-0.465384 0.03179,-1.2048 -0.158889,-1.630023 -0.301892,-0.673269 -0.979823,-0.902418 -1.427363,-1.490643 -1.00895,-1.31583 -0.569356,-3.219885 1.067211,-3.954576 0.373393,-0.167727 0.89773,-0.309468 1.313492,-0.351991 2.375405,-0.252771 4.930885,1.684357 3.662414,3.87898 -0.426354,0.739417 -1.030136,1.046522 -1.808698,1.422137 0.680578,1.164638 0.680578,1.197711 0,2.36235 0,0 0.79445,0.236235 0.79445,0.236235 0,0 0,0.708706 0,0.708706 z m -36.80952,-7.956398 c -0.643505,0.129928 -1.244638,0.27167 -1.853717,0.507905 -1.522696,0.590588 -2.661408,1.85917 -0.778561,2.863169 1.189027,0.633111 2.860021,0.800837 4.221178,0.805563 1.644512,0.007 3.246652,-0.01417 4.761405,-0.689807 0.733542,-0.326005 1.435306,-0.843359 1.154601,-1.663095 -0.701766,-2.06942 -5.603522,-2.007998 -7.504906,-1.823735 z m 35.750253,7.483927 c -0.23039,-0.507905 -0.487262,-2.494643 -0.225093,-2.983649 0.312483,-0.581138 2.359516,-1.410324 1.61803,-3.153738 -0.855358,-2.012723 -4.472755,-1.816649 -5.015628,0.23151 -0.503153,1.894607 1.459139,2.248957 1.874901,3.120666 0.3628,0.755951 -0.07415,3.108854 0.423708,4.675092 0,0 1.324082,-1.889881 1.324082,-1.889881 z m -1.310843,-6.831919 c 2.025849,0.09448 1.586253,1.663096 0.503152,1.880432 -1.040729,0.207886 -2.327737,-1.103218 -0.503152,-1.880432 z m 0.781211,0.689807 c 0,0 -1.059267,-0.236236 -1.059267,-0.236236 0,0 0,0.944941 0,0.944941 0,0 1.059267,-0.236235 1.059267,-0.236235 0,0 0,-0.47247 0,-0.47247 z m -21.979786,1.653646 c 0,0 13.240834,0 13.240834,0 0,0 0,6.850817 0,6.850817 0,0 -13.240834,0 -13.240834,0 0,0 0,-6.850817 0,-6.850817 z m 12.976018,0.236235 c 0,0 -12.711201,0 -12.711201,0 0,0 0,6.378347 0,6.378347 0,0 12.711201,0 12.711201,0 0,0 0,-6.378347 0,-6.378347 z m -11.387118,0.944941 c 0.415762,0.935489 0.415762,3.552975 0,4.488465 0,0 0,-4.488465 0,-4.488465 z m 1.5889,0 c 0.415762,0.935489 0.415762,3.552975 0,4.488465 0,0 0,-4.488465 0,-4.488465 z m 1.5889,0 c 0.415763,0.935489 0.415763,3.552975 0,4.488465 0,0 0,-4.488465 0,-4.488465 z m 1.588901,0 c 0,0 0.529633,0 0.529633,0 0,0 0,4.488465 0,4.488465 0,0 -0.529633,0 -0.529633,0 0,0 0,-4.488465 0,-4.488465 z m 1.853716,0 c 0.415762,0.935489 0.415762,3.552975 0,4.488465 0,0 0,-4.488465 0,-4.488465 z m 1.5889,0 c 0.415762,0.935489 0.415762,3.552975 0,4.488465 0,0 0,-4.488465 0,-4.488465 z m 1.5889,0 c 0.415763,0.935489 0.415763,3.552975 0,4.488465 0,0 0,-4.488465 0,-4.488465 z M 67.368108,48.8934 c 0.01059,-0.935489 -0.02648,-1.790661 0.664691,-2.5726 1.212859,-1.374888 3.620043,-1.256769 4.671365,0.2197 0.516393,0.727604 0.481966,1.530803 0.48991,2.3529 0,0 1.853718,0 1.853718,0 0,0 0,4.488468 0,4.488468 -0.0026,0.429947 0.03972,1.162277 -0.270113,1.511904 -0.357503,0.401599 -1.067211,0.368527 -1.583605,0.377977 0,0 -5.825966,0 -5.825966,0 -0.516393,-0.0095 -1.226102,0.02362 -1.583604,-0.377977 -0.331021,-0.375613 -0.270113,-1.278031 -0.270113,-1.748139 -0.0079,-3.852995 -0.344262,-4.183723 1.853717,-4.252233 z m -34.426171,2.126117 c 0.169484,-1.476469 0.712358,-2.447396 1.35851,-3.779762 0.214503,-0.441759 0.442245,-1.129203 0.895081,-1.415047 0.770616,-0.479558 3.220171,-0.226787 4.10201,0 0,0 -1.588901,3.304928 -1.588901,3.304928 0,0 2.118536,0.236235 2.118536,0.236235 0,0 -3.16456,4.724702 -3.16456,4.724702 0,0 -2.926225,3.543527 -2.926225,3.543527 0,0 1.324085,-6.614583 1.324085,-6.614583 0,0 -2.118536,0 -2.118536,0 z M 68.469745,48.8934 c 0.688523,0 3.000374,0.118119 3.506174,-0.240958 1.326732,-0.94494 -0.942749,-3.973475 -2.936818,-2.256046 -0.293947,0.255134 -0.429002,0.498457 -0.569356,0.848084 -0.0662,0.366164 -0.04238,1.237873 0,1.64892 z M 38.238272,46.294816 c -0.572004,0 -2.086756,-0.0567 -2.544889,0.134653 -1.016895,0.427586 -1.859013,3.156101 -1.956995,4.117578 0,0 2.118533,0 2.118533,0 0,0 -0.794448,4.488467 -0.794448,4.488467 0.982468,-0.857534 3.212225,-4.039621 3.707433,-5.197173 0,0 -2.118535,0 -2.118535,0 0,0 1.588901,-3.543525 1.588901,-3.543525 z m -8.474135,1.653644 c 0,0 0.529634,0 0.529634,0 0,0 0,1.181176 0,1.181176 0,0 1.324084,0 1.324084,0 0,0 0,0.708705 0,0.708705 0,0 -1.324084,0 -1.324084,0 0,0 0,1.417411 0,1.417411 0,0 -0.529634,0 -0.529634,0 0,0 0,-1.417411 0,-1.417411 0,0 -1.324083,0 -1.324083,0 0,0 0,-0.708705 0,-0.708705 0,0 1.324083,0 1.324083,0 0,0 0,-1.181176 0,-1.181176 z m -8.738951,1.181176 c 0,0 6.355602,0 6.355602,0 0,0 0,0.708705 0,0.708705 0,0 -6.355602,0 -6.355602,0 0,0 0,-0.708705 0,-0.708705 z m 53.228155,5.433408 c 0,0 0,-3.307292 0,-3.307292 0,0 -0.423706,-1.648921 -0.423706,-1.648921 0,0 -1.959643,-0.24096 -1.959643,-0.24096 0,0 -3.707434,0 -3.707434,0 0,0 -1.43001,0.24096 -1.43001,0.24096 0,0 -0.423707,1.648921 -0.423707,1.648921 0,0 0,3.307292 0,3.307292 0,0 7.9445,0 7.9445,0 z m -4.237066,-0.944941 c -0.251576,-1.415048 -1.053971,-1.849721 -0.826229,-2.537164 0.286003,-0.864621 2.137072,-0.824462 2.295962,0.196074 0.100627,0.668545 -0.542874,0.838635 -0.675283,2.34109 0,0 -0.79445,0 -0.79445,0 z m 0.79445,-2.598586 c 0,0 -1.059267,0.708705 -1.059267,0.708705 0.760024,-0.12993 0.760024,-0.06851 1.059267,-0.708705 z m -48.196638,1.181176 c 0,0 10.32785,0 10.32785,0 0,0 0,0.708705 0,0.708705 0,0 -10.32785,0 -10.32785,0 0,0 0,-0.708705 0,-0.708705 z m 1.853717,1.653645 c 0,0 1.856364,1.029985 1.856364,1.029985 1.861662,0.746503 4.099362,0.623661 6.088137,0.623661 -0.640858,0.734691 -1.379695,0.737053 -2.383351,0.687444 -2.028496,-0.101586 -4.891164,-0.359078 -5.56115,-2.34109 z m 14.035284,20.316214 c -0.0026,0.543343 0.111223,1.478832 -0.415761,1.849721 -0.479319,0.335453 -1.63392,0.276397 -2.232406,0.276397 -1.030136,0.0026 -5.023573,0.17954 -5.675021,-0.276397 -0.524337,-0.370889 -0.415763,-1.306378 -0.415763,-1.849721 0,0 0,-12.284221 0,-12.284221 0.0079,-0.375614 -0.01853,-0.933129 0.26217,-1.242596 0.394576,-0.437036 1.287008,-0.403963 1.856364,-0.41105 0,0 3.97225,0 3.97225,0 0.598486,0 1.753087,-0.05906 2.232406,0.276397 0.526984,0.370888 0.413113,1.306379 0.415761,1.84972 0,0 18.537168,0 18.537168,0 0.0026,-0.543341 -0.111222,-1.478832 0.415763,-1.84972 0.479319,-0.335456 1.633919,-0.276397 2.232404,-0.276397 1.030137,-0.0023 5.023573,-0.179538 5.675023,0.276397 0.524336,0.370888 0.415762,1.306379 0.415762,1.84972 0,0 0,12.047989 0,12.047989 -0.01324,1.819008 -0.291298,1.880429 -2.383351,1.889879 0,0 -4.237066,0 -4.237066,0 -0.569356,-0.007 -1.461788,0.02598 -1.856366,-0.411046 -0.33102,-0.363802 -0.25952,-1.254413 -0.262169,-1.715072 0,0 -18.537168,0 -18.537168,0 z M 37.179005,61.413861 c 0,0 -6.090784,0 -6.090784,0 0,0 0,13.701636 0,13.701636 0,0 6.090784,0 6.090784,0 0,0 0,-13.701636 0,-13.701636 z m 27.276119,0 c 0,0 -6.090784,0 -6.090784,0 0,0 0,13.701636 0,13.701636 0,0 6.090784,0 6.090784,0 0,0 0,-13.701636 0,-13.701636 z m -7.414868,2.126116 c 0,0 -18.537168,0 -18.537168,0 0,0 0,9.449402 0,9.449402 0,0 18.537168,0 18.537168,0 0,0 0,-9.449402 0,-9.449402 z m -10.063033,1.41741 c 0,0 4.7667,0 4.7667,0 0,0 0,1.181176 0,1.181176 0,0 -4.7667,0 -4.7667,0 0,0 0,-1.181176 0,-1.181176 z m 6.620417,0 c 0,0 1.588901,0 1.588901,0 0,0 0,1.181176 0,1.181176 0,0 -1.588901,0 -1.588901,0 0,0 0,-1.181176 0,-1.181176 z"
       style="fill:#ff6600" />
    <path
       style="fill:#00ff00;fill-opacity:1"
       d="m 331.06303,117.2458 v -2.90589 l 5.93377,-0.57166 c 17.3504,-1.67153 32.09426,-6.77815 39.63303,-13.72715 4.76626,-4.39338 6.81401,-8.479975 6.81401,-13.598392 0,-6.283997 -3.37103,-10.147036 -13.11671,-15.031165 -9.56239,-4.792263 -18.37617,-7.327423 -36.11803,-10.388836 -7.54753,-1.302352 -14.09333,-2.596915 -14.5462,-2.876808 -0.45288,-0.279892 -1.94562,-2.860268 -3.3172,-5.734167 -3.74024,-7.836953 -9.30581,-11.822141 -19.53973,-13.991271 -10.56412,-2.23912 -21.92634,-1.273452 -34.75354,2.953685 -8.3023,2.735977 -13.95166,3.078951 -16.94915,1.028985 -1.11299,-0.76117 -4.27867,-3.431364 -7.03485,-5.933763 -18.66075,-16.94254 -57.81637,-26.9101405 -93.612,-23.830221 -32.5437,2.800117 -55.051478,11.072734 -67.659472,24.867888 -5.156587,5.642128 -7.029952,9.516798 -7.478551,15.467843 -0.194293,2.57748 -0.835399,5.086465 -1.424677,5.575523 -0.58928,0.489058 -6.16227,1.931512 -12.384423,3.205454 -16.713727,3.422018 -25.09922,6.960678 -31.122477,13.133622 -5.637138,5.777228 -6.687723,12.575535 -3.052103,19.750093 1.155634,2.280529 1.984315,4.22736 1.841513,4.326277 -0.142801,0.09893 -2.595678,0.867557 -5.450838,1.708083 -5.975764,1.75918 -6.723585,1.50625 -10.2411448,-3.463813 C 4.3850136,92.831106 3.5914288,84.873291 5.7026819,79.345053 9.1287535,70.374013 20.69946,63.081734 39.285601,58.179879 c 14.782326,-3.898648 14.89228,-3.951196 15.905979,-7.601615 0.474715,-1.70949 0.865172,-3.8737 0.867682,-4.809356 0.0072,-2.667616 4.536867,-8.844274 10.608614,-14.465781 C 81.04003,17.996715 108.64907,8.8356441 140.36418,6.8496502 c 44.44671,-2.7832449 80.45678,4.8562848 106.35086,22.5623208 6.905,4.72155 6.91217,4.724146 11.86753,4.293076 2.72708,-0.237232 8.45721,-1.00964 12.73361,-1.716463 23.21373,-3.836869 48.02914,2.096312 56.19325,13.435392 6.04299,8.393054 5.15579,7.899958 19.92261,11.072735 17.25254,3.706857 23.35231,5.519253 31.77753,9.441919 13.31546,6.199495 19.15394,12.38521 19.09319,20.228737 -0.13512,17.443193 -24.63088,31.377273 -58.84008,33.470373 l -8.39965,0.51394 z"
       id="path2789"
       transform="matrix(0.26458333,0,0,0.26458333,2.398759,3.3025789)" />
    <path
       style="fill:#00ff00;fill-opacity:1"
       d="m 107.05772,275.27814 c -0.75671,-0.12339 -1.84036,-0.81489 -2.4081,-1.53665 -1.01535,-1.29081 -1.02998,-1.7608 -0.89369,-28.69734 0.12902,-25.50039 0.20048,-27.44701 1.03837,-28.28538 0.81208,-0.81255 2.24509,-0.91482 14.69769,-1.04894 13.76376,-0.14825 13.80119,-0.14576 15.13853,1.00868 1.06314,0.91774 1.40219,1.75761 1.6379,4.05727 l 0.29725,2.89997 h 34.8927 34.8927 l 0.46678,-3.10648 c 0.76515,-5.09219 0.63345,-5.0498 15.90922,-5.1206 13.81338,-0.064 15.21286,0.14918 16.08798,2.45093 0.71437,1.87892 0.66214,53.05956 -0.0563,55.12032 -0.85336,2.44795 -2.49681,2.69175 -16.92239,2.51037 -14.84416,-0.18665 -14.54604,-0.0877 -15.10322,-5.01255 l -0.33536,-2.96423 H 171.4817 136.56562 l -0.29499,2.85823 c -0.51952,5.03364 -0.26204,4.94804 -15.11559,5.02491 -6.99684,0.0362 -13.34066,-0.0351 -14.09737,-0.15851 z m 24.82775,-29.66351 v -25.97362 h -11.85204 -11.85204 v 25.97362 25.97362 h 11.85204 11.85204 z m 102.8858,0 v -25.97362 h -11.85204 -11.85204 v 25.97362 25.97362 h 11.85204 11.85204 z m -28.24316,-0.25217 v -18.15632 h -35.05178 -35.05178 v 18.15632 18.15632 h 35.05178 35.05178 z"
       id="path3093"
       transform="matrix(0.26458333,0,0,0.26458333,2.398759,3.3025789)" />
    <path
       style="fill:#00ff00;fill-opacity:1"
       d="m 168.70245,235.27562 v -2.01737 h 8.82599 8.82599 v 2.01737 2.01737 h -8.82599 -8.82599 z"
       id="path3132"
       transform="matrix(0.26458333,0,0,0.26458333,2.398759,3.3025789)" />
    <path
       style="fill:#00ff00;fill-opacity:1"
       d="m 193.91956,235.27562 v -2.01737 h 2.77388 2.77388 v 2.01737 2.01737 h -2.77388 -2.77388 z"
       id="path3171"
       transform="matrix(0.26458333,0,0,0.26458333,2.398759,3.3025789)" />
    <path
       style="fill:#0000ff;fill-opacity:1"
       d="m 81.447379,165.34421 c -0.145095,-2.31912 -0.169299,-6.96186 -0.05379,-10.31719 0.288198,-8.37132 1.285754,-11.82079 4.094112,-14.15713 7.31443,-6.08504 26.925649,-7.40979 37.366609,-2.52413 5.80572,2.71668 7.59088,6.06439 7.59088,14.23516 v 3.34325 h -1.43544 -1.43543 v -2.51201 c 0,-1.48187 -0.15136,-2.51202 -0.36909,-2.51202 -0.203,0 -1.29304,0.46187 -2.4223,1.02638 -10.55665,5.27719 -25.895849,5.21209 -38.046404,-0.16146 -1.075646,-0.47571 -2.097112,-0.86492 -2.269925,-0.86492 -0.172814,0 -0.314206,4.19865 -0.314206,9.33033 v 9.33033 H 82.93179 81.711185 Z m 31.782001,-11.94463 c 8.12052,-0.9919 13.32187,-3.56947 13.85698,-6.86691 0.43155,-2.65935 -2.09359,-5.56714 -6.15369,-7.08622 -3.96265,-1.48262 -7.83514,-1.97829 -15.42817,-1.97478 -6.336709,0.003 -7.534376,0.0993 -10.227477,0.82246 -13.109289,3.52039 -14.365676,10.76308 -2.434865,14.03625 1.460816,0.40077 3.857787,0.86791 5.326602,1.0381 3.85382,0.44652 11.52989,0.46237 15.06062,0.0311 z"
       id="path3284"
       transform="matrix(0.26458333,0,0,0.26458333,2.398759,3.3025789)" />
    <path
       style="fill:#0000ff;fill-opacity:1"
       d="m 118.96171,203.9059 c 0,-0.058 1.04966,-5.33959 2.33258,-11.73699 1.28292,-6.3974 2.33258,-11.67904 2.33258,-11.73699 0,-0.0579 -1.79699,-0.10535 -3.99331,-0.10535 h -3.99331 l 0.23515,-1.52515 c 0.4107,-2.66368 1.97461,-6.75075 4.63292,-12.10755 3.11359,-6.27422 3.36946,-6.48268 8.27192,-6.73911 3.21071,-0.16794 9.47435,0.42019 10.00319,0.93925 0.14515,0.14247 -1.0409,2.96986 -2.63568,6.28307 -1.59477,3.31322 -2.84394,6.07048 -2.77592,6.12724 0.068,0.0568 1.71728,0.27957 3.66504,0.49513 1.94776,0.21555 3.61476,0.46529 3.70444,0.55497 0.42693,0.42693 -11.88056,18.07901 -16.45832,23.60545 -4.45106,5.37348 -5.32128,6.34587 -5.32128,5.94603 z m 8.22401,-12.27528 c 3.83144,-4.71417 10.43665,-14.62044 10.43665,-15.65253 0,-0.16125 -1.75412,-0.33884 -3.89804,-0.39465 l -3.89804,-0.10147 2.82146,-6.25538 c 1.55181,-3.44045 2.82146,-6.38758 2.82146,-6.54917 0,-0.34656 -7.2853,-0.39777 -8.95924,-0.063 -2.35321,0.47064 -4.88748,4.2212 -6.78111,10.03561 -0.57154,1.75493 -1.15365,3.8771 -1.29356,4.71593 l -0.2544,1.52515 h 3.97899 c 2.18845,0 3.97899,0.12252 3.97899,0.27227 0,0.14974 -0.64594,3.86293 -1.43543,8.25153 -0.78949,4.3886 -1.43544,8.08916 -1.43544,8.22347 0,0.43417 1.82434,-1.43211 3.91771,-4.00778 z"
       id="path3399"
       transform="matrix(0.26458333,0,0,0.26458333,2.398759,3.3025789)" />
    <path
       style="fill:#0000ff;fill-opacity:1"
       d="m 103.53078,178.35284 v -2.69144 h -2.51202 -2.512008 v -1.07657 -1.07658 h 2.512008 2.51202 v -2.33258 c 0,-2.24885 0.0322,-2.33258 0.89714,-2.33258 0.86494,0 0.89715,0.0837 0.89715,2.33258 v 2.33258 h 2.51201 2.51201 v 1.07658 1.07657 h -2.51201 -2.51201 v 2.69144 c 0,2.63164 -0.0199,2.69145 -0.89715,2.69145 -0.87721,0 -0.89714,-0.0598 -0.89714,-2.69145 z"
       id="path3438"
       transform="matrix(0.26458333,0,0,0.26458333,2.398759,3.3025789)" />
    <path
       style="fill:#0000ff;fill-opacity:1"
       d="m 70.515763,174.58483 v -1.07658 h 11.842341 11.842342 v 1.07658 1.07657 H 82.358104 70.515763 Z"
       id="path3477"
       transform="matrix(0.26458333,0,0,0.26458333,2.398759,3.3025789)" />
    <path
       style="fill:#0000ff;fill-opacity:1"
       d="m 76.616363,186.06831 v -1.07658 h 19.378377 19.37838 v 1.07658 1.07658 H 95.99474 76.616363 Z"
       id="path3516"
       transform="matrix(0.26458333,0,0,0.26458333,2.398759,3.3025789)" />
    <path
       style="fill:#0000ff;fill-opacity:1"
       d="m 98.865611,199.32797 c -6.696319,-0.89807 -10.752082,-2.48685 -13.240908,-5.1869 -0.809767,-0.8785 -1.472304,-1.77338 -1.472304,-1.98863 0,-0.21526 1.494595,0.41673 3.321323,1.40441 5.374289,2.9058 8.750894,3.61078 18.927928,3.95187 l 6.63889,0.2225 -1.43544,0.89715 c -1.31485,0.82178 -1.81227,0.90199 -5.92117,0.95479 -2.46716,0.0317 -5.5354,-0.0831 -6.818319,-0.25519 z"
       id="path3555"
       transform="matrix(0.26458333,0,0,0.26458333,2.398759,3.3025789)" />
    <path
       style="fill:#d40000;fill-opacity:1"
       d="m 217.1096,202.34353 c -2.23824,-0.29195 -4.28887,-0.91076 -5.22353,-1.5763 -2.15799,-1.53663 -2.0697,-0.14838 -2.16735,-34.0773 -0.088,-30.5866 -0.0786,-31.06494 0.64353,-32.65615 1.02387,-2.25606 2.57844,-3.60006 4.65693,-4.02612 1.8578,-0.38082 58.32528,-0.42703 61.04249,-0.05 2.03792,0.28281 3.68783,1.43324 4.56595,3.18367 0.70135,1.39807 0.71771,2.14684 0.71771,32.83084 v 31.40015 l -0.79344,1.71858 c -0.64755,1.40257 -1.10943,1.86445 -2.51201,2.51201 l -1.71857,0.79344 -29.06757,0.0438 c -15.98716,0.0241 -29.55202,-0.0194 -30.14414,-0.0966 z m 61.54429,-36.3843 v -34.10457 l -31.48986,0.1027 c -23.60434,0.077 -31.73229,0.21101 -32.45796,0.53525 -0.53245,0.23791 -1.25914,0.87673 -1.61486,1.41961 -0.61047,0.93164 -0.64678,2.72043 -0.64678,31.86474 0,24.72162 0.0941,31.10064 0.47224,31.996 0.43169,1.02229 1.13077,1.58004 2.57807,2.05684 0.29605,0.0975 14.62798,0.19009 31.84872,0.20567 l 31.31043,0.0283 z"
       id="path3594"
       transform="matrix(0.26458333,0,0,0.26458333,2.398759,3.3025789)" />
    <path
       style="fill:#d40000;fill-opacity:1"
       d="m 227.02016,174.3585 c -1.55862,-1.0917 -1.93123,-2.73055 -2.19275,-9.64442 -0.29101,-7.69374 -0.43443,-8.10416 -3.92348,-11.22799 -3.04237,-2.7239 -4.0981,-4.71696 -4.11402,-7.76669 -0.0207,-3.9679 2.06171,-6.98243 6.15142,-8.90483 6.69331,-3.14624 16.07872,-0.34011 18.78368,5.6161 1.73482,3.81998 -0.0203,8.42217 -4.20009,11.01319 -3.41294,2.11567 -3.20948,1.75296 -2.15288,3.83807 1.15782,2.28485 1.16159,2.7421 0.0409,4.95116 -0.4926,0.97097 -0.89632,1.88029 -0.89714,2.02071 -8.3e-4,0.14043 0.64444,0.42925 1.43393,0.64184 1.26771,0.34136 1.43543,0.51167 1.43543,1.45757 0,0.81231 -0.66585,1.86026 -2.75618,4.33784 -3.46126,4.10248 -5.55018,5.10934 -7.60878,3.66745 z m 4.38915,-4.91199 2.32011,-3.32772 -0.52857,-1.9573 c -0.29072,-1.07651 -0.55822,-3.53645 -0.59445,-5.46652 l -0.0659,-3.50923 2.96738,-2.83296 c 3.03483,-2.89735 4.03037,-4.50617 4.03037,-6.51321 0,-5.78605 -6.35258,-9.74512 -12.93736,-8.06287 -4.31291,1.10184 -6.67152,3.4824 -7.04609,7.11167 -0.35701,3.45908 -0.0662,3.91856 5.87638,9.28453 1.7608,1.58995 1.90382,2.22731 1.91298,8.52473 0.007,4.5262 0.4461,9.3746 0.91923,10.14015 0.32303,0.52267 0.70158,0.11459 3.14589,-3.39127 z"
       id="path3670"
       transform="matrix(0.26458333,0,0,0.26458333,2.398759,3.3025789)" />
    <path
       style="fill:#d40000;fill-opacity:1"
       d="m 227.84493,146.80147 c -1.21568,-0.52931 -2.66101,-2.15316 -2.66101,-2.98969 0,-0.29266 0.64775,-1.17986 1.43944,-1.97155 1.34299,-1.34299 1.54702,-1.42731 3.04512,-1.25845 1.88988,0.21302 3.28439,1.03669 3.84747,2.27252 0.57618,1.26458 -0.36316,3.09351 -1.98381,3.86256 -1.49548,0.70965 -2.21379,0.72613 -3.68721,0.0846 z m 3.30604,-1.88976 c 0.27083,-0.10392 0.49241,-0.63697 0.49241,-1.18454 0,-0.87856 -0.18738,-1.04276 -1.59434,-1.39704 -2.63904,-0.66451 -2.71196,-0.62596 -2.71196,1.43358 v 1.83504 l 1.66074,-0.24904 c 0.91341,-0.13698 1.88233,-0.33407 2.15315,-0.438 z"
       id="path3709"
       transform="matrix(0.26458333,0,0,0.26458333,2.398759,3.3025789)" />
    <path
       style="fill:#d40000;fill-opacity:1"
       d="m 241.33257,195.86755 c -0.87304,-0.33039 -1.85399,-1.30678 -2.18656,-2.17639 -0.17044,-0.44569 -0.3352,-4.65057 -0.36612,-9.34418 -0.0717,-10.87597 0.0383,-11.14581 4.78135,-11.73842 l 1.97945,-0.24732 0.20513,-2.44679 c 0.33202,-3.96041 0.8972,-5.33284 3.10876,-7.54899 1.53995,-1.54315 2.46158,-2.13962 4.09104,-2.64766 3.95336,-1.2326 8.80302,-0.13348 11.46446,2.59829 1.75451,1.80086 2.64888,4.02429 2.95028,7.33443 l 0.25323,2.78115 h 3.3821 3.38209 l -0.10481,10.75812 -0.10481,10.75811 -0.99472,0.99452 -0.99472,0.99451 -15.15393,0.0672 c -8.33466,0.0369 -15.39616,-0.0245 -15.69222,-0.13655 z m 30.503,-8.23092 c 0,-5.34953 -0.11993,-6.77661 -0.77659,-9.24062 -0.42713,-1.60272 -0.90755,-3.06341 -1.0676,-3.24597 -1.00582,-1.14733 -18.98653,-1.72386 -24.27016,-0.7782 -1.43501,0.25684 -2.6623,0.53094 -2.72732,0.60912 -0.065,0.0782 -0.46541,1.54932 -0.88977,3.26918 -0.64129,2.59909 -0.77156,4.18949 -0.77156,9.42005 v 6.29301 h 15.2515 15.2515 z m -9.0649,-15.85079 c 1.00697,-0.56633 1.89018,-2.23561 1.87985,-3.55294 -0.0224,-2.85627 -3.33445,-6.58268 -6.4433,-7.24941 -3.10438,-0.66577 -6.55637,0.96074 -8.01165,3.77492 -0.55093,1.06539 -0.80334,3.36599 -0.67843,6.18362 l 0.0692,1.56066 6.19031,-0.13241 c 4.08413,-0.0874 6.46377,-0.28621 6.99403,-0.58444 z"
       id="path3748"
       transform="matrix(0.26458333,0,0,0.26458333,2.398759,3.3025789)" />
    <path
       style="fill:#ff0000;fill-opacity:1"
       d="m 255.52213,189.15127 c -0.115,-0.50658 -0.88426,-2.38982 -1.70948,-4.18498 -1.23084,-2.6775 -1.44637,-3.42603 -1.19964,-4.16623 0.48632,-1.45894 1.84586,-2.24489 3.91816,-2.26509 2.04954,-0.02 3.38754,0.72631 4.17138,2.32664 0.41463,0.84654 0.38393,1.12102 -0.29633,2.64931 -0.41739,0.93771 -1.07769,2.7966 -1.46735,4.13085 l -0.70845,2.42592 -1.2496,0.002 c -1.09004,0.002 -1.27631,-0.11529 -1.45869,-0.91873 z m 1.33073,-6.433 c 0.78343,-0.29786 2.21559,-2.3602 1.63736,-2.35783 -0.14289,5.9e-4 -1.16411,0.60298 -2.26938,1.33865 -1.76747,1.17645 -1.90124,1.33772 -1.11032,1.33866 0.49459,6e-4 1.27864,-0.14318 1.74234,-0.31948 z"
       id="path4754"
       transform="matrix(0.26458333,0,0,0.26458333,2.398759,3.3025789)" />
    <path
       d="m 318.08069,29.208251 c -3.2441,4.409112 -2.82665,19.214172 -2.33764,27.169491 0.25642,4.247336 1.46697,10.544202 3.90004,8.548599 1.45507,-1.186554 1.78901,-5.555264 2.06331,-8.548599 0.5367,-5.865388 0.86471,-23.232305 -1.61009,-27.169491 -0.96607,-1.186578 -1.85461,-0.28327 -2.01562,0 z"
       id="path5055" />
    <path
       d="m 295.35429,42.894111 c 2.20644,-0.418024 5.70693,-1.038229 5.42069,-8.036246 -0.0953,-2.251779 -0.56651,-3.73496 -1.41331,-4.867588 -1.12707,-1.510177 -2.73718,-1.685477 -4.00738,-1.928178 0,0 0,14.832012 0,14.832012 z"
       id="path5053" />
    <path
       sodipodi:type="star"
       style="fill:url(#linearGradient67897);fill-opacity:1;fill-rule:nonzero;stroke:url(#linearGradient67903);stroke-width:2.86866;stroke-linejoin:round;stroke-miterlimit:4;stroke-dasharray:none;stroke-opacity:0.01;paint-order:markers fill stroke"
       id="path67730"
       inkscape:flatsided="true"
       sodipodi:sides="3"
       sodipodi:cx="405"
       sodipodi:cy="335"
       sodipodi:r1="78.262383"
       sodipodi:r2="39.131191"
       sodipodi:arg1="0.46364761"
       sodipodi:arg2="1.5108452"
       inkscape:rounded="0"
       inkscape:randomized="0"
       d="m 475,370 -135.31089,8.12178 60.62178,-121.24356 z"
       transform="matrix(0.05480498,0.00842434,0.00160744,0.15816253,92.974169,-12.917033)"
       inkscape:transform-center-x="-0.19128565"
       inkscape:transform-center-y="-3.0626918" />
    <path
       sodipodi:type="star"
       style="fill:#00ff00;fill-opacity:0;fill-rule:nonzero;stroke:#000000;stroke-width:2.86866;stroke-linejoin:round;stroke-miterlimit:4;stroke-dasharray:none;stroke-opacity:0.01;paint-order:markers fill stroke"
       id="path67732"
       inkscape:flatsided="true"
       sodipodi:sides="3"
       sodipodi:cx="400"
       sodipodi:cy="295"
       sodipodi:r1="65.192024"
       sodipodi:r2="42.184376"
       sodipodi:arg1="1.6475681"
       sodipodi:arg2="2.6947656"
       inkscape:rounded="0"
       inkscape:randomized="0"
       d="m 395.00001,360 -48.79167,-101.83012 112.58331,8.66024 z"
       transform="matrix(0.26458333,0,0,0.26458333,10.016552,-38.546534)"
       inkscape:transform-center-x="4.5475526"
       inkscape:transform-center-y="-1.1581264" />
  </g>
  <g
     inkscape:groupmode="layer"
     id="layer3"
     inkscape:label="Layer 2"
     style="display:inline">
    <ellipse
       style="fill:#ffffff;fill-opacity:0;fill-rule:nonzero;stroke:#000000;stroke-width:0.759;stroke-linejoin:round;stroke-miterlimit:4;stroke-dasharray:none;stroke-opacity:0.01;paint-order:markers fill stroke"
       id="path66918"
       ry="17.934675"
       rx="4.4234996"
       cy="43.840347"
       cx="315.32056" />
    <ellipse
       style="fill:#ffffff;fill-opacity:0;fill-rule:nonzero;stroke:#000000;stroke-width:0.759;stroke-linejoin:round;stroke-miterlimit:4;stroke-dasharray:none;stroke-opacity:0.01;paint-order:markers fill stroke"
       id="path66920"
       cx="326.81516"
       cy="46.397118"
       rx="0.70987809"
       ry="0.38340116" />
  </g>
</svg>
