<?xml version="1.0" encoding="UTF-8" standalone="no"?>
<!-- Created with Inkscape (http://www.inkscape.org/) -->

<svg
   width="1390"
   height="320"
   viewBox="0 0 367.77084 84.666662"
   version="1.1"
   id="svg5"
   inkscape:version="1.1 (ce6663b3b7, 2021-05-25)"
   sodipodi:docname="inkscapeLogoPathsWithColor.svg"
   xmlns:inkscape="http://www.inkscape.org/namespaces/inkscape"
   xmlns:sodipodi="http://sodipodi.sourceforge.net/DTD/sodipodi-0.dtd"
   xmlns:xlink="http://www.w3.org/1999/xlink"
   xmlns="http://www.w3.org/2000/svg"
   xmlns:svg="http://www.w3.org/2000/svg">
  <sodipodi:namedview
     id="namedview7"
     pagecolor="#505050"
     bordercolor="#ffffff"
     borderopacity="1"
     inkscape:pageshadow="0"
     inkscape:pageopacity="0"
     inkscape:pagecheckerboard="1"
     inkscape:document-units="mm"
     showgrid="false"
     units="px"
     fit-margin-top="0"
     fit-margin-left="0"
     fit-margin-right="0"
     fit-margin-bottom="0"
     inkscape:zoom="5.9710504"
     inkscape:cx="150.55977"
     inkscape:cy="183.97098"
     inkscape:window-width="1848"
     inkscape:window-height="1016"
     inkscape:window-x="0"
     inkscape:window-y="0"
     inkscape:window-maximized="1"
     inkscape:current-layer="layer1" />
  <defs
     id="defs2">
    <linearGradient
       id="linearGradient11124"
       inkscape:swatch="solid">
      <stop
         style="stop-color:#000000;stop-opacity:1;"
         offset="0"
         id="stop11122" />
    </linearGradient>
    <linearGradient
       id="linearGradient11118"
       inkscape:swatch="solid">
      <stop
         style="stop-color:#000000;stop-opacity:1;"
         offset="0"
         id="stop11116" />
    </linearGradient>
    <linearGradient
       id="linearGradient11112"
       inkscape:swatch="solid">
      <stop
         style="stop-color:#000000;stop-opacity:1;"
         offset="0"
         id="stop11110" />
    </linearGradient>
    <linearGradient
       id="linearGradient11106"
       inkscape:swatch="solid">
      <stop
         style="stop-color:#000000;stop-opacity:1;"
         offset="0"
         id="stop11104" />
    </linearGradient>
    <linearGradient
       id="linearGradient11100"
       inkscape:swatch="solid">
      <stop
         style="stop-color:#000000;stop-opacity:1;"
         offset="0"
         id="stop11098" />
    </linearGradient>
    <linearGradient
       id="linearGradient11094"
       inkscape:swatch="solid">
      <stop
         style="stop-color:#000000;stop-opacity:1;"
         offset="0"
         id="stop11092" />
    </linearGradient>
    <linearGradient
       id="linearGradient11088"
       inkscape:swatch="solid">
      <stop
         style="stop-color:#000000;stop-opacity:1;"
         offset="0"
         id="stop11086" />
    </linearGradient>
    <linearGradient
       id="linearGradient11002"
       inkscape:swatch="solid">
      <stop
         style="stop-color:#000000;stop-opacity:1;"
         offset="0"
         id="stop11000" />
    </linearGradient>
    <linearGradient
       id="linearGradient10446"
       inkscape:swatch="solid">
      <stop
         style="stop-color:#000000;stop-opacity:1;"
         offset="0"
         id="stop10444" />
    </linearGradient>
    <linearGradient
       id="linearGradient10401"
       inkscape:swatch="solid">
      <stop
         style="stop-color:#000000;stop-opacity:1;"
         offset="0"
         id="stop10399" />
    </linearGradient>
    <linearGradient
       id="linearGradient10319"
       inkscape:swatch="solid">
      <stop
         style="stop-color:#000000;stop-opacity:1;"
         offset="0"
         id="stop10317" />
    </linearGradient>
    <linearGradient
       inkscape:collect="always"
       xlink:href="#linearGradient10319"
       id="linearGradient10321"
       x1="97.124976"
       y1="175.00019"
       x2="111.76201"
       y2="175.00019"
       gradientUnits="userSpaceOnUse" />
    <linearGradient
       inkscape:collect="always"
       xlink:href="#linearGradient10401"
       id="linearGradient10403"
       x1="69.087838"
       y1="174.56211"
       x2="95.733427"
       y2="174.56211"
       gradientUnits="userSpaceOnUse" />
    <linearGradient
       inkscape:collect="always"
       xlink:href="#linearGradient10446"
       id="linearGradient10448"
       x1="75.066345"
       y1="192.38805"
       x2="116.76128"
       y2="192.38805"
       gradientUnits="userSpaceOnUse" />
    <linearGradient
       inkscape:collect="always"
       xlink:href="#linearGradient11002"
       id="linearGradient11004"
       x1="190.16448"
       y1="162.02872"
       x2="193.8914"
       y2="162.02872"
       gradientUnits="userSpaceOnUse" />
    <linearGradient
       inkscape:collect="always"
       xlink:href="#linearGradient11088"
       id="linearGradient11090"
       x1="147.12654"
       y1="162.03179"
       x2="199.7136"
       y2="162.03179"
       gradientUnits="userSpaceOnUse" />
    <linearGradient
       inkscape:collect="always"
       xlink:href="#linearGradient11094"
       id="linearGradient11096"
       x1="184.38967"
       y1="162.03941"
       x2="187.89057"
       y2="162.03941"
       gradientUnits="userSpaceOnUse" />
    <linearGradient
       inkscape:collect="always"
       xlink:href="#linearGradient11100"
       id="linearGradient11102"
       x1="178.36058"
       y1="162.02441"
       x2="181.85895"
       y2="162.02441"
       gradientUnits="userSpaceOnUse" />
    <linearGradient
       inkscape:collect="always"
       xlink:href="#linearGradient11106"
       id="linearGradient11108"
       x1="171.2429"
       y1="162.03179"
       x2="175.76472"
       y2="162.03179"
       gradientUnits="userSpaceOnUse" />
    <linearGradient
       inkscape:collect="always"
       xlink:href="#linearGradient11112"
       id="linearGradient11114"
       x1="165.21075"
       y1="162.00259"
       x2="168.80603"
       y2="162.00259"
       gradientUnits="userSpaceOnUse" />
    <linearGradient
       inkscape:collect="always"
       xlink:href="#linearGradient11118"
       id="linearGradient11120"
       x1="159.18166"
       y1="162.016"
       x2="162.85993"
       y2="162.016"
       gradientUnits="userSpaceOnUse" />
    <linearGradient
       inkscape:collect="always"
       xlink:href="#linearGradient11124"
       id="linearGradient11126"
       x1="153.15257"
       y1="162.00228"
       x2="156.84684"
       y2="162.00228"
       gradientUnits="userSpaceOnUse" />
  </defs>
  <g
     inkscape:label="Layer 1"
     inkscape:groupmode="layer"
     id="layer1"
     transform="translate(-2.398759,-3.3025789)">
    <path
       id="Selection"
       fill="none"
       stroke="#000000"
       stroke-width="2.54217"
       d="m 127.78368,60.422876 c 2.71928,1.456228 5.71886,6.310317 8.33678,4.948462 1.55049,-0.809025 2.97572,-3.627107 2.29591,-7.510368 -0.66195,-3.788885 -3.1606,-5.69009 -4.66932,-7.294643 -3.78078,-4.018111 -6.30925,-7.968843 -5.84411,-18.459072 0.5725,-12.93083 4.51427,-15.088211 9.42213,-14.818512 1.61009,0.09448 4.31152,0.458452 5.373,3.627086 0.78119,2.346131 0.59036,8.251971 0.59036,11.191426 -2.14084,-1.361852 -4.97345,-4.759758 -7.14411,-3.600157 -1.68168,0.889951 -2.73719,3.667581 -1.52662,7.281168 1.65782,4.948488 6.41658,5.272111 8.66475,12.742031 2.21243,7.348593 1.61609,20.65695 -1.80687,25.578437 -1.99775,2.85851 -4.84227,2.60238 -7.13219,2.481006 -2.89226,-0.175511 -3.85831,-1.307927 -6.55971,-2.683256 0,0 0,-13.483608 0,-13.483608 z m 20.27544,0 c 2.7193,1.456228 5.71886,6.310317 8.33678,4.948462 1.55048,-0.809025 2.97573,-3.627107 2.29591,-7.510368 -0.66195,-3.788885 -3.16059,-5.69009 -4.66933,-7.294643 -3.78077,-4.018111 -6.30922,-7.968843 -5.84409,-18.459072 0.57248,-12.93083 4.51427,-15.088211 9.4221,-14.818512 1.61013,0.09448 4.31153,0.458452 5.373,3.627086 0.78122,2.346131 0.59038,8.251971 0.59038,11.191426 -2.14084,-1.361852 -4.97345,-4.759758 -7.14412,-3.600157 -1.68166,0.889951 -2.73717,3.667581 -1.52661,7.281168 1.65782,4.948488 6.41658,5.272111 8.66477,12.742031 2.21242,7.348593 1.61607,20.65695 -1.80691,25.578437 -1.99771,2.85851 -4.84224,2.60238 -7.13217,2.481006 -2.89223,-0.175511 -3.8583,-1.307927 -6.55971,-2.683256 0,0 0,-13.483608 0,-13.483608 z M 315.04533,18.273024 c 1.71148,-0.943854 2.38533,-1.07868 4.16243,-0.970805 8.43219,0.485403 8.42028,19.497323 8.34871,33.682109 -0.0478,9.222798 -1.06148,20.859175 -5.36704,24.621087 -1.07936,0.943874 -2.43304,0.984325 -3.57803,0.984325 -1.69955,0 -3.25001,-0.06737 -4.71104,-2.33268 -5.42071,-8.400295 -5.28354,-38.846321 -1.86654,-50.186097 1.03763,-3.43826 1.47296,-3.883283 3.01151,-5.797939 z m -202.76642,0.350529 c 0,0 7.15604,0 7.15604,0 0,0 6.5597,56.631238 6.5597,56.631238 0,0 -5.96336,0 -5.96336,0 -0.86468,-13.739785 -1.79497,-13.47011 -7.15604,-13.483608 0,0 -1.19267,13.483608 -1.19267,13.483608 0,0 -5.96337,0 -5.96337,0 0,0 6.5597,-56.631238 6.5597,-56.631238 z m 55.45933,0 c 0,0 5.96336,0 5.96336,0 0,0 0,35.057436 0,35.057436 0.0358,4.19341 0.16697,9.923948 2.41517,11.137478 2.51652,1.348399 3.76287,-5.339515 4.09087,-9.789078 0,0 0,-36.405836 0,-36.405836 0,0 5.42068,0 5.42068,0 0,0 0,35.057436 0,35.057436 -0.0299,5.528335 -0.31605,12.620703 -1.789,17.245566 -2.93994,9.222799 -12.43363,7.766593 -14.72355,-2.440508 -1.96792,-8.791344 -1.37753,-38.72497 -1.37753,-49.862494 z m 20.27544,0 c 0,0 6.55971,0 6.55971,0 0,0 2.98167,20.225448 2.98167,20.225448 0,0 1.78901,-20.225448 1.78901,-20.225448 0,0 6.55971,0 6.55971,0 0,0 0,56.631238 0,56.631238 0,0 -4.77068,0 -4.77068,0 0,0 -0.59634,-33.709059 -0.59634,-33.709059 -0.51881,13.982558 -1.60415,13.456682 -5.96337,13.483657 0,0 -1.78903,-16.180388 -1.78903,-16.180388 0,0 0,36.40579 0,36.40579 0,0 -4.77068,0 -4.77068,0 0,0 0,-56.631238 0,-56.631238 z m 21.46813,0 c 0,0 16.10108,0 16.10108,0 0,0 0,9.438546 0,9.438546 0,0 -10.73405,0 -10.73405,0 0,0 0,12.13528 0,12.13528 0,0 9.54137,0 9.54137,0 0,0 0,9.438523 0,9.438523 0,0 -9.54137,0 -9.54137,0 0,0 0,16.180389 0,16.180389 0,0 10.73405,0 10.73405,0 0,0 0,9.4385 0,9.4385 0,0 -16.10108,0 -16.10108,0 0,0 0,-56.631238 0,-56.631238 z m 19.08277,0 c 0,0 17.89011,0 17.89011,0 0,0 0,9.438546 0,9.438546 0,0 -5.96338,0 -5.96338,0 0,0 0,47.192692 0,47.192692 0,0 -5.36703,0 -5.36703,0 0,0 0,-47.192692 0,-47.192692 0,0 -6.5597,0 -6.5597,0 0,0 0,-9.438546 0,-9.438546 z m 20.87178,0 c 0,0 5.96338,0 5.96338,0 0,0 0,21.573826 0,21.573826 0,0 5.36702,0 5.36702,0 0,0 0,-21.573826 0,-21.573826 0,0 5.36702,0 5.36702,0 0,0 0,56.631238 0,56.631238 0,0 -5.36702,0 -5.36702,0 0,0 0,-25.618889 0,-25.618889 0,0 -5.36702,0 -5.36702,0 0,0 0,25.618889 0,25.618889 0,0 -5.96338,0 -5.96338,0 0,0 0,-56.631238 0,-56.631238 z m 20.87179,0 c 0,0 16.1011,0 16.1011,0 0,0 0,9.438546 0,9.438546 0,0 -10.73408,0 -10.73408,0 0,0 0,12.13528 0,12.13528 0,0 9.54138,0 9.54138,0 0,0 0,9.438523 0,9.438523 0,0 -9.54138,0 -9.54138,0 0,0 0,16.180389 0,16.180389 0,0 10.73408,0 10.73408,0 0,0 0,9.4385 0,9.4385 0,0 -16.1011,0 -16.1011,0 0,0 0,-56.631238 0,-56.631238 z m 19.67911,0 c 3.65554,0 11.99829,-1.820235 14.67585,3.573205 2.15277,4.341688 2.51059,13.470087 1.42525,19.227624 -0.73948,3.883261 -2.09316,5.487815 -2.07526,8.643021 0,0 5.05692,25.187388 5.05692,25.187388 -1.4789,0 -5.0092,0.566327 -6.14226,-1.334855 -2.74315,-4.597933 -1.40735,-15.802813 -7.57347,-21.587279 0,0 0,22.922134 0,22.922134 0,0 -5.36703,0 -5.36703,0 0,0 0,-56.631238 0,-56.631238 z m 42.33992,0 c 0,0 5.36702,0 5.36702,0 0,0 0,47.192738 0,47.192738 0,0 10.73405,0 10.73405,0 0,0 0,9.4385 0,9.4385 0,0 -16.10107,0 -16.10107,0 0,0 0,-56.631238 0,-56.631238 z m 19.08278,0 c 0,0 16.10107,0 16.10107,0 0,0 0,9.438546 0,9.438546 0,0 -10.73406,0 -10.73406,0 0,0 0,12.13528 0,12.13528 0,0 9.54139,0 9.54139,0 0,0 0,9.438523 0,9.438523 0,0 -9.54139,0 -9.54139,0 0,0 0,16.180389 0,16.180389 0,0 10.73406,0 10.73406,0 0,0 0,9.4385 0,9.4385 0,0 -16.10107,0 -16.10107,0 0,0 0,-56.631238 0,-56.631238 z m -56.05567,24.270558 c 2.20644,-0.418024 5.70693,-1.038229 5.42069,-8.036246 -0.0953,-2.251779 -0.56651,-3.73496 -1.41331,-4.867588 -1.12707,-1.510177 -2.73718,-1.685477 -4.00738,-1.928178 0,0 0,14.832012 0,14.832012 z m 22.7264,-13.68586 c -3.2441,4.409112 -2.82665,19.214172 -2.33764,27.169491 0.25642,4.247336 1.46697,10.544202 3.90004,8.548599 1.45507,-1.186554 1.78901,-5.555264 2.06331,-8.548599 0.5367,-5.865388 0.86471,-23.232305 -1.61009,-27.169491 -0.96607,-1.186578 -1.85461,-0.28327 -2.01562,0 z M 116.45328,34.80394 c -1.65186,4.854088 -2.00966,11.541979 -2.38536,17.528717 0,0 3.57802,0 3.57802,0 0,0 -1.19266,-17.528717 -1.19266,-17.528717 z" />
    <path
       id="Selection-4"
       fill="none"
       stroke="#000000"
       stroke-width="0.709086"
       d="M 8.8436188,29.522124 C 8.0041498,29.6993 6.0524507,30.545022 5.4804467,30.360759 4.7522006,30.126885 4.0636778,28.929174 3.8200459,28.300788 2.9567438,26.075454 3.3592651,24.015484 5.1255925,22.222459 c 1.7133638,-1.738691 4.4489199,-2.825372 6.8958275,-3.46793 0.847412,-0.222062 3.861027,-0.855172 4.366827,-1.244961 0.820932,-0.63547 0.51904,-1.684355 0.86595,-2.63402 0.429004,-1.174089 1.782216,-2.655283 2.75939,-3.531714 4.36153,-3.9073307 12.464921,-5.8373712 18.489501,-6.380712 0,0 2.118534,0 2.118534,0 0,0 2.648167,-0.2456843 2.648167,-0.2456843 5.251315,-0.054335 13.820783,1.0347094 18.537168,3.0663316 1.557123,0.6709071 3.643878,1.6725442 5.02887,2.5702377 0,0 2.674648,1.835548 2.674648,1.835548 1.072507,0.4016 3.01891,-0.427586 4.213234,-0.52208 2.84943,-0.425224 5.64325,-0.489007 8.474137,0 2.15296,0.474832 4.77729,1.304018 6.305284,2.756864 1.416768,1.346539 1.279063,2.520628 2.711726,3.042708 0,0 4.753462,1.006361 4.753462,1.006361 2.849422,0.618936 5.677672,1.43631 8.209322,2.785212 2.0179,1.072507 4.0464,2.903328 3.76834,5.192447 -0.82093,6.796483 -11.773756,8.724162 -18.068447,8.740698 0,0 0,-1.653645 0,-1.653645 1.17049,-0.297656 1.525343,-0.193713 2.648166,-0.337816 2.93152,-0.375613 7.070606,-1.400874 9.244741,-3.248233 1.30556,-1.112666 2.52901,-3.03562 1.91728,-4.68218 -0.52963,-1.415048 -2.05762,-2.454482 -3.48234,-3.123026 -3.146024,-1.474108 -5.833907,-2.000912 -9.268583,-2.593862 -0.775913,-0.132292 -3.394951,-0.415774 -3.892808,-0.701619 -0.791801,-0.458295 -0.860653,-1.589863 -1.501506,-2.548977 -0.778566,-1.162277 -2.18209,-2.045795 -3.609451,-2.487556 -2.743506,-0.789024 -5.720048,-0.713428 -8.47414,0 C 71.639601,14.25425 69.754107,15.480309 67.90039,14.95823 66.565713,14.582617 65.908968,13.4605 64.937091,12.6573 63.59447,11.554082 61.356769,10.21699 59.688423,9.5460833 52.249723,6.5435351 44.085425,5.8938883 36.119738,7.316024 c -4.689904,0.8362717 -7.825333,1.6654571 -11.649287,4.408148 -1.451195,1.041796 -2.920927,2.728515 -3.471746,4.332552 -0.487262,1.426859 0.233039,2.033983 -0.407818,2.71434 -0.582596,0.621299 -3.357875,0.930766 -4.332401,1.11503 -3.667711,0.696894 -9.1043981,2.704892 -8.7098213,6.801208 0.1112227,1.159915 0.8076914,1.823736 1.2949541,2.834822 z M 22.614087,24.088717 c 0,0 3.177801,0 3.177801,0 0,0 0,5.433407 0,5.433407 0,0 0.423707,1.511904 0.423707,1.511904 0,0 1.694826,0.377977 1.694826,0.377977 0,0 7.414868,0 7.414868,0 0,0 0,-7.323288 0,-7.323288 0,0 3.442617,0 3.442617,0 0,0 0,7.323288 0,7.323288 0,0 7.150049,0 7.150049,0 0,0 1.959645,-0.377977 1.959645,-0.377977 0,0 0.423706,-1.984375 0.423706,-1.984375 0,0 0,-4.960936 0,-4.960936 0,0 3.1778,0 3.1778,0 0,0 0,5.433407 0,5.433407 0,0 0.423708,1.511904 0.423708,1.511904 0,0 1.694826,0.377977 1.694826,0.377977 0,0 7.414868,0 7.414868,0 0,0 0,-7.323288 0,-7.323288 0,0 3.442616,0 3.442616,0 0,0 0,7.323288 0,7.323288 0,0 7.15005,0 7.15005,0 0,0 1.959643,-0.377977 1.959643,-0.377977 0,0 0.423708,-1.984375 0.423708,-1.984375 0,0 0,-4.960936 0,-4.960936 0,0 3.1778,0 3.1778,0 0,0 0,5.197172 0,5.197172 0.003,0.47247 -0.03176,1.17645 0.270116,1.580413 0.418411,0.557514 1.181083,0.53389 1.848423,0.545703 1.273764,0.01889 5.076535,-0.257496 5.939838,0.411048 1.04338,0.805563 0.680576,4.027809 0.680576,5.258593 0,0 10.59267,0 10.59267,0 0,0 0,2.362352 0,2.362352 0,0 -10.59267,0 -10.59267,0 0,0 0,4.488467 0,4.488467 0.0132,0.595311 -0.0132,1.275669 0.611732,1.64892 0.489907,0.290569 1.456492,0.240961 2.036436,0.240961 0,0 7.944502,0 7.944502,0 0,0 0,2.126114 0,2.126114 0,0 -8.474131,0 -8.474131,0 -0.667341,0.01181 -1.430012,-0.01181 -1.848424,0.545704 -0.325723,0.437034 -0.270115,1.299293 -0.270115,1.816647 0,0 0,4.015998 0,4.015998 0,0 10.59267,0 10.59267,0 0,0 0,2.36235 0,2.36235 0,0 -10.59267,0 -10.59267,0 0,0 0,4.488467 0,4.488467 0.0132,0.595312 -0.0132,1.275669 0.611732,1.64892 0.489907,0.290571 1.456492,0.240961 2.036436,0.240961 0,0 7.944502,0 7.944502,0 0,0 0,2.126116 0,2.126116 0,0 -8.209316,0 -8.209316,0 -0.715007,0.0095 -1.655105,-0.01889 -2.113239,0.574051 -0.328374,0.427586 -0.270115,1.278031 -0.270115,1.7883 0,0 0,4.015993 0,4.015993 0,0 10.59267,0 10.59267,0 0,0 0,2.385974 0,2.385974 0,0 -8.209316,0 -8.209316,0 -0.349561,-0.02123 -0.985122,-0.02832 -1.308195,0 -2.160903,0.576414 -0.264814,4.1601 -1.498863,5.234973 -0.558765,0.486644 -1.755735,0.411046 -2.489277,0.411046 -1.475027,0.0026 -5.309579,-0.500815 -5.614115,1.190629 0,0 0,6.132665 0,6.132665 0,0 -3.389657,0 -3.389657,0 0,0 0,-5.197175 0,-5.197175 -0.0026,-0.472473 0.03179,-1.176452 -0.270113,-1.580411 -0.418411,-0.557515 -1.181083,-0.533893 -1.84842,-0.545708 0,0 -5.031518,0 -5.031518,0 -0.614374,0.01178 -1.271119,0.0026 -1.771622,0.377981 -0.712358,0.536251 -0.609079,1.469376 -0.611728,2.220604 0,0 0,4.724709 0,4.724709 0,0 -3.442616,0 -3.442616,0 0,0 0,-5.197175 0,-5.197175 -0.0026,-0.472473 0.03178,-1.176452 -0.270114,-1.580411 -0.41841,-0.557515 -1.181082,-0.533893 -1.848419,-0.545708 -1.437956,-0.02364 -5.86834,-0.311831 -6.797846,0.545708 -0.752079,0.692163 -0.365447,1.861529 -0.352206,2.761582 0,0 0,4.016004 0,4.016004 0,0 -3.442617,0 -3.442617,0 0,0 0,-4.724709 0,-4.724709 0,-0.555151 0.05032,-1.370163 -0.270113,-1.854444 -0.855358,-1.289841 -4.557495,-0.510265 -6.085487,-0.5079 -0.78121,0.0026 -2.166202,-0.101586 -2.754094,0.411044 -0.513745,0.448846 -0.421059,1.353628 -0.423706,1.9513 0,0 0,4.724709 0,4.724709 0,0 -3.442617,0 -3.442617,0 0,0 0,-5.197175 0,-5.197175 -0.01059,-0.505544 0.01059,-1.126845 -0.423708,-1.511905 -0.879191,-0.784304 -4.443623,-0.19844 -5.667077,-0.151191 -0.860654,0.03309 -2.664055,-0.196076 -3.167208,0.555151 -0.240983,0.40396 -0.01853,1.738694 0,2.289116 0,0 0,4.252243 0,4.252243 0,0 -3.453209,0 -3.453209,0 0,0 0,-7.08706 0,-7.08706 0,0 -5.561151,0 -5.561151,0 -0.823579,-0.01419 -1.84842,-0.06617 -2.452202,-0.647285 -1.273768,-1.216608 0.614374,-4.660918 -1.535937,-5.234968 -0.357503,-0.03778 -1.175786,-0.02364 -1.573011,0 0,0 -8.2093173,0 -8.2093173,0 0,0 0,-2.14974 0,-2.14974 0,0 3.9722504,0 3.9722504,0 0,0 4.5018829,-0.23624 4.5018829,-0.23624 2.756743,-0.01654 2.407185,-0.848079 2.383351,-4.015991 -0.0054,-0.555153 0.05032,-1.325279 -0.423707,-1.74814 -0.508448,-0.453572 -1.551825,-0.375614 -2.22446,-0.377977 0,0 -8.2093173,0 -8.2093173,0 0,0 0,-2.36235 0,-2.36235 0,0 7.9445013,0 7.9445013,0 0.744134,-0.0048 1.692178,0.0378 2.301256,-0.411049 0.884487,-0.649646 0.619671,-2.856082 0.611727,-3.841184 -0.0054,-0.555151 0.05032,-1.325277 -0.423707,-1.748138 -0.508448,-0.453572 -1.551825,-0.375615 -2.22446,-0.377977 0,0 -8.2093173,0 -8.2093173,0 0,0 0,-2.126115 0,-2.126115 0,0 4.5018829,-0.236235 4.5018829,-0.236235 0,0 3.9722504,0 3.9722504,0 2.995077,-0.04962 2.399239,-1.887519 2.383351,-4.015997 -0.0054,-0.555152 0.05032,-1.32528 -0.423707,-1.748139 -0.508448,-0.453571 -1.551825,-0.375615 -2.22446,-0.377978 0,0 -8.2093173,0 -8.2093173,0 0,0 0,-2.362349 0,-2.362349 0,0 7.9445013,0 7.9445013,0 0.730893,-0.0095 1.697474,-0.01181 2.301256,-0.437035 0.89508,-0.635473 0.624968,-2.841909 0.611727,-3.815198 -0.0106,-0.559877 0.0106,-1.318192 -0.460781,-1.748139 -0.503152,-0.458296 -1.5174,-0.375615 -2.187386,-0.377976 0,0 -8.2093173,0 -8.2093173,0 0,0 0,-2.385974 0,-2.385974 0,0 7.9445013,0 7.9445013,0 0.410466,0.02362 1.210212,0.0378 1.583603,0 2.494573,-0.630748 0.529634,-4.13884 1.753086,-5.272768 0.460782,-0.427586 1.583604,-0.548066 2.224461,-0.600038 0,0 5.825967,0 5.825967,0 0,0 0,-7.332736 0,-7.332736 z M 82.46266,77.477849 c 0,0 0,-33.78162 0,-33.78162 0,0 0,-7.087053 0,-7.087053 0,0 -0.270108,-2.69308 -0.270108,-2.69308 0,0 -2.113236,-0.377976 -2.113236,-0.377976 0,0 -33.896543,0 -33.896543,0 0,0 -3.972251,0.236235 -3.972251,0.236235 0,0 -9.533401,0 -9.533401,0 0,0 -4.501884,0.236235 -4.501884,0.236235 0,0 -10.857484,0 -10.857484,0 0,0 0,33.309148 0,33.309148 0,0 0,7.087053 0,7.087053 0,0 0.270113,2.693076 0.270113,2.693076 0,0 2.113238,0.377982 2.113238,0.377982 0,0 62.761556,0 62.761556,0 z M 58.909862,37.72893 c 1.422066,-0.314193 3.744509,-0.174813 5.280445,-0.174813 0,0 9.798218,0 9.798218,0 2.54489,0.01181 2.907685,0.375613 2.912986,2.598585 0,0 0,14.174107 0,14.174107 -0.0053,2.43322 -0.545522,2.593861 -3.177802,2.598585 0,0 -10.592668,0 -10.592668,0 -1.075156,0 -3.606803,0.129929 -4.462162,-0.309467 -0.971876,-0.498456 -0.831523,-1.426861 -0.834173,-2.289118 0,0 0,-12.284226 0,-12.284226 0,-1.452846 -0.503151,-3.453756 1.075156,-4.313653 z m 17.197198,0.533892 c 0,0 -15.094552,0 -15.094552,0 -2.288017,0.0048 -2.378054,0.08504 -2.383352,2.126115 0,0 0,13.701636 0,13.701636 0.0054,2.041071 0.09533,2.121391 2.383352,2.126116 0,0 15.094552,0 15.094552,0 0,0 0,-17.953867 0,-17.953867 z m -52.168889,9.921873 c 0,-1.837908 -0.508449,-6.198809 0.868598,-7.495738 2.216515,-2.126116 9.239454,-2.253684 11.365933,0 0.990413,1.072507 0.741487,2.650557 0.741487,3.952213 0,0 -0.794451,0 -0.794451,0 0,0 0,-1.417411 0,-1.417411 -3.487635,1.920591 -7.873,1.774125 -11.387118,0 0,0 0,4.960936 0,4.960936 0,0 -0.794449,0 -0.794449,0 z m 41.311403,-0.472469 c -0.812988,0.699256 -1.088396,1.431584 -1.625975,1.722155 -1.991421,1.077231 -1.813994,-2.06942 -1.816642,-2.90333 0,-0.465384 0.03179,-1.2048 -0.158889,-1.630023 -0.301892,-0.673269 -0.979823,-0.902418 -1.427363,-1.490643 -1.00895,-1.31583 -0.569356,-3.219885 1.067211,-3.954576 0.373393,-0.167727 0.89773,-0.309468 1.313492,-0.351991 2.375405,-0.252771 4.930885,1.684357 3.662414,3.87898 -0.426354,0.739417 -1.030136,1.046522 -1.808698,1.422137 0.680578,1.164638 0.680578,1.197711 0,2.36235 0,0 0.79445,0.236235 0.79445,0.236235 0,0 0,0.708706 0,0.708706 z m -36.80952,-7.956398 c -0.643505,0.129928 -1.244638,0.27167 -1.853717,0.507905 -1.522696,0.590588 -2.661408,1.85917 -0.778561,2.863169 1.189027,0.633111 2.860021,0.800837 4.221178,0.805563 1.644512,0.007 3.246652,-0.01417 4.761405,-0.689807 0.733542,-0.326005 1.435306,-0.843359 1.154601,-1.663095 -0.701766,-2.06942 -5.603522,-2.007998 -7.504906,-1.823735 z m 35.750253,7.483927 c -0.23039,-0.507905 -0.487262,-2.494643 -0.225093,-2.983649 0.312483,-0.581138 2.359516,-1.410324 1.61803,-3.153738 -0.855358,-2.012723 -4.472755,-1.816649 -5.015628,0.23151 -0.503153,1.894607 1.459139,2.248957 1.874901,3.120666 0.3628,0.755951 -0.07415,3.108854 0.423708,4.675092 0,0 1.324082,-1.889881 1.324082,-1.889881 z m -1.310843,-6.831919 c 2.025849,0.09448 1.586253,1.663096 0.503152,1.880432 -1.040729,0.207886 -2.327737,-1.103218 -0.503152,-1.880432 z m 0.781211,0.689807 c 0,0 -1.059267,-0.236236 -1.059267,-0.236236 0,0 0,0.944941 0,0.944941 0,0 1.059267,-0.236235 1.059267,-0.236235 0,0 0,-0.47247 0,-0.47247 z m -21.979786,1.653646 c 0,0 13.240834,0 13.240834,0 0,0 0,6.850817 0,6.850817 0,0 -13.240834,0 -13.240834,0 0,0 0,-6.850817 0,-6.850817 z m 12.976018,0.236235 c 0,0 -12.711201,0 -12.711201,0 0,0 0,6.378347 0,6.378347 0,0 12.711201,0 12.711201,0 0,0 0,-6.378347 0,-6.378347 z m -11.387118,0.944941 c 0.415762,0.935489 0.415762,3.552975 0,4.488465 0,0 0,-4.488465 0,-4.488465 z m 1.5889,0 c 0.415762,0.935489 0.415762,3.552975 0,4.488465 0,0 0,-4.488465 0,-4.488465 z m 1.5889,0 c 0.415763,0.935489 0.415763,3.552975 0,4.488465 0,0 0,-4.488465 0,-4.488465 z m 1.588901,0 c 0,0 0.529633,0 0.529633,0 0,0 0,4.488465 0,4.488465 0,0 -0.529633,0 -0.529633,0 0,0 0,-4.488465 0,-4.488465 z m 1.853716,0 c 0.415762,0.935489 0.415762,3.552975 0,4.488465 0,0 0,-4.488465 0,-4.488465 z m 1.5889,0 c 0.415762,0.935489 0.415762,3.552975 0,4.488465 0,0 0,-4.488465 0,-4.488465 z m 1.5889,0 c 0.415763,0.935489 0.415763,3.552975 0,4.488465 0,0 0,-4.488465 0,-4.488465 z M 67.368108,48.8934 c 0.01059,-0.935489 -0.02648,-1.790661 0.664691,-2.5726 1.212859,-1.374888 3.620043,-1.256769 4.671365,0.2197 0.516393,0.727604 0.481966,1.530803 0.48991,2.3529 0,0 1.853718,0 1.853718,0 0,0 0,4.488468 0,4.488468 -0.0026,0.429947 0.03972,1.162277 -0.270113,1.511904 -0.357503,0.401599 -1.067211,0.368527 -1.583605,0.377977 0,0 -5.825966,0 -5.825966,0 -0.516393,-0.0095 -1.226102,0.02362 -1.583604,-0.377977 -0.331021,-0.375613 -0.270113,-1.278031 -0.270113,-1.748139 -0.0079,-3.852995 -0.344262,-4.183723 1.853717,-4.252233 z m -34.426171,2.126117 c 0.169484,-1.476469 0.712358,-2.447396 1.35851,-3.779762 0.214503,-0.441759 0.442245,-1.129203 0.895081,-1.415047 0.770616,-0.479558 3.220171,-0.226787 4.10201,0 0,0 -1.588901,3.304928 -1.588901,3.304928 0,0 2.118536,0.236235 2.118536,0.236235 0,0 -3.16456,4.724702 -3.16456,4.724702 0,0 -2.926225,3.543527 -2.926225,3.543527 0,0 1.324085,-6.614583 1.324085,-6.614583 0,0 -2.118536,0 -2.118536,0 z M 68.469745,48.8934 c 0.688523,0 3.000374,0.118119 3.506174,-0.240958 1.326732,-0.94494 -0.942749,-3.973475 -2.936818,-2.256046 -0.293947,0.255134 -0.429002,0.498457 -0.569356,0.848084 -0.0662,0.366164 -0.04238,1.237873 0,1.64892 z M 38.238272,46.294816 c -0.572004,0 -2.086756,-0.0567 -2.544889,0.134653 -1.016895,0.427586 -1.859013,3.156101 -1.956995,4.117578 0,0 2.118533,0 2.118533,0 0,0 -0.794448,4.488467 -0.794448,4.488467 0.982468,-0.857534 3.212225,-4.039621 3.707433,-5.197173 0,0 -2.118535,0 -2.118535,0 0,0 1.588901,-3.543525 1.588901,-3.543525 z m -8.474135,1.653644 c 0,0 0.529634,0 0.529634,0 0,0 0,1.181176 0,1.181176 0,0 1.324084,0 1.324084,0 0,0 0,0.708705 0,0.708705 0,0 -1.324084,0 -1.324084,0 0,0 0,1.417411 0,1.417411 0,0 -0.529634,0 -0.529634,0 0,0 0,-1.417411 0,-1.417411 0,0 -1.324083,0 -1.324083,0 0,0 0,-0.708705 0,-0.708705 0,0 1.324083,0 1.324083,0 0,0 0,-1.181176 0,-1.181176 z m -8.738951,1.181176 c 0,0 6.355602,0 6.355602,0 0,0 0,0.708705 0,0.708705 0,0 -6.355602,0 -6.355602,0 0,0 0,-0.708705 0,-0.708705 z m 53.228155,5.433408 c 0,0 0,-3.307292 0,-3.307292 0,0 -0.423706,-1.648921 -0.423706,-1.648921 0,0 -1.959643,-0.24096 -1.959643,-0.24096 0,0 -3.707434,0 -3.707434,0 0,0 -1.43001,0.24096 -1.43001,0.24096 0,0 -0.423707,1.648921 -0.423707,1.648921 0,0 0,3.307292 0,3.307292 0,0 7.9445,0 7.9445,0 z m -4.237066,-0.944941 c -0.251576,-1.415048 -1.053971,-1.849721 -0.826229,-2.537164 0.286003,-0.864621 2.137072,-0.824462 2.295962,0.196074 0.100627,0.668545 -0.542874,0.838635 -0.675283,2.34109 0,0 -0.79445,0 -0.79445,0 z m 0.79445,-2.598586 c 0,0 -1.059267,0.708705 -1.059267,0.708705 0.760024,-0.12993 0.760024,-0.06851 1.059267,-0.708705 z m -48.196638,1.181176 c 0,0 10.32785,0 10.32785,0 0,0 0,0.708705 0,0.708705 0,0 -10.32785,0 -10.32785,0 0,0 0,-0.708705 0,-0.708705 z m 1.853717,1.653645 c 0,0 1.856364,1.029985 1.856364,1.029985 1.861662,0.746503 4.099362,0.623661 6.088137,0.623661 -0.640858,0.734691 -1.379695,0.737053 -2.383351,0.687444 -2.028496,-0.101586 -4.891164,-0.359078 -5.56115,-2.34109 z m 14.035284,20.316214 c -0.0026,0.543343 0.111223,1.478832 -0.415761,1.849721 -0.479319,0.335453 -1.63392,0.276397 -2.232406,0.276397 -1.030136,0.0026 -5.023573,0.17954 -5.675021,-0.276397 -0.524337,-0.370889 -0.415763,-1.306378 -0.415763,-1.849721 0,0 0,-12.284221 0,-12.284221 0.0079,-0.375614 -0.01853,-0.933129 0.26217,-1.242596 0.394576,-0.437036 1.287008,-0.403963 1.856364,-0.41105 0,0 3.97225,0 3.97225,0 0.598486,0 1.753087,-0.05906 2.232406,0.276397 0.526984,0.370888 0.413113,1.306379 0.415761,1.84972 0,0 18.537168,0 18.537168,0 0.0026,-0.543341 -0.111222,-1.478832 0.415763,-1.84972 0.479319,-0.335456 1.633919,-0.276397 2.232404,-0.276397 1.030137,-0.0023 5.023573,-0.179538 5.675023,0.276397 0.524336,0.370888 0.415762,1.306379 0.415762,1.84972 0,0 0,12.047989 0,12.047989 -0.01324,1.819008 -0.291298,1.880429 -2.383351,1.889879 0,0 -4.237066,0 -4.237066,0 -0.569356,-0.007 -1.461788,0.02598 -1.856366,-0.411046 -0.33102,-0.363802 -0.25952,-1.254413 -0.262169,-1.715072 0,0 -18.537168,0 -18.537168,0 z M 37.179005,61.413861 c 0,0 -6.090784,0 -6.090784,0 0,0 0,13.701636 0,13.701636 0,0 6.090784,0 6.090784,0 0,0 0,-13.701636 0,-13.701636 z m 27.276119,0 c 0,0 -6.090784,0 -6.090784,0 0,0 0,13.701636 0,13.701636 0,0 6.090784,0 6.090784,0 0,0 0,-13.701636 0,-13.701636 z m -7.414868,2.126116 c 0,0 -18.537168,0 -18.537168,0 0,0 0,9.449402 0,9.449402 0,0 18.537168,0 18.537168,0 0,0 0,-9.449402 0,-9.449402 z m -10.063033,1.41741 c 0,0 4.7667,0 4.7667,0 0,0 0,1.181176 0,1.181176 0,0 -4.7667,0 -4.7667,0 0,0 0,-1.181176 0,-1.181176 z m 6.620417,0 c 0,0 1.588901,0 1.588901,0 0,0 0,1.181176 0,1.181176 0,0 -1.588901,0 -1.588901,0 0,0 0,-1.181176 0,-1.181176 z"
       style="fill:#0000ff" />
    <path
       style="fill:#ff0000;stroke:none;stroke-width:0.544077;stroke-linecap:butt;stroke-linejoin:round;stroke-miterlimit:4;stroke-dasharray:none;paint-order:fill markers stroke"
       d="m 396.3818,265.08134 c 0.18844,-1.00801 5.54921,-46.90111 11.91283,-101.98465 l 11.57022,-100.151917 8.9734,0.18409 8.9734,0.18409 11.45541,98.968147 c 6.30048,54.43247 11.62869,100.24273 11.84048,101.80056 l 0.38507,2.83242 h -5.94449 -5.94448 l -0.33003,-2.83242 c -0.18151,-1.55783 -0.8122,-7.66513 -1.40152,-13.57176 -1.6598,-16.63578 -3.75083,-23.91133 -8.3912,-29.19642 -3.07983,-3.50774 -7.52693,-4.86658 -17.74465,-5.42202 l -8.6739,-0.47152 -0.40016,3.25431 c -0.22009,1.78987 -1.17334,12.40137 -2.11833,23.5811 -0.94499,11.17974 -1.8721,21.30148 -2.06024,22.49276 l -0.34207,2.16597 h -6.05118 -6.05118 z m 44.47629,-76.42429 c 0,-2.43912 -4.66441,-69.92094 -4.84315,-70.06772 -0.0854,-0.0701 -2.25457,-0.42589 -4.82041,-0.79061 -3.28129,-0.46641 -4.80095,-0.45024 -5.1229,0.0545 -1.4764,2.31473 -5.1483,20.9758 -6.51266,33.09816 -0.84308,7.49083 -2.68066,32.43492 -2.68802,36.48825 l -0.005,2.83243 h 11.99614 11.99614 z"
       id="path6042"
       transform="matrix(0.26458333,0,0,0.26458333,2.398759,3.3025789)" />
    <path
       style="fill:#ff0000;stroke:none;stroke-width:0.544077;stroke-linecap:butt;stroke-linejoin:round;stroke-miterlimit:4;stroke-dasharray:none;paint-order:fill markers stroke"
       d="m 496.32759,271.5467 c -4.35425,-0.77695 -6.81199,-1.79221 -12.78883,-5.28288 l -4.6929,-2.74079 v -18.77511 -18.77511 l 3.49887,3.3685 c 8.46553,8.1501 13.5456,11.00989 19.55767,11.00989 10.26735,0 17.60109,-11.02372 17.67252,-26.56449 0.0378,-8.21916 -0.95213,-12.68933 -4.39554,-19.84914 -2.46076,-5.11659 -4.07891,-7.2713 -11.0109,-14.66195 -10.34127,-11.02548 -14.00215,-15.86284 -17.65284,-23.32582 -5.73026,-11.7142 -7.35357,-22.15399 -6.82328,-43.8818 0.76239,-31.237973 6.29418,-47.261239 18.1177,-52.479401 2.58305,-1.139993 4.61585,-1.462328 9.33033,-1.479482 13.64883,-0.04966 18.19076,4.378268 19.64145,19.148466 0.39326,4.00406 0.71503,10.386723 0.71503,14.183698 v 6.903589 l -3.52013,-2.65772 c -11.71449,-8.844524 -21.69742,-8.130398 -27.95501,1.999749 -4.53951,7.348841 -4.14188,21.400411 0.88984,31.445051 2.65887,5.30779 5.25354,8.50407 13.92553,17.15429 12.30282,12.27194 16.39428,20.59751 19.67651,40.03903 1.48743,8.81047 2.02218,29.7558 1.02961,40.32855 -2.37051,25.25045 -8.07997,39.66388 -17.34499,43.78715 -3.45357,1.53697 -12.36408,2.0883 -17.87064,1.10573 z"
       id="path6081"
       transform="matrix(0.26458333,0,0,0.26458333,2.398759,3.3025789)" />
    <path
       style="fill:#ff0000;stroke:none;stroke-width:0.544077;stroke-linecap:butt;stroke-linejoin:round;stroke-miterlimit:4;stroke-dasharray:none;paint-order:fill markers stroke"
       d="m 572.89609,271.53612 c -4.20345,-0.74707 -8.03505,-2.3569 -13.4748,-5.66137 l -3.93343,-2.38944 v -18.75625 -18.75625 l 3.49887,3.3685 c 8.46553,8.1501 13.5456,11.00989 19.55767,11.00989 5.8869,0 10.9227,-3.74194 14.65731,-10.89137 2.98158,-5.70787 3.94705,-19.02268 1.94752,-26.85838 -2.15312,-8.4376 -5.6061,-14.00005 -14.69376,-23.67042 -9.8418,-10.47287 -14.16995,-16.26411 -17.67338,-23.64768 -5.38546,-11.35005 -6.97376,-22.02962 -6.42711,-43.21535 0.65651,-25.44328 4.16007,-39.879809 11.61164,-47.846145 4.18594,-4.475108 8.35675,-6.083925 15.84545,-6.112101 9.69057,-0.03646 14.59483,2.353804 17.36651,8.464173 1.73463,3.824137 2.95416,14.234759 2.958,25.251445 l 0.002,6.519498 -3.52012,-2.65772 c -5.16765,-3.901615 -10.50578,-6.153068 -14.67762,-6.190555 -14.89394,-0.133835 -21.5114,21.543165 -12.20007,39.964115 2.31919,4.58814 10.01689,14.2153 12.37566,15.47767 2.12929,1.13956 10.63349,11.36023 13.04383,15.67658 5.70333,10.21327 8.8768,25.22051 9.455,44.71239 0.54665,18.42832 -1.04101,33.37271 -4.9132,46.24698 -3.20088,10.6423 -7.04187,16.27642 -12.86212,18.86664 -3.4688,1.54375 -12.36512,2.0867 -17.94413,1.09515 z"
       id="path6120"
       transform="matrix(0.26458333,0,0,0.26458333,2.398759,3.3025789)" />
    <path
       style="fill:#ff0000;stroke:none;stroke-width:0.544077;stroke-linecap:butt;stroke-linejoin:round;stroke-miterlimit:4;stroke-dasharray:none;paint-order:fill markers stroke"
       d="m 654.49725,272.52345 c -5.85908,-2.14586 -12.18929,-8.86774 -15.8207,-16.79959 -3.6959,-8.07272 -5.72313,-20.3978 -7.2029,-43.79208 -1.24529,-19.68717 -2.09082,-80.02102 -1.61345,-115.129607 l 0.45989,-33.822446 h 5.85674 5.85675 l 0.29424,73.476353 c 0.31178,77.85701 0.34938,78.80877 3.51038,88.8584 3.15102,10.01792 10.18718,14.9497 17.16759,12.0331 5.79302,-2.42048 9.77983,-11.53032 12.88372,-29.4393 1.02879,-5.93597 1.17518,-13.96853 1.38115,-75.78414 l 0.23038,-69.144413 h 5.01496 5.01495 l -0.27796,76.475383 c -0.18771,51.64536 -0.53124,78.96379 -1.05805,84.13958 -1.81287,17.81122 -5.2382,32.6259 -8.9328,38.63479 -5.77943,9.39963 -14.47312,13.3308 -22.76489,10.29397 z"
       id="path6159"
       transform="matrix(0.26458333,0,0,0.26458333,2.398759,3.3025789)" />
    <path
       style="fill:#ff0000;stroke:none;stroke-width:0.544077;stroke-linecap:butt;stroke-linejoin:round;stroke-miterlimit:4;stroke-dasharray:none;paint-order:fill markers stroke"
       d="M 706.77249,164.9469 V 62.979727 h 7.6642 c 5.33209,0 7.6642,0.233236 7.6642,0.766501 0,1.047863 9.90926,68.511752 10.33145,70.338242 0.31981,1.38357 0.59195,1.44015 5.16647,1.07412 2.65588,-0.21252 4.89694,-0.43798 4.98014,-0.50102 0.0832,-0.063 1.57239,-16.21635 3.30931,-35.896236 l 3.15804,-35.781607 h 7.52054 7.52053 V 164.9469 266.91408 h -3.99871 -3.99871 l -0.0129,-4.83178 c -0.007,-2.65748 -0.45066,-27.62444 -0.9857,-55.48214 -0.53505,-27.8577 -0.97911,-53.27452 -0.9868,-56.48182 l -0.014,-5.83145 h -5.22741 -5.22741 l -0.44054,10.49662 c -0.82954,19.76567 -2.68216,30.50797 -5.79891,33.62472 -2.05093,2.05092 -6.63155,2.71028 -6.63155,0.95457 0,-0.5001 -1.34957,-12.98677 -2.99904,-27.74816 -1.64947,-14.76139 -2.99903,-27.0981 -2.99903,-27.41493 0,-0.65163 -7.32532,-0.79213 -8.9426,-0.17153 -0.95149,0.36513 -1.05418,6.85717 -1.05418,66.64522 v 66.24068 h -3.99872 -3.99871 z"
       id="path6198"
       transform="matrix(0.26458333,0,0,0.26458333,2.398759,3.3025789)" />
    <path
       style="fill:#ff0000;stroke:none;stroke-width:0.544077;stroke-linecap:butt;stroke-linejoin:round;stroke-miterlimit:4;stroke-dasharray:none;paint-order:fill markers stroke"
       d="M 788.07965,164.9469 V 62.979727 h 25.32518 25.32518 v 12.662591 12.66259 h -20.32679 -20.32679 v 27.990992 27.99099 h 17.99421 17.99421 v 12.99581 12.99582 h -17.99421 -17.99421 v 35.65519 35.65519 h 20.32679 20.32679 v 12.66259 12.66259 h -25.32518 -25.32518 z"
       id="path6237"
       transform="matrix(0.26458333,0,0,0.26458333,2.398759,3.3025789)" />
    <path
       style="fill:#00ff00;stroke:none;stroke-width:0.544077;stroke-linecap:butt;stroke-linejoin:round;stroke-miterlimit:4;stroke-dasharray:none;paint-order:fill markers stroke"
       d="M 884.71521,177.60949 V 88.304908 H 872.38585 860.05648 V 75.642318 62.979727 h 28.65744 28.65745 v 12.662591 12.66259 h -11.32969 -11.32969 v 89.304582 89.30459 h -4.99839 -4.99839 z"
       id="path6276"
       transform="matrix(0.26458333,0,0,0.26458333,2.398759,3.3025789)" />
    <path
       style="fill:#00ff00;stroke:none;stroke-width:0.544077;stroke-linecap:butt;stroke-linejoin:round;stroke-miterlimit:4;stroke-dasharray:none;paint-order:fill markers stroke"
       d="M 938.69783,164.9469 V 62.979727 h 6.3313 6.3313 v 40.653583 40.65358 h 14.99517 14.99517 V 103.63331 62.979727 h 4.99839 4.99839 V 164.9469 266.91408 h -4.99839 -4.99839 V 218.5963 170.27852 H 966.3556 951.36043 v 48.31778 48.31778 h -6.3313 -6.3313 z"
       id="path6352"
       transform="matrix(0.26458333,0,0,0.26458333,2.398759,3.3025789)" />
    <path
       style="fill:#00ff00;stroke:none;stroke-width:0.544077;stroke-linecap:butt;stroke-linejoin:round;stroke-miterlimit:4;stroke-dasharray:none;paint-order:fill markers stroke"
       d="M 1018.0056,164.9469 V 62.979727 h 24.992 24.9919 v 12.662591 12.66259 h -19.9935 -19.9936 v 27.990992 27.99099 h 17.9942 17.9942 v 12.99581 12.99582 h -17.9942 -17.9942 v 35.65519 35.65519 h 19.9936 19.9935 v 12.66259 12.66259 h -24.9919 -24.992 z"
       id="path6391"
       transform="matrix(0.26458333,0,0,0.26458333,2.398759,3.3025789)" />
    <path
       style="fill:#0000ff;stroke:none;stroke-width:0.544077;stroke-linecap:butt;stroke-linejoin:round;stroke-miterlimit:4;stroke-dasharray:none;paint-order:fill markers stroke"
       d="M 1091.9818,165.00549 V 63.096886 l 2.6704,-0.451158 c 4.7545,-0.803264 22.7905,-0.612513 26.9267,0.284781 11.6068,2.517881 16.2562,7.497784 19.7484,21.151922 2.6614,10.406163 3.4667,20.016599 3.0901,36.878629 -0.3944,17.66238 -1.1477,22.50238 -5.7443,36.90614 -5.1294,16.07327 -5.4937,11.39708 4.9047,62.95119 4.9781,24.68125 9.0512,45.14966 9.0512,45.48535 0,0.96205 -7.1318,0.71145 -9.6457,-0.33893 -4.15,-1.73399 -6.069,-7.54228 -10.0186,-30.32426 -4.3529,-25.10823 -8.4023,-36.8636 -16.3579,-47.48666 -2.8149,-3.75878 -13.1941,-13.87666 -14.2351,-13.87666 -0.2162,0 -0.3931,20.84329 -0.3931,46.31843 v 46.31842 h -4.9984 -4.9984 z m 16.1029,-10.32985 c 11.1791,-2.1509 17.5383,-6.34028 21.1633,-13.94219 2.724,-5.71247 3.602,-11.60929 3.2243,-21.65573 -0.7599,-20.217024 -7.7639,-28.182066 -27.3664,-31.12164 l -3.1273,-0.468967 v 34.064727 c 0,20.07509 0.2496,34.06473 0.6078,34.06473 0.3343,0 2.8085,-0.42341 5.4983,-0.94093 z"
       id="path6430"
       transform="matrix(0.26458333,0,0,0.26458333,2.398759,3.3025789)" />
    <path
       style="fill:#0000ff;stroke:none;stroke-width:0.544077;stroke-linecap:butt;stroke-linejoin:round;stroke-miterlimit:4;stroke-dasharray:none;paint-order:fill markers stroke"
       d="m 1186.8094,270.49314 c -8.1909,-4.03864 -15.1937,-26.87161 -18.5737,-60.56072 -2.3695,-23.61731 -2.2034,-66.66279 0.3535,-91.61789 3.5625,-34.769448 10.184,-55.100126 19.2518,-59.110278 3.3246,-1.470276 11.1476,-1.409913 14.1618,0.109274 15.3934,7.758472 21.929,40.254718 21.9149,108.965634 -0.01,37.21498 -2.3683,62.04514 -7.6223,80.17378 -3.164,10.9171 -8.3471,19.71219 -13.0499,22.1441 -2.6791,1.38545 -13.555,1.31669 -16.4361,-0.1039 z m 15.137,-33.46006 c 7.9743,-6.26765 10.9251,-26.19701 10.9696,-74.08553 0.032,-34.65207 -1.1426,-48.87 -5.0782,-61.46192 -3.0813,-9.858784 -9.8348,-13.408853 -16.8117,-8.837381 -2.3011,1.50776 -6.7187,10.544391 -8.3832,17.148971 -4.2601,16.90284 -5.6841,45.64964 -3.9867,80.47487 1.1104,22.77936 3.1939,34.45845 7.5513,42.32773 3.8661,6.98197 10.2194,8.77154 15.7389,4.43326 z"
       id="path6506"
       transform="matrix(0.26458333,0,0,0.26458333,2.398759,3.3025789)" />
    <path
       style="fill:#0000ff;stroke:none;stroke-width:0.544077;stroke-linecap:butt;stroke-linejoin:round;stroke-miterlimit:4;stroke-dasharray:none;paint-order:fill markers stroke"
       d="M 1251.9303,164.9469 V 62.979727 h 4.9984 4.9984 v 89.304583 89.30459 h 20.3268 20.3268 v 12.66259 12.66259 h -25.3252 -25.3252 z"
       id="path6545"
       transform="matrix(0.26458333,0,0,0.26458333,2.398759,3.3025789)" />
    <path
       style="fill:#0000ff;stroke:none;stroke-width:0.544077;stroke-linecap:butt;stroke-linejoin:round;stroke-miterlimit:4;stroke-dasharray:none;paint-order:fill markers stroke"
       d="M 1323.9072,164.9469 V 62.979727 h 25.3252 25.3251 v 12.662591 12.66259 h -19.9935 -19.9936 v 27.990992 27.99099 h 17.9942 17.9942 v 12.99581 12.99582 h -17.9942 -17.9942 v 35.65519 35.65519 h 19.9936 19.9935 v 12.66259 12.66259 h -25.3251 -25.3252 z"
       id="path6584"
       transform="matrix(0.26458333,0,0,0.26458333,2.398759,3.3025789)" />
    <path
       style="fill:#00ff00;stroke:none;stroke-width:0.238034;stroke-linecap:butt;stroke-linejoin:round;stroke-miterlimit:4;stroke-dasharray:none;paint-order:fill markers stroke"
       d="m 332.24722,117.25807 v -1.87613 l 0.94761,-0.16917 c 0.52118,-0.0931 2.61873,-0.30933 4.66123,-0.48062 11.90072,-0.99802 25.4485,-4.79245 33.56924,-9.40198 8.95601,-5.08364 14.41204,-13.552835 13.28321,-20.618997 -1.10121,-6.893379 -7.88159,-12.582396 -20.97143,-17.595885 -8.58834,-3.289391 -18.56132,-5.630481 -33.14821,-7.781318 -8.13404,-1.199361 -9.74136,-1.587497 -10.69466,-2.582521 -0.42479,-0.44338 -1.42148,-2.274618 -2.21487,-4.069421 -1.68343,-3.808162 -2.75009,-5.457485 -4.88572,-7.554534 -2.78329,-2.733 -7.52348,-5.506881 -11.51706,-6.739581 -5.66222,-1.747751 -13.60599,-2.564925 -20.31154,-2.08944 -7.19735,0.510361 -12.23561,1.582649 -19.26698,4.100573 -6.13336,2.196342 -8.41778,2.711405 -11.24377,2.5351 -3.56475,-0.222397 -4.97054,-1.016752 -9.60914,-5.429733 -4.07239,-3.874307 -6.48824,-5.743881 -11.52312,-8.917469 C 210.28993,16.590615 177.95602,9.5683793 149.28528,11.20467 130.28362,12.289129 110.18061,16.3455 98.568113,21.438344 87.486101,26.298536 78.645549,32.683648 73.451372,39.578974 c -3.923051,5.207893 -5.588381,9.6899 -5.240222,14.103333 0.234949,2.97832 -0.05395,3.674465 -1.843306,4.441695 -1.997003,0.856264 -4.201777,1.36947 -10.826346,2.520055 -9.373807,1.628081 -15.513009,3.441935 -21.719052,6.416992 -7.927345,3.800215 -13.037448,8.70242 -15.045664,14.433551 -0.52933,1.510625 -0.667665,2.546084 -0.681682,5.102525 -0.021,3.829735 0.419036,5.417207 2.484057,8.961484 0.772237,1.32542 1.312529,2.494863 1.200649,2.598759 -0.435117,0.404071 -6.990206,2.351912 -8.414669,2.500412 -1.2355,0.12881 -1.66322,0.0443 -2.38802,-0.4718 C 9.6793583,99.26189 7.4225949,95.691009 6.514443,93.124679 3.0899887,83.447573 6.6717255,74.927923 17.057009,68.047746 c 5.534969,-3.666878 12.418331,-6.329375 23.617398,-9.13525 10.308994,-2.582874 12.044211,-3.16981 13.593675,-4.598056 1.514415,-1.39594 2.017629,-2.674385 2.590199,-6.58058 0.645574,-4.404228 2.141535,-7.115584 6.764763,-12.260808 C 74.635843,23.216834 95.800218,14.02083 123.48108,9.4645001 c 7.5662,-1.2454119 12.4649,-1.7370719 17.31142,-1.737467 2.38504,-1.945e-4 6.45248,-0.2135924 9.03876,-0.4742175 15.15105,-1.5268045 45.86148,2.1149206 64.32897,7.6283034 10.67623,3.187338 21.83746,8.554331 31.69135,15.23911 8.26213,5.604948 7.78476,5.385656 11.31564,5.198177 1.72065,-0.09136 4.46932,-0.522546 6.70617,-1.051999 7.19664,-1.703414 12.02659,-2.180128 22.15954,-2.187142 7.29366,-0.005 9.67529,0.09468 12.33571,0.516522 6.53762,1.036631 13.81382,3.275521 18.86258,5.804034 5.46675,2.737849 8.33513,5.298741 11.21736,10.014829 1.97074,3.224682 3.5182,4.937034 5.25872,5.819015 0.84331,0.427338 4.72703,1.392908 10.50834,2.612574 20.44039,4.312272 30.02474,7.25995 39.05682,12.011978 9.55195,5.025555 14.80426,11.70047 14.18729,18.029973 -1.23172,12.636188 -13.34217,22.56064 -34.16003,27.99391 -8.48252,2.21387 -16.91708,3.44024 -28.06388,4.08044 l -2.98862,0.17165 z"
       id="path6623"
       transform="matrix(0.26458333,0,0,0.26458333,2.398759,3.3025789)" />
    <path
       style="fill:#00ff00;stroke:none;stroke-width:0.238034;stroke-linecap:butt;stroke-linejoin:round;stroke-miterlimit:4;stroke-dasharray:none;paint-order:fill markers stroke"
       d="m 108.51696,274.19828 c -2.56931,-0.34566 -3.02831,-0.61629 -3.40258,-2.0062 -0.473,-1.7566 -0.26923,-53.30103 0.21406,-54.14516 0.19922,-0.34798 0.78966,-0.77077 1.31208,-0.93955 1.16779,-0.37726 25.0499,-0.47372 26.29693,-0.1062 1.61366,0.47556 2.0302,1.46081 2.00352,4.7389 l -0.0238,2.91678 h 36.55999 36.55999 v -2.75096 c 0,-5.28642 -0.30048,-5.1555 12.24606,-5.3356 9.28613,-0.1333 15.42165,0.15609 16.59226,0.78258 0.30206,0.16166 0.69421,0.7099 0.87144,1.21831 0.47538,1.36367 0.4197,52.50207 -0.0587,53.90019 -0.63117,1.84463 -0.83371,1.8756 -13.03143,1.99293 -11.89303,0.11439 -14.85083,-0.0916 -15.8653,-1.10485 -0.52843,-0.52779 -0.62156,-1.02917 -0.70726,-3.80776 l -0.0987,-3.19993 H 171.44575 134.9059 l 0.0378,2.69963 c 0.0452,3.23472 -0.34567,4.39981 -1.64953,4.91632 -1.13372,0.44911 -21.72824,0.64076 -24.77717,0.23057 z m 24.29445,-28.69397 v -27.26206 h -12.97499 -12.97499 v 27.26206 27.26205 h 12.97499 12.97499 z m 103.21678,0 V 218.24225 H 223.0532 210.07821 v 27.26206 27.26205 h 12.97499 12.97499 z m -27.99099,0 v -19.3896 h -36.59239 -36.59239 v 19.3896 19.38959 h 36.59239 36.59239 z"
       id="path6810"
       transform="matrix(0.26458333,0,0,0.26458333,2.398759,3.3025789)" />
    <path
       style="fill:#00ff00;stroke:none;stroke-width:0.238034;stroke-linecap:butt;stroke-linejoin:round;stroke-miterlimit:4;stroke-dasharray:none;paint-order:fill markers stroke"
       d="m 169.84116,235.29926 v -0.72893 h 7.58089 7.5809 v 0.72893 0.72893 h -7.5809 -7.58089 z"
       id="path6849"
       transform="matrix(0.26458333,0,0,0.26458333,2.398759,3.3025789)" />
    <path
       style="fill:#00ff00;stroke:none;stroke-width:0.238034;stroke-linecap:butt;stroke-linejoin:round;stroke-miterlimit:4;stroke-dasharray:none;paint-order:fill markers stroke"
       d="m 194.91642,235.29926 c 0,-0.68917 0.0875,-0.72893 1.60365,-0.72893 1.51618,0 1.60365,0.0398 1.60365,0.72893 0,0.68917 -0.0875,0.72893 -1.60365,0.72893 -1.51617,0 -1.60365,-0.0398 -1.60365,-0.72893 z"
       id="path6888"
       transform="matrix(0.26458333,0,0,0.26458333,2.398759,3.3025789)" />
    <path
       style="fill:#ff6600;stroke:none;stroke-width:0.238034;stroke-linecap:butt;stroke-linejoin:round;stroke-miterlimit:4;stroke-dasharray:none;paint-order:fill markers stroke"
       d="m 77.995727,302.09877 v -13.23723 l -13.19367,-0.13053 c -11.572009,-0.11447 -13.390779,-0.19376 -14.79732,-0.64504 -3.879443,-1.24471 -4.122977,-1.83709 -4.182038,-10.17252 -0.0452,-6.37853 -0.05538,-6.47736 -0.816077,-7.91703 -0.926184,-1.75286 -1.456943,-2.26151 -3.171166,-3.03908 -1.2678,-0.57507 -1.840285,-0.59296 -19.16567,-0.59918 l -17.8588346,-0.006 v -2.47837 -2.47837 H 10.70348 c 8.522892,0 28.257394,-1.06772 30.2625,-1.63733 2.095924,-0.59541 3.282083,-1.52666 4.125064,-3.23858 0.667839,-1.35625 0.685887,-1.59623 0.685887,-9.11958 0,-8.50118 -0.176509,-9.57912 -1.827505,-11.1605 -1.94212,-1.86022 -1.340638,-1.8062 -21.133854,-1.89792 l -18.0046206,-0.0834 v -3.05098 -3.05098 H 21.515129 c 18.145745,0 18.965274,-0.0629 21.233431,-1.62918 0.579507,-0.40019 1.388009,-1.3454 1.796671,-2.10048 1.211083,-2.23769 1.445948,-4.26639 1.32656,-11.45843 -0.09765,-5.88234 -0.16957,-6.66766 -0.721056,-7.87327 -0.336924,-0.73656 -0.989902,-1.69121 -1.451062,-2.12146 -1.768427,-1.64987 -2.126519,-1.67755 -21.32146,-1.64792 l -17.5672616,0.0271 v -2.63468 c 0,-1.44908 0.032802,-2.63754 0.072893,-2.64102 4.5771583,-0.3977 17.1411086,-0.85733 23.5638476,-0.86205 4.943299,-0.004 9.353764,-0.14184 10.339111,-0.32399 2.209944,-0.40853 4.180748,-1.41516 5.327315,-2.72102 1.540761,-1.75483 1.832774,-3.3522 1.816455,-9.93632 -0.02146,-8.65541 -0.476159,-10.4521 -3.021852,-11.94029 -2.054548,-1.20108 -4.018346,-1.32173 -21.551013,-1.32407 l -16.5467568,-0.002 v -2.89663 -2.89663 l 16.8383298,-0.1037 c 16.58472,-0.10213 16.868228,-0.11365 18.823398,-0.76498 2.390702,-0.79641 3.962046,-2.2276 4.72478,-4.30335 0.420956,-1.14563 0.549653,-2.6099 0.653532,-7.43572 0.2069,-9.6117 -0.43454,-12.00075 -3.645439,-13.57747 L 40.528621,136.1645 22.669786,136.081 4.8109514,135.99749 v -3.0509 -3.0509 H 22.415498 c 19.470651,0 18.665507,0.0735 20.854703,-1.90429 0.618715,-0.55897 1.434419,-1.70406 1.812673,-2.54464 0.64365,-1.43034 0.692716,-1.92864 0.765399,-7.77295 0.08762,-7.0458 0.232086,-7.60968 2.197421,-8.57716 2.304096,-1.13423 5.008425,-1.33965 17.776868,-1.35032 l 12.173165,-0.0102 V 93.886445 80.036736 h 4.519378 4.519379 v 9.841197 9.841197 l 0.869129,3.04073 c 0.478022,1.67241 0.970051,3.12805 1.093398,3.23477 0.123347,0.10672 1.864366,0.54473 3.868929,0.97335 l 3.64466,0.77931 14.65153,-0.006 14.65154,-0.006 V 93.886445 80.036736 h 5.10252 5.10253 v 13.849709 13.849705 l 14.35996,2.2e-4 c 14.33128,2.1e-4 14.36782,-10e-4 18.29619,-0.76935 2.16493,-0.42327 4.08644,-0.91539 4.27003,-1.09362 0.18359,-0.17822 0.74123,-2.26714 1.23919,-4.64203 0.89247,-4.256414 0.90538,-4.438319 0.90538,-12.756311 v -8.438323 h 4.51938 4.51938 v 9.801209 c 0,9.651928 0.0116,9.843996 0.76079,12.610525 0.41844,1.54512 0.86374,2.99773 0.98956,3.22802 0.13224,0.24204 1.68737,0.75816 3.68569,1.22322 l 3.45693,0.80452 14.94311,0.016 14.9431,0.016 V 93.886445 80.036736 h 5.10253 5.10252 v 13.849709 13.849705 l 14.35996,2.2e-4 c 14.33129,2.1e-4 14.36782,-10e-4 18.2962,-0.76935 2.16492,-0.42327 4.08644,-0.91539 4.27003,-1.09362 0.18359,-0.17822 0.74122,-2.26714 1.23918,-4.64203 0.89248,-4.256414 0.90539,-4.438319 0.90539,-12.756311 v -8.438323 h 4.50682 4.50682 l 0.0854,11.590019 0.0854,11.590015 0.80144,1.36334 c 0.62169,1.05757 1.17753,1.54802 2.47837,2.1868 l 1.67693,0.82346 10.49662,0.0378 c 14.12227,0.0509 15.54337,0.35686 16.60705,3.57584 0.7392,2.23704 1.03203,6.56621 0.83533,12.34997 l -0.18591,5.46699 h 20.01878 20.01881 v 3.06151 3.06152 h -19.98571 -19.98572 l 0.0859,11.15266 c 0.084,10.9115 0.10001,11.17909 0.73923,12.37495 0.71307,1.33404 1.98392,2.41153 3.57444,3.03062 0.80973,0.31518 4.58863,0.41691 18.2962,0.49255 l 17.27569,0.0953 v 2.4505 2.45049 l -17.27569,0.0988 c -12.97919,0.0742 -17.55274,0.19102 -18.38973,0.46972 -0.61271,0.20402 -1.62881,0.83604 -2.25803,1.40447 -1.92575,1.73981 -2.02203,2.43408 -2.02203,14.57974 v 10.58949 h 19.97274 19.97274 v 2.91573 2.91572 H 334.1294 314.14368 l 0.0859,11.15266 c 0.0852,11.06167 0.0915,11.16412 0.77722,12.55687 0.79211,1.60884 2.18184,2.65249 4.1196,3.09372 0.812,0.1849 7.72965,0.30149 18.15041,0.3059 l 16.83833,0.007 v 2.6133 2.61331 l -17.42148,0.0837 c -19.3306,0.0929 -18.60398,0.0207 -20.70966,2.05868 -1.69736,1.6428 -1.81434,2.57162 -1.81434,14.40606 v 10.58949 h 19.97274 19.97274 v 2.91573 2.91572 H 336.7572 c -18.94745,0 -18.53575,-0.0342 -20.35456,1.69201 -0.90443,0.8584 -1.73296,2.33249 -2.08083,3.70209 -0.12217,0.4811 -0.20303,3.5278 -0.17964,6.77045 0.0472,6.54226 -0.15661,7.58187 -1.63616,8.34697 -1.46548,0.75783 -2.88646,0.85452 -13.17944,0.89686 -8.8574,0.0364 -10.28178,0.10552 -11.69003,0.56702 -2.39604,0.78523 -4.00205,1.82529 -4.89038,3.16705 l -0.79529,1.20125 -0.0857,11.32026 -0.0857,11.32028 h -4.77144 -4.77144 l -0.12904,-11.00688 c -0.0879,-7.49798 -0.24202,-11.36202 -0.48344,-12.12091 -0.56791,-1.7852 -2.17332,-3.33094 -4.06918,-3.91792 -1.45698,-0.4511 -3.09208,-0.50724 -14.6155,-0.50179 -9.25911,0.004 -13.31028,0.10669 -14.14576,0.35728 -2.12249,0.6366 -3.83936,1.95716 -4.72154,3.63166 l -0.81386,1.54481 -0.086,11.00687 -0.086,11.00688 h -5.0894 -5.08941 v -11.03626 c 0,-11.62705 -0.0562,-12.20028 -1.36923,-13.9688 -1.70197,-2.29235 -4.04074,-2.66112 -17.0075,-2.68165 -11.72617,-0.0186 -15.6882,0.61327 -17.87248,2.85017 -1.89677,1.94247 -1.91855,2.12015 -1.73101,14.12123 l 0.16745,10.71531 h -5.00258 -5.00259 l -0.009,-9.11165 c -0.005,-5.01141 -0.13225,-10.06049 -0.2829,-11.22018 -0.46756,-3.5994 -1.73471,-5.27635 -4.81062,-6.36644 -1.91342,-0.6781 -9.07486,-0.89787 -14.10278,-0.43277 -2.02574,0.18738 -5.78248,0.39019 -8.34832,0.45069 -6.30903,0.14874 -7.8191,0.50486 -9.70279,2.28816 -1.69004,1.59997 -1.81433,2.56552 -1.81433,14.09427 v 10.29792 h -5.10253 -5.10252 v -10.53569 c 0,-7.41229 -0.10482,-10.88554 -0.35358,-11.71581 -0.53806,-1.79588 -2.09999,-3.2517 -4.1658,-3.8828 -2.12843,-0.65022 -9.05936,-0.72022 -14.64671,-0.14792 -1.96182,0.20094 -5.83245,0.41568 -8.601397,0.4772 -5.366421,0.11922 -7.340634,0.48904 -8.81913,1.65202 -1.546785,1.21671 -1.571228,1.45764 -1.392362,13.72617 l 0.164768,11.30154 H 82.997594 77.995727 Z M 303.96815,203.29914 c 0.003,-71.18024 -0.042,-78.98212 -0.4843,-83.6085 -0.26828,-2.80639 -0.51302,-5.13794 -0.54384,-5.18123 -0.0308,-0.0433 -2.20744,-0.46767 -4.8369,-0.94307 l -4.78086,-0.86438 -63.56288,0.003 c -52.36886,0.003 -64.69254,0.078 -69.97747,0.42646 -4.48952,0.29603 -12.05858,0.42678 -25.22105,0.43567 -12.71817,0.009 -21.21344,0.15019 -26.24155,0.4374 -5.32243,0.30401 -13.959551,0.42649 -30.396467,0.43102 l -22.961358,0.006 0.0078,77.63126 c 0.0074,73.30846 0.03775,77.92002 0.544929,82.81706 0.295395,2.85218 0.587082,5.2252 0.648193,5.27337 0.06111,0.0482 1.948018,0.42389 4.193129,0.83492 l 4.082019,0.74733 119.763535,0.0294 119.76353,0.0294 z"
       id="path6927"
       transform="matrix(0.26458333,0,0,0.26458333,2.398759,3.3025789)" />
    <path
       style="fill:#d40000;stroke:none;stroke-width:0.146764;stroke-linecap:butt;stroke-linejoin:round;stroke-miterlimit:4;stroke-dasharray:none;paint-order:fill markers stroke"
       d="m 242.96611,186.84803 v -5.42149 l 0.65932,-2.53356 c 0.36263,-1.39346 0.67545,-2.5565 0.69516,-2.58453 0.0197,-0.028 0.95672,-0.20952 2.08225,-0.4033 1.79872,-0.30969 2.9149,-0.35248 9.22193,-0.35353 6.23136,-0.001 7.56787,0.0485 10.1573,0.37676 1.63997,0.20787 2.99696,0.39161 3.01553,0.40829 0.0186,0.0167 0.32168,1.12077 0.67359,2.45351 l 0.63982,2.42316 5.7e-4,5.52809 5.7e-4,5.52809 h -13.57302 -13.57302 z m 16.89886,4.65272 c 0,-0.0273 0.0849,-0.73517 0.18867,-1.57303 0.24825,-2.00448 0.52216,-2.88866 1.52493,-4.92258 1.28747,-2.61136 1.29871,-4.31877 0.039,-5.92537 l -0.54522,-0.69536 0.38507,-0.79259 c 0.21179,-0.43592 0.38507,-0.87347 0.38507,-0.97233 0,-0.0989 -0.41707,0.10113 -0.92682,0.44442 -0.8507,0.57289 -0.96513,0.6045 -1.39326,0.38484 -1.3634,-0.69951 -3.64303,-0.76716 -5.48371,-0.16273 -1.22362,0.4018 -2.69645,1.85104 -2.9864,2.93856 -0.38795,1.4551 -0.13654,2.52394 1.2452,5.29394 1.21886,2.44346 1.66068,3.66315 1.90819,5.26785 l 0.11784,0.76404 h 2.77072 c 1.52389,0 2.77071,-0.0223 2.77071,-0.0497 z"
       id="path7003"
       transform="matrix(0.26458333,0,0,0.26458333,2.398759,3.3025789)" />
    <path
       style="fill:#d40000;stroke:none;stroke-width:0.146764;stroke-linecap:butt;stroke-linejoin:round;stroke-miterlimit:4;stroke-dasharray:none;paint-order:fill markers stroke"
       d="m 256.3711,187.64031 c -0.17796,-0.56854 -0.54993,-1.5354 -0.82658,-2.14858 l -0.50301,-1.11486 0.8387,-0.11854 c 1.69628,-0.23975 2.75104,-0.92279 3.45283,-2.236 0.33031,-0.61807 0.3364,-0.62066 0.34421,-0.14618 0.004,0.26567 -0.38917,1.29509 -0.87453,2.28761 -0.48536,0.99251 -1.026,2.41334 -1.20141,3.15741 -0.40598,1.72209 -0.76213,1.81448 -1.23021,0.31914 z"
       id="path7079"
       transform="matrix(0.26458333,0,0,0.26458333,2.398759,3.3025789)" />
    <path
       style="fill:#d40000;stroke:none;stroke-width:0.0594619;stroke-linecap:butt;stroke-linejoin:round;stroke-miterlimit:4;stroke-dasharray:none;paint-order:fill markers stroke"
       d="m 211.15203,166.03034 c 0,-14.36149 0.008,-20.23665 0.0186,-13.0559 0.0102,7.18075 0.0102,18.93106 0,26.11181 -0.0102,7.18075 -0.0186,1.30559 -0.0186,-13.05591 z"
       id="path7118"
       transform="matrix(0.26458333,0,0,0.26458333,2.398759,3.3025789)" />
    <path
       style="fill:#d40000;stroke:none;stroke-width:0.0594619;stroke-linecap:butt;stroke-linejoin:round;stroke-miterlimit:4;stroke-dasharray:none;paint-order:fill markers stroke"
       d="m 212.56905,199.80025 c -0.79687,-0.62558 -1.16689,-1.19648 -1.47006,-2.26821 l -0.16484,-0.58269 -0.0398,-26.43957 c -0.0368,-24.43994 -0.0497,-26.58005 -0.17048,-28.29691 -0.1627,-2.31323 -0.12774,-4.34937 0.0969,-5.64481 0.16464,-0.94933 0.48727,-1.99418 0.7759,-2.51285 0.18922,-0.34001 0.18896,-0.30593 -0.003,0.36418 -0.2451,0.85659 -0.33897,1.75065 -0.4053,3.86032 -0.0879,2.7954 -0.0879,52.67835 1e-5,55.53768 0.0399,1.29681 0.11254,2.45666 0.17877,2.85312 0.23397,1.40051 0.65026,2.33109 1.37104,3.06483 0.45668,0.4649 0.37838,0.49491 -0.16935,0.0649 z"
       id="path7157"
       transform="matrix(0.26458333,0,0,0.26458333,2.398759,3.3025789)" />
    <path
       style="fill:#d40000;stroke:none;stroke-width:0.0594619;stroke-linecap:butt;stroke-linejoin:round;stroke-miterlimit:4;stroke-dasharray:none;paint-order:fill markers stroke"
       d="m 226.57335,171.51279 c -0.20831,-0.68089 -0.35311,-1.38891 -0.45092,-2.20481 -0.0456,-0.38057 -0.0992,-0.77389 -0.11914,-0.87404 -0.0199,-0.10015 -0.0645,-2.21422 -0.0991,-4.69794 -0.0566,-4.06585 -0.0777,-4.59569 -0.21132,-5.31705 -0.24698,-1.33301 -0.62296,-2.20691 -1.38404,-3.21693 -0.53818,-0.71423 -1.17433,-1.32058 -2.64528,-2.52141 -1.26557,-1.03317 -1.78596,-1.55935 -2.30906,-2.33475 -1.96136,-2.90737 -1.94212,-6.60079 0.049,-9.40762 0.41412,-0.58377 1.23093,-1.49315 1.34117,-1.49315 0.0408,0 -0.10505,0.19365 -0.32416,0.43032 -1.39481,1.50656 -2.23825,3.79014 -2.23911,6.06228 -8.1e-4,2.14115 0.80849,4.00036 2.46569,5.66439 0.64595,0.64862 1.42699,1.29817 2.96032,2.46196 1.04146,0.79046 1.87667,1.62978 2.08064,2.09088 0.38547,0.87143 0.50165,2.51964 0.50366,7.14531 0.002,4.01301 0.0989,5.70892 0.44589,7.78292 0.0796,0.4756 0.13161,0.87779 0.11563,0.89377 -0.016,0.016 -0.0969,-0.19289 -0.17991,-0.46413 z"
       id="path7196"
       transform="matrix(0.26458333,0,0,0.26458333,2.398759,3.3025789)" />
    <path
       style="fill:#d40000;stroke:none;stroke-width:0.0594619;stroke-linecap:butt;stroke-linejoin:round;stroke-miterlimit:4;stroke-dasharray:none;paint-order:fill markers stroke"
       d="m 230.43977,172.89517 c 0.218,-0.31047 1.34227,-1.90832 2.49839,-3.55077 1.73799,-2.46913 2.1013,-3.02729 2.09783,-3.22301 -0.002,-0.1302 0.0147,-0.23682 0.0377,-0.23695 0.023,-1.3e-4 0.27951,0.0702 0.56995,0.15628 l 0.52806,0.15652 v 0.51916 0.51916 l -0.58852,0.58098 c -0.74767,0.7381 -1.47897,1.58834 -2.62968,3.05742 -1.04332,1.33197 -1.72556,2.00953 -2.36514,2.34897 -0.24533,0.13019 -0.4683,0.23672 -0.49549,0.23672 -0.0272,0 0.12891,-0.25402 0.3469,-0.56448 z"
       id="path7235"
       transform="matrix(0.26458333,0,0,0.26458333,2.398759,3.3025789)" />
    <path
       style="fill:#d40000;stroke:none;stroke-width:0.0594619;stroke-linecap:butt;stroke-linejoin:round;stroke-miterlimit:4;stroke-dasharray:none;paint-order:fill markers stroke"
       d="m 234.03511,162.19833 c -0.17626,-0.59767 -0.45166,-4.37057 -0.37119,-5.08503 l 0.0486,-0.43161 0.17735,0.28594 c 0.0975,0.15727 0.39684,0.72774 0.6651,1.26771 0.47963,0.96544 0.48775,0.9915 0.48775,1.56598 0,0.51512 -0.0302,0.64877 -0.25493,1.13014 -0.48994,1.04921 -0.70844,1.41697 -0.7527,1.26687 z"
       id="path7274"
       transform="matrix(0.26458333,0,0,0.26458333,2.398759,3.3025789)" />
    <path
       style="fill:#d40000;stroke:none;stroke-width:0.0594619;stroke-linecap:butt;stroke-linejoin:round;stroke-miterlimit:4;stroke-dasharray:none;paint-order:fill markers stroke"
       d="m 229.1509,169.25335 c -0.15331,-1.59213 -0.19362,-2.70187 -0.22553,-6.20929 -0.0412,-4.52503 -0.0719,-5.28305 -0.2584,-6.38232 -0.25524,-1.50418 -0.66732,-2.30453 -1.74223,-3.38383 -0.38236,-0.38391 -1.31795,-1.17404 -2.07908,-1.75583 -2.61842,-2.00146 -3.46434,-3.00256 -3.79571,-4.492 -0.15468,-0.69528 -0.10289,-2.06486 0.10743,-2.84058 0.66793,-2.4635 2.72335,-4.24617 5.72769,-4.96764 0.89471,-0.21486 0.93345,-0.16969 0.19201,0.22388 -1.99371,1.05831 -3.07957,2.3752 -3.27926,3.97697 -0.28825,2.31206 1.57922,4.52886 4.38107,5.20058 0.82362,0.19746 2.07936,0.19741 2.86441,-7e-5 0.74264,-0.18684 1.76576,-0.69547 2.33857,-1.16259 2.02021,-1.64746 2.5068,-4.26204 1.14766,-6.16671 -0.79687,-1.11671 -2.25289,-1.8937 -4.22115,-2.25257 l -0.50986,-0.093 0.4006,-0.006 c 0.88667,-0.0139 2.49944,0.35888 3.58276,0.82813 0.69372,0.30049 1.63675,0.91085 2.18735,1.41572 1.4029,1.28639 2.26087,3.41772 2.0208,5.01994 -0.25611,1.70926 -1.34425,3.16321 -4.0708,5.43932 -2.05714,1.7173 -2.53426,2.32564 -2.82767,3.60535 -0.17991,0.78466 -0.17817,4.25699 0.003,5.75407 0.17759,1.4685 0.46604,3.14747 0.70064,4.07823 l 0.19813,0.78603 -1.35227,1.93554 c -0.74375,1.06454 -1.37262,1.93666 -1.39749,1.93804 -0.0249,0.001 -0.0665,-0.21873 -0.0925,-0.48913 z"
       id="path7313"
       transform="matrix(0.26458333,0,0,0.26458333,2.398759,3.3025789)" />
    <path
       style="fill:#d40000;stroke:none;stroke-width:0.0594619;stroke-linecap:butt;stroke-linejoin:round;stroke-miterlimit:4;stroke-dasharray:none;paint-order:fill markers stroke"
       d="m 238.06544,151.64793 c 0,-0.0185 0.18459,-0.23976 0.4102,-0.49165 0.64052,-0.71512 1.10457,-1.40851 1.52513,-2.27888 0.52662,-1.08987 0.69269,-1.74437 0.73924,-2.91346 0.0593,-1.48996 -0.19188,-2.65384 -0.87249,-4.04241 -0.47697,-0.9731 -0.47458,-0.96446 -0.17106,-0.61963 0.3561,0.40456 0.86443,1.28 1.12588,1.939 1.00538,2.53411 0.25596,5.47199 -1.98127,7.76696 -0.58031,0.59528 -0.77563,0.75646 -0.77563,0.64007 z"
       id="path7352"
       transform="matrix(0.26458333,0,0,0.26458333,2.398759,3.3025789)" />
    <path
       style="fill:#d40000;stroke:none;stroke-width:0.0594619;stroke-linecap:butt;stroke-linejoin:round;stroke-miterlimit:4;stroke-dasharray:none;paint-order:fill markers stroke"
       d="m 240.04723,192.50634 c -0.0685,-0.37151 -0.11201,-2.2392 -0.16027,-6.88303 -0.0677,-6.51269 -0.0322,-8.40086 0.17855,-9.50514 0.13194,-0.69125 0.47571,-1.43089 0.75872,-1.63241 0.24737,-0.17614 0.94591,-0.458 1.06184,-0.42845 0.0556,0.0142 -0.21243,1.14701 -0.78908,3.3355 l -0.87324,3.31405 -0.0412,6.15467 c -0.0357,5.32643 -0.0539,6.08605 -0.13528,5.64481 z"
       id="path7391"
       transform="matrix(0.26458333,0,0,0.26458333,2.398759,3.3025789)" />
    <path
       style="fill:#d40000;stroke:none;stroke-width:0.0594619;stroke-linecap:butt;stroke-linejoin:round;stroke-miterlimit:4;stroke-dasharray:none;paint-order:fill markers stroke"
       d="m 246.97287,170.78291 c 0.0265,-1.41584 0.0795,-2.40735 0.15288,-2.86067 0.34547,-2.13416 1.16926,-3.72788 2.61414,-5.05741 0.6695,-0.61606 0.89667,-0.73013 0.40458,-0.20317 -0.73014,0.7819 -1.63448,2.45592 -1.81982,3.36868 -0.11669,0.57469 -0.12419,5.17649 -0.01,6.08183 0.0405,0.32048 0.0664,0.59158 0.0577,0.60244 -0.021,0.0262 -1.21054,0.23495 -1.33949,0.23508 -0.0843,8e-5 -0.094,-0.35211 -0.0601,-2.16678 z"
       id="path7430"
       transform="matrix(0.26458333,0,0,0.26458333,2.398759,3.3025789)" />
    <path
       style="fill:#d40000;stroke:none;stroke-width:0.0594619;stroke-linecap:butt;stroke-linejoin:round;stroke-miterlimit:4;stroke-dasharray:none;paint-order:fill markers stroke"
       d="m 253.69468,181.75781 c -0.1572,-0.95331 0.53559,-1.68684 1.88974,-2.00089 0.26636,-0.0618 0.70549,-0.10274 0.97586,-0.091 l 0.49158,0.0213 -1.62328,1.09254 c -0.89281,0.6009 -1.63582,1.14171 -1.65114,1.2018 -0.0153,0.0601 -0.0526,-0.0406 -0.0828,-0.22368 z"
       id="path7469"
       transform="matrix(0.26458333,0,0,0.26458333,2.398759,3.3025789)" />
    <path
       style="fill:#d40000;stroke:none;stroke-width:0.0594619;stroke-linecap:butt;stroke-linejoin:round;stroke-miterlimit:4;stroke-dasharray:none;paint-order:fill markers stroke"
       d="m 272.96149,187.04043 -0.007,-5.97577 -0.93526,-3.63863 -0.93526,-3.63862 -0.21191,-0.046 c -0.11655,-0.0253 0.35431,-0.0499 1.04636,-0.0546 l 1.25827,-0.009 -0.0243,9.41409 c -0.0168,6.52255 -0.0487,9.49239 -0.10365,9.66902 -0.0588,0.18891 -0.0813,-1.2925 -0.0868,-5.72084 z"
       id="path7508"
       transform="matrix(0.26458333,0,0,0.26458333,2.398759,3.3025789)" />
    <path
       style="fill:#d40000;stroke:none;stroke-width:0.0594619;stroke-linecap:butt;stroke-linejoin:round;stroke-miterlimit:4;stroke-dasharray:none;paint-order:fill markers stroke"
       d="m 264.97846,173.01778 c -0.56084,-0.0735 -1.15961,-0.15378 -1.33059,-0.17833 l -0.31087,-0.0446 0.42866,-0.28625 c 0.81113,-0.54165 1.47891,-1.43687 1.8127,-2.43008 0.18306,-0.54471 0.19753,-0.67494 0.19485,-1.75378 -0.003,-1.05688 -0.0214,-1.22574 -0.20137,-1.81365 -0.10917,-0.35655 -0.31219,-0.89436 -0.45116,-1.19514 -0.13897,-0.30077 -0.23631,-0.56322 -0.21631,-0.58322 0.0665,-0.0665 0.60784,1.17946 0.80135,1.84434 0.33703,1.158 0.41238,1.87392 0.4542,4.31515 0.0327,1.90648 0.0227,2.27476 -0.0614,2.26771 -0.0552,-0.005 -0.55924,-0.0686 -1.12008,-0.1421 z"
       id="path7547"
       transform="matrix(0.26458333,0,0,0.26458333,2.398759,3.3025789)" />
    <path
       style="fill:#d40000;stroke:none;stroke-width:0.0594619;stroke-linecap:butt;stroke-linejoin:round;stroke-miterlimit:4;stroke-dasharray:none;paint-order:fill markers stroke"
       d="m 280.27369,166.06676 c 0,-14.82218 0.008,-20.89667 0.0186,-13.49885 0.0102,7.39782 0.0102,19.52507 0,26.94943 -0.0102,7.42437 -0.0186,1.37161 -0.0186,-13.45058 z"
       id="path7586"
       transform="matrix(0.26458333,0,0,0.26458333,2.398759,3.3025789)" />
    <path
       style="fill:#d40000;stroke:none;stroke-width:0.0594619;stroke-linecap:butt;stroke-linejoin:round;stroke-miterlimit:4;stroke-dasharray:none;paint-order:fill markers stroke"
       d="m 280.27096,166.03034 c 0,-1.66248 0.01,-2.34259 0.0213,-1.51135 0.0117,0.83124 0.0117,2.19146 0,3.02271 -0.0117,0.83124 -0.0213,0.15113 -0.0213,-1.51136 z"
       id="path7625"
       transform="matrix(0.26458333,0,0,0.26458333,2.398759,3.3025789)" />
    <path
       style="fill:#d40000;stroke:none;stroke-width:0.0594619;stroke-linecap:butt;stroke-linejoin:round;stroke-miterlimit:4;stroke-dasharray:none;paint-order:fill markers stroke"
       d="m 279.90956,165.95751 c 0,-17.20576 0.008,-24.24448 0.0186,-15.6416 0.0102,8.60288 0.0102,22.68032 0,31.28319 -0.0102,8.60288 -0.0186,1.56416 -0.0186,-15.64159 z"
       id="path7664"
       transform="matrix(0.26458333,0,0,0.26458333,2.398759,3.3025789)" />
    <path
       style="fill:#d40000;stroke:none;stroke-width:0.0594619;stroke-linecap:butt;stroke-linejoin:round;stroke-miterlimit:4;stroke-dasharray:none;paint-order:fill markers stroke"
       d="m 279.96461,165.95751 c 6.5e-4,-16.9654 0.0271,-30.68229 0.0589,-30.48199 0.18423,1.16305 0.21074,4.99623 0.21232,30.7005 0.002,25.81915 -0.0216,29.1509 -0.2105,30.26348 -0.0344,0.20235 -0.0613,-13.34266 -0.0607,-30.48199 z"
       id="path7703"
       transform="matrix(0.26458333,0,0,0.26458333,2.398759,3.3025789)" />
    <path
       style="fill:#d40000;stroke:none;stroke-width:0.0159466;stroke-linecap:butt;stroke-linejoin:round;stroke-miterlimit:4;stroke-dasharray:none;paint-order:fill markers stroke"
       d="m 264.89344,164.89486 c -0.17041,-0.34524 -0.49476,-0.87203 -0.77066,-1.25171 -0.0887,-0.12201 -0.15723,-0.22581 -0.15238,-0.23066 0.0129,-0.0129 0.34229,0.37856 0.53692,0.63824 0.16331,0.21789 0.47216,0.68517 0.47216,0.71436 0,0.008 -0.0176,-10e-4 -0.0391,-0.0209 -0.0381,-0.0345 -0.0391,-0.0341 -0.0391,0.0158 0,0.0281 0.0184,0.10041 0.041,0.16065 0.0225,0.0602 0.0375,0.11299 0.0332,0.11724 -0.004,0.004 -0.0412,-0.0601 -0.0821,-0.14296 z"
       id="path7742"
       transform="matrix(0.26458333,0,0,0.26458333,2.398759,3.3025789)" />
    <path
       style="fill:#d40000;stroke:none;stroke-width:0.0159466;stroke-linecap:butt;stroke-linejoin:round;stroke-miterlimit:4;stroke-dasharray:none;paint-order:fill markers stroke"
       d="m 265.69244,173.10269 c -0.19338,-0.0259 -0.78231,-0.10435 -1.30873,-0.17429 -0.52642,-0.0699 -0.97032,-0.12943 -0.98643,-0.13221 -0.0161,-0.003 0.10511,-0.0963 0.26938,-0.20776 0.74621,-0.50644 1.24518,-1.07035 1.64342,-1.8573 0.25624,-0.50636 0.41387,-1.00481 0.45287,-1.43203 0.033,-0.36102 0.0119,-1.91778 -0.0293,-2.17115 -0.0672,-0.41262 -0.30863,-1.14219 -0.58847,-1.77826 -0.12135,-0.27581 -0.22448,-0.54376 -0.22389,-0.58168 7.1e-4,-0.046 0.12453,0.17397 0.23942,0.42542 0.55477,1.21419 0.8155,2.21945 0.91194,3.516 0.0522,0.70182 0.11327,3.37932 0.0909,3.9848 -0.0139,0.37648 -0.0268,0.44782 -0.0817,0.45243 -0.0208,0.002 -0.19597,-0.018 -0.38935,-0.044 z"
       id="path7781"
       transform="matrix(0.26458333,0,0,0.26458333,2.398759,3.3025789)" />
    <path
       style="fill:#d40000;stroke:none;stroke-width:0.0159466;stroke-linecap:butt;stroke-linejoin:round;stroke-miterlimit:4;stroke-dasharray:none;paint-order:fill markers stroke"
       d="m 266.23269,172.99699 c 0,-0.0269 0.004,-0.0378 0.01,-0.0244 0.005,0.0134 0.005,0.0354 0,0.0488 -0.005,0.0134 -0.01,0.002 -0.01,-0.0244 z"
       id="path7820"
       transform="matrix(0.26458333,0,0,0.26458333,2.398759,3.3025789)" />
    <path
       style="fill:#d40000;stroke:none;stroke-width:0.0159466;stroke-linecap:butt;stroke-linejoin:round;stroke-miterlimit:4;stroke-dasharray:none;paint-order:fill markers stroke"
       d="m 266.16469,173.17859 c -0.0242,-0.006 -0.0314,-0.0197 -0.0226,-0.0417 0.0529,-0.13156 0.0558,-1.17966 0.009,-3.01131 -0.0215,-0.83221 -0.0447,-1.29114 -0.0893,-1.76418 -0.017,-0.18066 -0.0269,-0.33249 -0.022,-0.33739 0.0202,-0.0202 0.1,0.82679 0.13168,1.39837 0.0394,0.70949 0.0751,3.77249 0.044,3.76767 -0.008,-0.001 -0.0307,-0.006 -0.0503,-0.0115 z"
       id="path7896"
       transform="matrix(0.26458333,0,0,0.26458333,2.398759,3.3025789)" />
    <path
       style="fill:#d40000;stroke:none;stroke-width:0.0112759;stroke-linecap:butt;stroke-linejoin:round;stroke-miterlimit:4;stroke-dasharray:none;paint-order:fill markers stroke"
       d=""
       id="path8009"
       transform="matrix(0.26458333,0,0,0.26458333,2.398759,3.3025789)" />
    <path
       style="fill:#d40000;stroke:none;stroke-width:0.0112759;stroke-linecap:butt;stroke-linejoin:round;stroke-miterlimit:4;stroke-dasharray:none;paint-order:fill markers stroke"
       d="m 220.31294,130.77231 c 0.005,-0.0246 0.0241,-0.0271 0.28115,-0.0358 2.22717,-0.0751 4.718,-0.0666 10.01364,0.0341 0.10636,0.002 -1.80801,0.005 -4.25414,0.007 -2.44613,0.002 -4.80711,0.007 -5.24662,0.0122 -0.78241,0.009 -0.79899,0.009 -0.79403,-0.0173 z"
       id="path8270"
       transform="matrix(0.26458333,0,0,0.26458333,2.398759,3.3025789)" />
    <path
       style="fill:#d40000;stroke:none;stroke-width:0.0112759;stroke-linecap:butt;stroke-linejoin:round;stroke-miterlimit:4;stroke-dasharray:none;paint-order:fill markers stroke"
       d="m 219.9898,130.79824 c 0.0172,-0.003 0.042,-0.003 0.0553,2.8e-4 0.0132,0.003 -8.5e-4,0.006 -0.0312,0.006 -0.0304,-1.6e-4 -0.0412,-0.003 -0.024,-0.006 z"
       id="path8309"
       transform="matrix(0.26458333,0,0,0.26458333,2.398759,3.3025789)" />
    <path
       style="fill:#d40000;stroke:none;stroke-width:0.0112759;stroke-linecap:butt;stroke-linejoin:round;stroke-miterlimit:4;stroke-dasharray:none;paint-order:fill markers stroke"
       d="m 219.14365,130.80032 c 0.0597,-0.008 0.94817,-0.0477 1.06699,-0.0476 0.0798,5e-5 0.10013,0.004 0.10013,0.0208 0,0.0176 -0.0366,0.0207 -0.24637,0.0207 -0.13551,0 -0.40744,0.003 -0.60429,0.006 -0.19684,0.003 -0.33925,0.003 -0.31646,2.7e-4 z"
       id="path8348"
       transform="matrix(0.26458333,0,0,0.26458333,2.398759,3.3025789)" />
    <path
       style="fill:#d40000;stroke:none;stroke-width:0.0112759;stroke-linecap:butt;stroke-linejoin:round;stroke-miterlimit:4;stroke-dasharray:none;paint-order:fill markers stroke"
       d=""
       id="path8387"
       transform="matrix(0.26458333,0,0,0.26458333,2.398759,3.3025789)" />
    <path
       style="fill:#d40000;stroke:none;stroke-width:0.0112759;stroke-linecap:butt;stroke-linejoin:round;stroke-miterlimit:4;stroke-dasharray:none;paint-order:fill markers stroke"
       d="m 213.10083,132.06367 c 0.17003,-0.15131 0.55977,-0.42903 0.83784,-0.59702 0.12285,-0.0742 0.13364,-0.0778 0.37293,-0.12521 0.35632,-0.0705 0.50243,-0.0956 0.51056,-0.0874 0.004,0.004 -0.0113,0.0112 -0.034,0.0162 -0.0715,0.0157 -0.40446,0.12662 -0.54096,0.1802 -0.39964,0.15687 -0.81836,0.38733 -1.10738,0.6095 -0.0979,0.0753 -0.12199,0.0776 -0.039,0.004 z"
       id="path8426"
       transform="matrix(0.26458333,0,0,0.26458333,2.398759,3.3025789)" />
    <path
       style="fill:#d40000;stroke:none;stroke-width:0.0112759;stroke-linecap:butt;stroke-linejoin:round;stroke-miterlimit:4;stroke-dasharray:none;paint-order:fill markers stroke"
       d=""
       id="path8465"
       transform="matrix(0.26458333,0,0,0.26458333,2.398759,3.3025789)" />
    <path
       style="fill:#d40000;stroke:none;stroke-width:0.0112759;stroke-linecap:butt;stroke-linejoin:round;stroke-miterlimit:4;stroke-dasharray:none;paint-order:fill markers stroke"
       d=""
       id="path8504"
       transform="matrix(0.26458333,0,0,0.26458333,2.398759,3.3025789)" />
    <path
       style="fill:#d40000;stroke:none;stroke-width:0.0112759;stroke-linecap:butt;stroke-linejoin:round;stroke-miterlimit:4;stroke-dasharray:none;paint-order:fill markers stroke"
       d=""
       id="path8543"
       transform="matrix(0.26458333,0,0,0.26458333,2.398759,3.3025789)" />
    <path
       style="fill:#d40000;stroke:none;stroke-width:0.0120853;stroke-linecap:butt;stroke-linejoin:round;stroke-miterlimit:4;stroke-dasharray:none;paint-order:fill markers stroke"
       d="m 213.78476,200.50733 c -0.22767,-0.0826 -0.29659,-0.11178 -0.47925,-0.20314 -0.73022,-0.36523 -1.30038,-0.85273 -1.68576,-1.44136 -0.12884,-0.19678 -0.30022,-0.54529 -0.38583,-0.78459 -0.0727,-0.20321 -0.15199,-0.47736 -0.16484,-0.56993 -0.0105,-0.0756 -0.004,-0.0574 0.0956,0.25906 0.28831,0.91844 0.63334,1.42306 1.38401,2.02415 0.29095,0.23298 0.46048,0.34036 0.49029,0.31055 0.0151,-0.015 -0.0366,-0.0929 -0.12743,-0.19189 -0.0504,-0.055 -0.087,-0.0999 -0.0813,-0.0999 0.006,0 0.0479,0.0345 0.0938,0.0766 0.20374,0.18702 0.56237,0.42684 0.87481,0.58501 0.1014,0.0513 0.17468,0.093 0.16283,0.0926 -0.0118,-4.2e-4 -0.0915,-0.0261 -0.17696,-0.0571 z"
       id="path8730"
       transform="matrix(0.26458333,0,0,0.26458333,2.398759,3.3025789)" />
    <path
       style="fill:#d40000;stroke:none;stroke-width:0.0120853;stroke-linecap:butt;stroke-linejoin:round;stroke-miterlimit:4;stroke-dasharray:none;paint-order:fill markers stroke"
       d="m 210.89947,196.42421 c -0.0394,-0.4836 -0.0419,-0.84625 -0.0344,-5.0005 0.006,-3.34142 0.0118,-4.31486 0.0256,-4.31486 0.0138,0 0.0202,1.07423 0.0287,4.76052 0.006,2.61828 0.008,4.76343 0.004,4.76699 -0.004,0.004 -0.0145,-0.0919 -0.0243,-0.21215 z"
       id="path8769"
       transform="matrix(0.26458333,0,0,0.26458333,2.398759,3.3025789)" />
    <path
       style="fill:#d40000;stroke:none;stroke-width:0.0120853;stroke-linecap:butt;stroke-linejoin:round;stroke-miterlimit:4;stroke-dasharray:none;paint-order:fill markers stroke"
       d="m 221.74164,201.3772 c -0.44781,-0.007 -0.97074,-0.0179 -1.16208,-0.0249 -0.21793,-0.008 1.02903,-0.0126 3.33819,-0.0125 2.20087,1e-4 3.43854,0.005 3.07173,0.0113 -1.07031,0.0195 -3.33239,0.0431 -3.89332,0.0406 -0.29718,-10e-4 -0.90671,-0.008 -1.35452,-0.0146 z"
       id="path8808"
       transform="matrix(0.26458333,0,0,0.26458333,2.398759,3.3025789)" />
    <path
       style="fill:#d40000;stroke:none;stroke-width:0.0120853;stroke-linecap:butt;stroke-linejoin:round;stroke-miterlimit:4;stroke-dasharray:none;paint-order:fill markers stroke"
       d="m 220.39822,201.32457 c 0.0183,-0.004 0.0483,-0.004 0.0666,0 0.0183,0.004 0.003,0.006 -0.0333,0.006 -0.0366,0 -0.0516,-0.003 -0.0333,-0.006 z"
       id="path8847"
       transform="matrix(0.26458333,0,0,0.26458333,2.398759,3.3025789)" />
    <path
       style="fill:#d40000;stroke:none;stroke-width:0.00981651;stroke-linecap:butt;stroke-linejoin:round;stroke-miterlimit:4;stroke-dasharray:none;paint-order:fill markers stroke"
       d="m 227.25406,201.34741 c 0.009,-0.003 0.019,-0.003 0.023,9.5e-4 0.004,0.004 -0.003,0.007 -0.0158,0.006 -0.014,-5.8e-4 -0.0169,-0.003 -0.007,-0.007 z"
       id="path8925"
       transform="matrix(0.26458333,0,0,0.26458333,2.398759,3.3025789)" />
    <path
       style="fill:#d40000;stroke:none;stroke-width:0.00981651;stroke-linecap:butt;stroke-linejoin:round;stroke-miterlimit:4;stroke-dasharray:none;paint-order:fill markers stroke"
       d="m 226.74528,201.34329 c -0.18984,-0.004 0.001,-0.007 0.48699,-0.008 0.43979,-7.2e-4 0.79151,4.6e-4 0.78159,0.003 -0.035,0.008 -0.95988,0.0112 -1.26858,0.005 z"
       id="path8964"
       transform="matrix(0.26458333,0,0,0.26458333,2.398759,3.3025789)" />
    <path
       style="fill:#d40000;stroke:none;stroke-width:0.00981651;stroke-linecap:butt;stroke-linejoin:round;stroke-miterlimit:4;stroke-dasharray:none;paint-order:fill markers stroke"
       d="m 220.25207,201.34311 c -0.0992,-0.004 0.0902,-0.007 0.42085,-0.007 0.33068,-4.8e-4 0.5904,8.4e-4 0.57718,0.003 -0.0467,0.007 -0.82007,0.0109 -0.99803,0.004 z"
       id="path9003"
       transform="matrix(0.26458333,0,0,0.26458333,2.398759,3.3025789)" />
    <path
       style="fill:#0000ff;stroke:none;stroke-width:0.0732565;stroke-linecap:butt;stroke-linejoin:round;stroke-miterlimit:4;stroke-dasharray:none;paint-order:fill markers stroke"
       d="m 101.12972,152.08591 c -6.020011,-0.45882 -10.118859,-1.52299 -12.915755,-3.35327 -2.406443,-1.57477 -2.659014,-3.13105 -0.808473,-4.98159 1.854961,-1.85496 5.019208,-3.24321 9.780192,-4.29086 2.057885,-0.45284 3.510296,-0.55105 8.161516,-0.55191 4.04068,-7.5e-4 5.39819,0.0678 8.09891,0.40888 7.14266,0.90211 11.52813,3.17171 12.1457,6.28572 0.0819,0.41277 0.0743,0.591 -0.0421,0.98707 -0.60621,2.06381 -4.98386,4.1536 -10.59089,5.05587 -2.24196,0.36076 -3.49772,0.42749 -8.48997,0.45113 -2.68977,0.0127 -5.09238,0.008 -5.33915,-0.011 z"
       id="path9311"
       transform="matrix(0.26458333,0,0,0.26458333,2.398759,3.3025789)" />
    <path
       style="fill:#0000ff;stroke:none;stroke-width:0.0732565;stroke-linecap:butt;stroke-linejoin:round;stroke-miterlimit:4;stroke-dasharray:none;paint-order:fill markers stroke"
       d="m 82.779196,168.13825 c -7e-6,-0.0864 -0.06529,-1.65109 -0.145071,-3.47717 -0.17769,-4.067 -0.202942,-10.33941 -0.04913,-12.20376 0.118684,-1.43856 0.369659,-3.565 0.428049,-3.62674 0.01945,-0.0206 0.03536,4.35059 0.03536,9.71366 0,8.60778 -0.01578,9.75105 -0.1346,9.75105 -0.07403,0 -0.134606,-0.0707 -0.134612,-0.15704 z"
       id="path9387"
       transform="matrix(0.26458333,0,0,0.26458333,2.398759,3.3025789)" />
    <path
       style="fill:#0000ff;stroke:none;stroke-width:0.0732565;stroke-linecap:butt;stroke-linejoin:round;stroke-miterlimit:4;stroke-dasharray:none;paint-order:fill markers stroke"
       d="m 83.833577,149.04193 c -0.431843,-0.22012 -0.785169,-0.43585 -0.785169,-0.47939 0,-0.17144 0.292864,-1.49658 0.356546,-1.61329 0.04466,-0.0819 0.08968,-0.007 0.132339,0.22056 0.09277,0.49452 0.5067,1.35999 0.887289,1.8552 0.180168,0.23443 0.29756,0.42419 0.260871,0.42169 -0.03669,-0.002 -0.420034,-0.18464 -0.851876,-0.40477 z"
       id="path9426"
       transform="matrix(0.26458333,0,0,0.26458333,2.398759,3.3025789)" />
    <path
       style="fill:#0000ff;stroke:none;stroke-width:0.0732565;stroke-linecap:butt;stroke-linejoin:round;stroke-miterlimit:4;stroke-dasharray:none;paint-order:fill markers stroke"
       d="m 128.81252,151.68988 v -3.14537 l -0.76771,0.41848 c -0.42224,0.23016 -0.78323,0.40295 -0.8022,0.38398 -0.019,-0.019 0.0891,-0.21526 0.24016,-0.43621 0.63194,-0.92429 0.88633,-1.76254 0.89678,-2.95502 l 0.007,-0.76684 0.12769,0.4038 c 0.43653,1.38042 0.65694,3.27755 0.65678,5.65321 -1.4e-4,2.27322 -0.0872,3.58934 -0.23733,3.58934 -0.0991,0 -0.12089,-0.56785 -0.12089,-3.14537 z"
       id="path9465"
       transform="matrix(0.26458333,0,0,0.26458333,2.398759,3.3025789)" />
    <path
       style="fill:#0000ff;stroke:none;stroke-width:0.0732565;stroke-linecap:butt;stroke-linejoin:round;stroke-miterlimit:4;stroke-dasharray:none;paint-order:fill markers stroke"
       d="m 120.10837,177.04817 c 0,-0.22415 0.59601,-2.46662 0.94309,-3.54834 0.80954,-2.52301 2.10019,-5.41164 3.10724,-6.95435 0.25774,-0.39482 0.79567,-1.04728 1.19541,-1.4499 0.61759,-0.62204 0.80058,-0.75292 1.21771,-0.87099 0.73329,-0.20755 1.94211,-0.31026 4.47647,-0.38035 2.21804,-0.0613 2.27888,-0.0584 2.21645,0.10769 -0.0353,0.0939 -1.38127,3.1084 -2.99105,6.69886 l -2.92686,6.52812 h -3.61923 c -3.10978,0 -3.61923,-0.0184 -3.61923,-0.13074 z"
       id="path9504"
       transform="matrix(0.26458333,0,0,0.26458333,2.398759,3.3025789)" />
    <path
       style="fill:#0000ff;stroke:none;stroke-width:0.0732565;stroke-linecap:butt;stroke-linejoin:round;stroke-miterlimit:4;stroke-dasharray:none;paint-order:fill markers stroke"
       d="m 125.67614,190.95301 c -0.004,-0.17482 2.39345,-13.59948 2.4366,-13.64263 0.0241,-0.0241 1.62513,-0.0333 3.5578,-0.0204 l 3.51396,0.0235 -0.74548,1.25627 c -1.84594,3.11074 -4.72611,7.30085 -7.33998,10.67829 -1.22219,1.57922 -1.42021,1.8165 -1.4229,1.70494 z"
       id="path9543"
       transform="matrix(0.26458333,0,0,0.26458333,2.398759,3.3025789)" />
    <path
       style="fill:#0000ff;stroke:none;stroke-width:0.01295;stroke-linecap:butt;stroke-linejoin:round;stroke-miterlimit:4;stroke-dasharray:none;paint-order:fill markers stroke"
       d="m 134.82649,167.20979 c -5.7e-4,-0.0114 2.463,-5.52584 2.48212,-5.55599 0.005,-0.008 0.14692,0.0158 0.1655,0.0273 0.0128,0.008 -0.38936,0.86023 -1.28301,2.71918 -1.35022,2.80872 -1.3633,2.83566 -1.36461,2.80954 z"
       id="path9582"
       transform="matrix(0.26458333,0,0,0.26458333,2.398759,3.3025789)" />
    <path
       style="fill:#0000ff;stroke:none;stroke-width:0.01295;stroke-linecap:butt;stroke-linejoin:round;stroke-miterlimit:4;stroke-dasharray:none;paint-order:fill markers stroke"
       d="m 123.78537,162.73755 c 0,-0.007 0.0549,-0.0819 0.12195,-0.16581 0.16313,-0.204 0.44038,-0.47868 0.61567,-0.60996 0.59861,-0.4483 1.87213,-0.75153 3.67224,-0.87438 1.08768,-0.0742 2.74174,-0.0717 3.99743,0.006 0.16013,0.01 0.0945,0.0128 -0.34105,0.015 -2.35384,0.0116 -4.0108,0.10241 -5.11349,0.28024 -1.00229,0.16164 -1.5844,0.37389 -2.26271,0.82503 -0.22236,0.14788 -0.51884,0.37369 -0.63055,0.48025 -0.0327,0.0312 -0.0595,0.0507 -0.0595,0.0434 z"
       id="path9621"
       transform="matrix(0.26458333,0,0,0.26458333,2.398759,3.3025789)" />
    <path
       style="fill:#0000ff;stroke:none;stroke-width:0.01295;stroke-linecap:butt;stroke-linejoin:round;stroke-miterlimit:4;stroke-dasharray:none;paint-order:fill markers stroke"
       d="m 131.54493,174.51851 c 0.003,-0.007 0.0188,-0.0459 0.0352,-0.0872 0.0164,-0.0414 0.0379,-0.0749 0.0476,-0.0744 0.01,4.9e-4 0.3496,0.0389 0.75529,0.0854 l 0.73762,0.0845 -0.79049,0.002 c -0.43478,0.001 -0.78812,-0.004 -0.78521,-0.0102 z"
       id="path9660"
       transform="matrix(0.26458333,0,0,0.26458333,2.398759,3.3025789)" />
    <path
       style="fill:#0000ff;stroke:none;stroke-width:0.0420752;stroke-linecap:butt;stroke-linejoin:round;stroke-miterlimit:4;stroke-dasharray:none;paint-order:fill markers stroke"
       d="m 120.88691,200.14858 c 0.005,-0.14493 2.66743,-13.3189 2.67243,-13.2229 0.003,0.0535 -0.47135,2.78731 -1.05365,6.07508 -0.58229,3.28776 -1.05194,5.99789 -1.04366,6.0225 0.008,0.0246 0.26559,-0.17804 0.5718,-0.45034 0.3062,-0.27231 0.56652,-0.48532 0.57849,-0.47335 0.0173,0.0173 -1.49283,1.88182 -1.68035,2.07478 -0.0297,0.0306 -0.0466,0.0209 -0.0451,-0.0258 z"
       id="path10032"
       transform="matrix(0.26458333,0,0,0.26458333,2.398759,3.3025789)" />
    <path
       style="fill:#0000ff;stroke:url(#linearGradient10321);stroke-width:1.54200002;stroke-linecap:butt;stroke-linejoin:round;stroke-miterlimit:4;stroke-dasharray:none;paint-order:fill markers stroke"
       d="m 102.12425,179.89638 v -2.68002 h -2.499638 -2.499635 v -2.65425 -2.65425 h 2.499635 2.499638 v -2.24194 -2.24194 h 2.31925 2.31924 v 2.24194 2.24194 h 2.49964 2.49963 v 2.65425 2.65425 h -2.49963 -2.49964 v 2.68002 2.68002 h -2.31924 -2.31925 z"
       id="path10278"
       transform="matrix(0.26458333,0,0,0.26458333,2.398759,3.3025789)" />
    <path
       style="fill:#0000ff;stroke:url(#linearGradient10403);stroke-width:1.54900002;stroke-linecap:butt;stroke-linejoin:round;stroke-miterlimit:4;stroke-dasharray:none;paint-order:fill markers stroke"
       d="m 69.087839,174.56211 v -2.65425 h 13.322794 13.322795 v 2.65425 2.65425 H 82.410633 69.087839 Z"
       id="path10360"
       transform="matrix(0.26458333,0,0,0.26458333,2.398759,3.3025789)" />
    <path
       style="fill:#0000ff;stroke:url(#linearGradient10448);stroke-width:1.94400002;stroke-linecap:butt;stroke-linejoin:round;stroke-miterlimit:4;stroke-dasharray:none;paint-order:fill markers stroke"
       d="m 104.95888,201.25447 c -0.12756,-0.0103 -0.70737,-0.0433 -1.28847,-0.0734 -4.380479,-0.22671 -7.605164,-0.6407 -10.450304,-1.34162 -5.352567,-1.31865 -8.829731,-3.66235 -10.51024,-7.08417 -0.219878,-0.44772 -0.512358,-1.20864 -0.881556,-2.29348 l -0.552508,-1.62348 -3.104728,-0.0133 -3.104728,-0.0133 v -2.65385 -2.65385 h 20.847468 20.847466 v 2.65418 2.65417 l -17.329242,0.013 -17.329243,0.013 4.451493,2.46828 c 3.898137,2.16146 4.538718,2.50013 5.153188,2.7245 1.477248,0.53939 3.625652,1.07381 5.417501,1.34761 3.624583,0.55386 6.431943,0.67893 14.237613,0.63431 2.71416,-0.0155 4.93484,-0.0173 4.93484,-0.004 0,0.0645 -2.25556,2.57115 -2.64486,2.9393 -1.27275,1.20359 -2.79941,1.91048 -4.77677,2.21181 -0.5133,0.0782 -3.28669,0.14494 -3.91692,0.0942 z"
       id="path10405"
       transform="matrix(0.26458333,0,0,0.26458333,2.398759,3.3025789)" />
    <path
       style="fill:#ff6600;stroke:url(#linearGradient11090);stroke-width:1.05900001;stroke-linecap:butt;stroke-linejoin:round;stroke-miterlimit:4;stroke-dasharray:none;paint-order:fill markers stroke"
       d="m 147.12654,162.03179 v -14.23535 h 26.29353 26.29353 v 14.23535 14.23535 h -26.29353 -26.29353 z m 49.0701,0.0837 v -10.80212 h -22.69283 -22.69282 v 10.80212 10.80212 h 22.69282 22.69283 z"
       id="path10651"
       transform="matrix(0.26458333,0,0,0.26458333,2.398759,3.3025789)" />
    <path
       style="fill:#ff6600;stroke:url(#linearGradient11126);stroke-width:1.05900001;stroke-linecap:butt;stroke-linejoin:round;stroke-miterlimit:4;stroke-dasharray:none;paint-order:fill markers stroke"
       d="m 154.16048,170.67918 -0.92111,-0.19708 -0.0434,-8.40844 -0.0434,-8.40845 0.4621,-0.10357 c 0.25416,-0.057 0.72588,-0.17119 1.04826,-0.25385 0.32239,-0.0827 0.67123,-0.15071 0.77519,-0.15122 0.22777,-10e-4 0.46779,0.57863 0.79697,1.92502 0.89573,3.66377 0.79002,11.43807 -0.2004,14.73778 -0.34169,1.13836 -0.41502,1.17201 -1.87418,0.85981 z"
       id="path10727"
       transform="matrix(0.26458333,0,0,0.26458333,2.398759,3.3025789)" />
    <path
       style="fill:#ff6600;stroke:url(#linearGradient11120);stroke-width:1.05900001;stroke-linecap:butt;stroke-linejoin:round;stroke-miterlimit:4;stroke-dasharray:none;paint-order:fill markers stroke"
       d="m 160.18957,170.67623 -0.92111,-0.19413 -0.0434,-8.40844 -0.0434,-8.40845 0.4621,-0.10357 c 0.25416,-0.057 0.72588,-0.17119 1.04826,-0.25385 0.91003,-0.23333 0.96008,-0.20592 1.25711,0.68837 1.06362,3.20224 1.2283,10.84382 0.32116,14.9021 -0.47866,2.14136 -0.4545,2.12071 -2.08069,1.77797 z"
       id="path10766"
       transform="matrix(0.26458333,0,0,0.26458333,2.398759,3.3025789)" />
    <path
       style="fill:#ff6600;stroke:url(#linearGradient11114);stroke-width:1.05900001;stroke-linecap:butt;stroke-linejoin:round;stroke-miterlimit:4;stroke-dasharray:none;paint-order:fill markers stroke"
       d="m 166.13492,170.66975 -0.83737,-0.19842 -0.0434,-8.39977 -0.0434,-8.39976 0.62958,-0.16412 c 0.34626,-0.0903 0.90706,-0.21383 1.24621,-0.27459 l 0.61665,-0.11046 0.26797,0.89574 c 0.67186,2.24577 0.83487,3.81041 0.83487,8.01342 0,4.1952 -0.16333,5.7689 -0.82997,7.99692 -0.2939,0.98227 -0.33727,0.99737 -1.84111,0.64104 z"
       id="path10805"
       transform="matrix(0.26458333,0,0,0.26458333,2.398759,3.3025789)" />
    <path
       style="fill:#ff6600;stroke:url(#linearGradient11108);stroke-width:1.15900001;stroke-linecap:butt;stroke-linejoin:round;stroke-miterlimit:4;stroke-dasharray:none;paint-order:fill markers stroke"
       d="m 171.2429,162.03179 v -9.71353 h 2.26091 2.26091 v 9.71353 9.71354 h -2.26091 -2.26091 z"
       id="path10844"
       transform="matrix(0.26458333,0,0,0.26458333,2.398759,3.3025789)" />
    <path
       style="fill:#ff6600;stroke:url(#linearGradient11102);stroke-width:1.05900001;stroke-linecap:butt;stroke-linejoin:round;stroke-miterlimit:4;stroke-dasharray:none;paint-order:fill markers stroke"
       d="m 179.19795,170.68135 -0.83737,-0.19445 v -8.44943 -8.44944 l 1.00485,-0.20889 c 0.55266,-0.11489 1.09079,-0.21218 1.19584,-0.2162 0.24511,-0.009 0.82236,2.15593 1.09191,4.09582 0.27286,1.96373 0.27486,7.62326 0.003,9.54606 -0.11705,0.829 -0.3684,2.09134 -0.55856,2.8052 -0.38647,1.45085 -0.35123,1.43099 -1.90005,1.07133 z"
       id="path10883"
       transform="matrix(0.26458333,0,0,0.26458333,2.398759,3.3025789)" />
    <path
       style="fill:#ff6600;stroke:url(#linearGradient11096);stroke-width:1.05900001;stroke-linecap:butt;stroke-linejoin:round;stroke-miterlimit:4;stroke-dasharray:none;paint-order:fill markers stroke"
       d="m 185.22704,170.68433 -0.83737,-0.19743 v -8.44943 -8.44944 l 1.00485,-0.20926 c 0.55266,-0.11509 1.09226,-0.17967 1.19909,-0.14351 0.10684,0.0362 0.31595,0.48437 0.46468,0.99601 1.1241,3.86676 1.10629,12.12764 -0.0338,15.68704 -0.3283,1.02495 -0.46043,1.08126 -1.79744,0.76602 z"
       id="path10922"
       transform="matrix(0.26458333,0,0,0.26458333,2.398759,3.3025789)" />
    <path
       style="fill:#ff6600;stroke:url(#linearGradient11004);stroke-width:0.95900001;stroke-linecap:butt;stroke-linejoin:round;stroke-miterlimit:4;stroke-dasharray:none;paint-order:fill markers stroke"
       d="m 191.17239,170.67918 -0.92111,-0.19708 -0.0434,-8.40844 -0.0434,-8.40845 0.37837,-0.086 c 1.42282,-0.32355 2.00821,-0.4193 2.1244,-0.34749 0.0733,0.0453 0.25658,0.52196 0.40735,1.05927 1.10212,3.92795 1.08616,11.89191 -0.0312,15.57088 -0.33155,1.09163 -0.41619,1.12861 -1.87096,0.81735 z"
       id="path10961"
       transform="matrix(0.26458333,0,0,0.26458333,2.398759,3.3025789)" />
  </g>
</svg>
