<?xml version="1.0" encoding="UTF-8" standalone="no"?>
<!-- Created with Inkscape (http://www.inkscape.org/) -->

<svg
   width="1590"
   height="310"
   viewBox="0 0 420.68752 82.020831"
   version="1.1"
   id="svg47193"
   inkscape:version="1.1 (ce6663b3b7, 2021-05-25)"
   sodipodi:docname="logo-img-text-color-stroked.svg"
   xmlns:inkscape="http://www.inkscape.org/namespaces/inkscape"
   xmlns:sodipodi="http://sodipodi.sourceforge.net/DTD/sodipodi-0.dtd"
   xmlns:xlink="http://www.w3.org/1999/xlink"
   xmlns="http://www.w3.org/2000/svg"
   xmlns:svg="http://www.w3.org/2000/svg">
  <sodipodi:namedview
     id="namedview47195"
     pagecolor="#ffffff"
     bordercolor="#666666"
     borderopacity="1.0"
     inkscape:pageshadow="2"
     inkscape:pageopacity="0.0"
     inkscape:pagecheckerboard="0"
     inkscape:document-units="mm"
     showgrid="false"
     units="px"
     width="1400px"
     fit-margin-top="0"
     fit-margin-left="0"
     fit-margin-right="0"
     fit-margin-bottom="0"
     inkscape:zoom="0.57848045"
     inkscape:cx="818.52377"
     inkscape:cy="621.45574"
     inkscape:window-width="1848"
     inkscape:window-height="1016"
     inkscape:window-x="0"
     inkscape:window-y="0"
     inkscape:window-maximized="1"
     inkscape:current-layer="layer1" />
  <defs
     id="defs47190">
    <linearGradient
       id="linearGradient1208"
       inkscape:swatch="solid">
      <stop
         style="stop-color:#000000;stop-opacity:1;"
         offset="0"
         id="stop1206" />
    </linearGradient>
    <linearGradient
       inkscape:collect="always"
       xlink:href="#linearGradient1208"
       id="linearGradient1000"
       x1="342.88498"
       y1="549.44476"
       x2="563.93243"
       y2="549.44476"
       gradientUnits="userSpaceOnUse"
       gradientTransform="translate(-141.35693,-59.192097)" />
    <linearGradient
       inkscape:collect="always"
       xlink:href="#linearGradient1208"
       id="linearGradient1042"
       x1="580.79999"
       y1="525.44"
       x2="740.07001"
       y2="525.44"
       gradientUnits="userSpaceOnUse"
       gradientTransform="translate(-141.35693,-59.192097)" />
    <linearGradient
       inkscape:collect="always"
       xlink:href="#linearGradient1208"
       id="linearGradient1084"
       x1="768.62299"
       y1="537.1712"
       x2="992.66998"
       y2="537.1712"
       gradientUnits="userSpaceOnUse"
       gradientTransform="translate(-141.35693,-59.192097)" />
    <linearGradient
       inkscape:collect="always"
       xlink:href="#linearGradient1208"
       id="linearGradient1126"
       x1="446.78146"
       y1="772.76135"
       x2="861.90881"
       y2="772.76135"
       gradientUnits="userSpaceOnUse"
       gradientTransform="translate(-141.35693,-59.192097)" />
    <linearGradient
       inkscape:collect="always"
       xlink:href="#linearGradient1208"
       id="linearGradient1168"
       x1="142.53999"
       y1="631.32501"
       x2="1214.85"
       y2="631.32501"
       gradientUnits="userSpaceOnUse"
       gradientTransform="translate(-141.35693,-59.192097)" />
    <linearGradient
       inkscape:collect="always"
       xlink:href="#linearGradient1208"
       id="linearGradient1210"
       x1="143.12189"
       y1="231.6149"
       x2="1346.0521"
       y2="231.6149"
       gradientUnits="userSpaceOnUse"
       gradientTransform="translate(-141.35693,-59.192097)" />
    <rect
       x="4.4554782"
       y="6.4876108"
       width="1102.7145"
       height="158.82693"
       id="rect27814" />
    <rect
       x="11.513608"
       y="8.0959301"
       width="1099.8782"
       height="198.29051"
       id="rect7752" />
    <linearGradient
       inkscape:collect="always"
       xlink:href="#linearGradient1208"
       id="linearGradient47483"
       gradientUnits="userSpaceOnUse"
       x1="5.3300781"
       y1="64.8125"
       x2="988.00977"
       y2="64.8125" />
  </defs>
  <g
     inkscape:label="Layer 1"
     inkscape:groupmode="layer"
     id="layer1"
     transform="translate(-2.2753521,-2.7603923)">
    <g
       id="g47377"
       transform="matrix(0.0846667,0,0,0.0846667,3.8628522,4.3478924)">
      <path
         id="Selection #5"
         fill="none"
         stroke="black"
         stroke-width="1"
         d="m 406.47307,779.9279 c -0.03,6.09 1.27,16.57 -4.78,20.72 -5.51,3.76 -18.78,3.1 -25.66,3.1 0,0 -45.65,0 -45.65,0 -5.75,-0.08 -14.85,0.11 -19.57,-3.1 -6.03,-4.15 -4.78,-14.63 -4.78,-20.72 0,0 0,-135 0,-135 0.15,-20.38 3.35,-21.07 27.39,-21.18 0,0 48.7,0 48.7,0 6.54,0.08 16.8,-0.29 21.33,4.61 3.81,4.07 2.99,14.05 3.02,19.21 0,0 213.04,0 213.04,0 0.03,-6.08 -1.28,-16.57 4.78,-20.72 5.51,-3.76 18.78,-3.1 25.65,-3.1 11.84,-0.03 57.74,-2.01 65.23,3.1 6.02,4.15 4.77,14.64 4.77,20.72 0,0 0,135 0,135 -0.15,20.39 -3.34,21.08 -27.39,21.18 0,0 -48.69,0 -48.69,0 -6.55,-0.08 -16.8,0.29 -21.34,-4.6 -3.8,-4.08 -2.98,-14.06 -3.01,-19.22 0,0 -213.04,0 -213.04,0 z m -15.22,-142.94 c 0,0 -70,0 -70,0 0,0 0,153.53 0,153.53 0,0 70,0 70,0 0,0 0,-153.53 0,-153.53 z m 313.48,0 c 0,0 -70,0 -70,0 0,0 0,153.53 0,153.53 0,0 70,0 70,0 0,0 0,-153.53 0,-153.53 z m -85.22,23.82 c 0,0 -213.04,0 -213.04,0 0,0 0,105.88 0,105.88 0,0 213.04,0 213.04,0 0,0 0,-105.88 0,-105.88 z m -115.65,15.88 c 0,0 54.78,0 54.78,0 0,0 0,13.24 0,13.24 0,0 -54.78,0 -54.78,0 0,0 0,-13.24 0,-13.24 z m 76.08,0 c 0,0 18.27,0 18.27,0 0,0 0,13.24 0,13.24 0,0 -18.27,0 -18.27,0 0,0 0,-13.24 0,-13.24 z"
         style="fill:#00ff00;fill-opacity:1;stroke:url(#linearGradient1126);stroke-width:3.36614;stroke-miterlimit:4;stroke-dasharray:none" />
      <path
         id="Selection #4"
         fill="none"
         stroke="black"
         stroke-width="1"
         d="m 641.00307,371.5879 c 16.46,-3.54 45.71,-1.96 63.73,-1.96 0,0 115.65,0 115.65,0 29.49,0.37 30.4,8.9 30.43,31.77 0,0 0,156.17 0,156.17 -0.06,27.27 -6.27,29.07 -36.52,29.12 0,0 -155.22,0 -155.22,0 -27.9,-0.34 -30.37,-6.69 -30.43,-29.12 0,0 0,-137.64 0,-137.64 0,-16.28 -5.78,-38.7 12.36,-48.34 z m 197.64,5.98 c 0,0 -152.17,0 -152.17,0 -42.28,0 -46.78,-2.96 -45.78,15.89 0,0 0,15.88 0,15.88 0,0 0,103.23 0,103.23 0.12,18.8 2.07,43.05 -2.92,60.89 16.65,4.1 34.54,2.64 51.74,2.64 30.71,0 122.16,-2.4 146.09,2.65 0,0 3.04,-68.82 3.04,-68.82 0,0 0,-132.36 0,-132.36 z m -124.78,103.24 c -4.75,5.59 -13.15,19.03 -18.69,21.94 -22.89,12.1 -20.85,-23.21 -20.88,-32.53 0,-5.21 0.37,-13.5 -1.82,-18.26 -3.47,-7.55 -11.26,-10.11 -16.41,-16.71 -11.59,-14.74 -6.54,-36.08 12.27,-44.31 4.29,-1.88 10.31,-3.47 15.09,-3.94 27.3,-2.83 56.67,18.87 42.09,43.46 -4.9,8.29 -11.84,11.73 -20.78,15.94 0,0 9.13,34.41 9.13,34.41 z m -12.18,-2.65 c -2.64,-5.69 -5.6,-27.95 -2.58,-33.43 3.59,-6.51 27.11,-15.8 18.59,-35.34 -9.83,-22.55 -51.4,-20.35 -57.64,2.6 -5.78,21.23 16.77,25.2 21.55,34.96 4.17,8.47 -0.86,34.84 4.87,52.39 0,0 15.21,-21.18 15.21,-21.18 z m -15.06,-76.55 c 23.28,1.06 18.23,18.64 5.78,21.07 -11.96,2.33 -26.75,-12.36 -5.78,-21.07 z m 8.98,7.73 c 0,0 -12.18,-2.65 -12.18,-2.65 0,0 0,10.59 0,10.59 0,0 12.18,-2.65 12.18,-2.65 0,0 0,-5.29 0,-5.29 z m 42.61,87.35 c 0.09,-9.21 -0.31,-18.21 5.63,-26.36 12.08,-16.55 39.74,-17.87 53.68,-2.46 7.95,8.76 7.52,18.34 7.64,28.82 0,0 21.31,0 21.31,0 0,0 0,50.3 0,50.3 -0.03,4.81 0.45,13.02 -3.11,16.94 -4.11,4.5 -12.26,4.13 -18.2,4.23 0,0 -66.95,0 -66.95,0 -5.94,-0.1 -14.1,0.27 -18.2,-4.23 -3.81,-4.21 -3.11,-14.32 -3.11,-19.59 -0.09,-43.17 -3.96,-46.88 21.31,-47.65 z m 12.66,0 c 7.91,0 34.48,1.33 40.29,-2.7 15.25,-10.59 -10.83,-44.52 -33.75,-25.28 -3.38,2.86 -4.93,5.59 -6.54,9.51 -0.76,4.1 -0.49,13.87 0,18.47 z m 66.47,63.53 c 0,0 0,-39.7 0,-39.7 0,0 -4.87,-15.83 -4.87,-15.83 0,0 -19.48,-2.7 -19.48,-2.7 0,0 -62.09,2.7 -62.09,2.7 0,0 -4.87,15.83 -4.87,15.83 0,0 0,39.7 0,39.7 0,0 91.31,0 91.31,0 z m -51.74,-10.59 c -1.34,-15.3 -8.77,-21.91 -6.46,-28.43 3.47,-9.79 24.57,-9.13 26.39,2.2 1.16,7.49 -6.24,9.4 -7.76,26.23 0,0 -12.17,0 -12.17,0 z m 12.17,-29.11 c 0,0 -12.17,7.94 -12.17,7.94 8.73,-1.46 8.73,-0.77 12.17,-7.94 z"
         style="fill:#ff0000;fill-opacity:1;stroke:url(#linearGradient1084);stroke-width:3.36614;stroke-miterlimit:4;stroke-dasharray:none" />
      <path
         id="Selection #3"
         fill="none"
         stroke="black"
         stroke-width="1"
         d="m 439.94307,427.8679 c 0,0 158.27,0 158.27,0 0,0 0,76.76 0,76.76 0,0 -158.27,0 -158.27,0 0,0 0,-76.76 0,-76.76 z m 149.13,5.29 c 0,0 -140,0 -140,0 0,0 0,66.18 0,66.18 0,0 140,0 140,0 0,0 0,-66.18 0,-66.18 z m -130.86,5.3 c 0,0 9.13,0 9.13,0 0,0 0,55.59 0,55.59 0,0 -9.13,0 -9.13,0 0,0 0,-55.59 0,-55.59 z m 18.26,0 c 0,0 9.13,0 9.13,0 0,0 0,55.59 0,55.59 0,0 -9.13,0 -9.13,0 0,0 0,-55.59 0,-55.59 z m 18.26,0 c 0,0 9.13,0 9.13,0 0,0 0,55.59 0,55.59 0,0 -9.13,0 -9.13,0 0,0 0,-55.59 0,-55.59 z m 18.26,0 c 0,0 9.13,0 9.13,0 0,0 0,55.59 0,55.59 0,0 -9.13,0 -9.13,0 0,0 0,-55.59 0,-55.59 z m 21.3,0 c 0,0 6.09,0 6.09,0 0,0 3.04,55.59 3.04,55.59 0,0 -12.17,0 -12.17,0 0,0 3.04,-55.59 3.04,-55.59 z m 18.26,0 c 0,0 9.13,0 9.13,0 0,0 0,55.59 0,55.59 0,0 -9.13,0 -9.13,0 0,0 0,-55.59 0,-55.59 z m 18.26,0 c 0,0 9.13,0 9.13,0 0,0 0,55.59 0,55.59 0,0 -9.13,0 -9.13,0 0,0 0,-55.59 0,-55.59 z"
         style="fill:#ffff00;fill-opacity:1;stroke:url(#linearGradient1042);stroke-width:3.36614;stroke-miterlimit:4;stroke-dasharray:none" />
      <path
         id="Selection #2"
         fill="none"
         stroke="black"
         stroke-width="1"
         d="m 239.07307,488.7479 c 0,-20.49 -6.02,-71.89 10.32,-85.95 21.73,-18.69 71.22,-19.45 99.25,-13.29 11.66,2.6 27.3,8.61 34.27,17.45 7.52,9.55 5.3,30.39 5.3,42.09 0,0 -9.14,0 -9.14,0 0,0 0,-15.89 0,-15.89 -35.6,21.13 -95.26,21.13 -130.86,0 0,0 0,55.59 0,55.59 0,0 -9.14,0 -9.14,0 z m 54.79,-94.5 c -7.25,1.19 -14.43,2.46 -21.31,4.82 -4.04,1.38 -8.43,3.18 -11.99,5.32 -14.09,8.5 -15.52,19.64 0,27.69 12.54,6.48 34.03,8.87 48.51,9.02 17.35,0.16 38.93,-0.92 54.73,-7.73 8.46,-3.62 16.49,-9.47 13.27,-18.63 -7.67,-22.02 -62.24,-22.32 -83.21,-20.49 z m 48.69,126.27 c 1.95,-16.55 8.19,-27.43 15.62,-42.36 2.46,-4.95 5.08,-12.65 10.28,-15.85 8.86,-5.38 37.01,-2.54 47.15,0 0,0 -21.31,37.03 -21.31,37.03 0,0 27.39,2.65 27.39,2.65 0,0 -36.37,52.94 -36.37,52.94 0,0 -33.63,39.7 -33.63,39.7 0,0 18.26,-74.11 18.26,-74.11 0,0 -27.39,0 -27.39,0 z m 60.87,-52.95 c -6.78,0 -24.07,-0.63 -29.61,1.59 -11.14,4.48 -21.03,35.66 -22.13,46.06 0,0 24.35,0 24.35,0 0,0 -12.17,50.3 -12.17,50.3 14.67,-7.36 39.53,-43.89 45.65,-58.24 0,0 -24.35,0 -24.35,0 0,0 18.26,-39.71 18.26,-39.71 z m -100.43,15.89 c 0,0 9.13,0 9.13,0 0,0 0,15.88 0,15.88 0,0 15.22,0 15.22,0 0,0 0,7.94 0,7.94 0,0 -15.22,0 -15.22,0 0,0 0,15.88 0,15.88 0,0 -9.13,0 -9.13,0 0,0 0,-15.88 0,-15.88 0,0 -15.22,0 -15.22,0 0,0 0,-7.94 0,-7.94 0,0 15.22,0 15.22,0 0,0 0,-15.88 0,-15.88 z m -100.44,23.82 c 0,0 7.03,-9 7.03,-9 0,0 69.06,-1.59 69.06,-1.59 0,0 0,10.59 0,10.59 0,0 -76.09,0 -76.09,0 z m 21.31,26.47 c 0,0 118.69,0 118.69,0 0,0 0,10.59 0,10.59 0,0 -118.69,0 -118.69,0 0,0 0,-10.59 0,-10.59 z m 18.26,18.53 c 14.55,3.68 17.8,9.56 33.48,13.84 21.09,5.75 39.26,4.69 60.87,4.69 -7.22,9 -15.46,8.23 -27.4,7.84 -27.3,-0.9 -53.04,-4.11 -66.95,-26.37 z"
         style="fill:#0000f8;fill-opacity:1;stroke:url(#linearGradient1000);stroke-width:3.36614;stroke-miterlimit:4;stroke-dasharray:none" />
      <path
         id="Selection #1"
         fill="none"
         stroke="black"
         stroke-width="1"
         d="m 223.86307,218.7479 c 0,0 36.52,0 36.52,0 0,0 0,60.88 0,60.88 0,0 4.87,16.94 4.87,16.94 0,0 19.48,4.24 19.48,4.24 0,0 85.21,0 85.21,0 0,0 0,-82.06 0,-82.06 0,0 39.57,0 39.57,0 0,0 0,82.06 0,82.06 0,0 82.17,0 82.17,0 0,0 22.53,-4.24 22.53,-4.24 0,0 4.86,-22.23 4.86,-22.23 0,0 0,-55.59 0,-55.59 0,0 36.53,0 36.53,0 0,0 0,60.88 0,60.88 0,0 4.87,16.94 4.87,16.94 0,0 19.47,4.24 19.47,4.24 0,0 85.22,0 85.22,0 0,0 0,-82.06 0,-82.06 0,0 39.57,0 39.57,0 0,0 0,82.06 0,82.06 0,0 82.17,0 82.17,0 0,0 22.52,-4.24 22.52,-4.24 0,0 4.87,-22.23 4.87,-22.23 0,0 0,-55.59 0,-55.59 0,0 36.52,0 36.52,0 0,0 0,58.24 0,58.24 0.03,5.29 -0.36,13.18 3.11,17.71 4.81,6.24 13.57,5.98 21.24,6.11 14.64,0.21 58.35,-2.89 68.27,4.61 11.99,9.02 7.82,45.13 7.82,58.92 0,0 121.74003,0 121.74003,0 0,0 0,26.47 0,26.47 0,0 -121.74003,0 -121.74003,0 0,0 0,50.29 0,50.29 0.15,6.67 -0.15,14.3 7.03,18.48 5.63,3.26 16.74,2.7 23.4,2.7 0,0 91.31003,0 91.31003,0 0,0 0,23.82 0,23.82 0,0 -97.39003,0 -97.39003,0 -7.67,0.14 -16.44,-0.13 -21.25,6.12 -3.74,4.9 -3.1,14.56 -3.1,20.35 0,0 0,45 0,45 0,0 121.74003,0 121.74003,0 0,0 0,26.48 0,26.48 0,0 -121.74003,0 -121.74003,0 0,0 0,50.29 0,50.29 0.15,6.67 -0.15,14.29 7.03,18.48 5.63,3.25 16.74,2.7 23.4,2.7 0,0 91.31003,0 91.31003,0 0,0 0,23.82 0,23.82 0,0 -94.35003,0 -94.35003,0 -8.22,0.11 -19.02,-0.21 -24.29,6.43 -3.77,4.79 -3.1,14.32 -3.1,20.04 0,0 0,45 0,45 0,0 121.74003,0 121.74003,0 0,0 0,26.74 0,26.74 0,0 -94.35003,0 -94.35003,0 -4.02,-0.24 -11.32,-0.32 -15.03,0 -24.84,6.45 -3.05,46.61 -17.23,58.65 -6.42,5.46 -20.18,4.61 -28.61,4.61 -16.95,0.03 -61.02,-5.61 -64.52,13.34 0,0 0,68.72 0,68.72 0,0 -38.96,0 -38.96,0 0,0 0,-58.24 0,-58.24 -0.03,-5.29 0.37,-13.18 -3.1,-17.71 -4.81,-6.24 -13.58,-5.98 -21.25,-6.11 0,0 -57.82,0 -57.82,0 -7.06,0.13 -14.61,0.03 -20.36,4.24 -8.19,6 -7,16.46 -7.03,24.88 0,0 0,52.94 0,52.94 0,0 -39.57,0 -39.57,0 0,0 0,-58.24 0,-58.24 -0.03,-5.29 0.37,-13.18 -3.1,-17.71 -4.81,-6.24 -13.58,-5.98 -21.25,-6.11 -16.52,-0.26 -67.44,-3.49 -78.12,6.11 -8.65,7.76 -4.2,20.86 -4.05,30.95 0,0 0,45 0,45 0,0 -39.57,0 -39.57,0 0,0 0,-52.94 0,-52.94 0,-6.22 0.58,-15.36 -3.1,-20.78 -9.83,-14.45 -52.38,-5.72 -69.94,-5.69 -8.98,0.02 -24.89,-1.14 -31.65,4.6 -5.91,5.03 -4.84,15.17 -4.87,21.87 0,0 0,52.94 0,52.94 0,0 -39.57,0 -39.57,0 0,0 0,-58.24 0,-58.24 -0.12,-5.66 0.13,-12.62 -4.87,-16.94 -10.1,-8.79 -51.06,-2.22 -65.13,-1.69 -9.89,0.37 -30.61,-2.2 -36.4,6.22 -2.77,4.53 -0.21,19.48 0,25.65 0,0 0,47.65 0,47.65 0,0 -39.68,0 -39.68,0 0,0 0,-79.42 0,-79.42 0,0 -63.92,0 -63.92,0 -9.46,-0.15 -21.24,-0.74 -28.18,-7.25 -14.64,-13.63 7.06,-52.23 -17.65,-58.66 -4.11,-0.42 -13.51,-0.26 -18.08,0 0,0 -94.3499997,0 -94.3499997,0 0,0 0,-24.09 0,-24.09 0,0 45.6599997,0 45.6599997,0 0,0 51.73,-2.64 51.73,-2.64 31.69,-0.19 27.67,-9.51 27.4,-45 -0.06,-6.22 0.57,-14.85 -4.87,-19.59 -5.85,-5.08 -17.84,-4.21 -25.57,-4.24 0,0 -94.3499997,0 -94.3499997,0 0,0 0,-26.47 0,-26.47 0,0 91.3099997,0 91.3099997,0 8.55,-0.05 19.45,0.43 26.45,-4.6 10.16,-7.28 7.12,-32.01 7.03,-43.04 -0.06,-6.22 0.57,-14.85 -4.87,-19.59 -5.85,-5.08 -17.84,-4.21 -25.57,-4.24 0,0 -94.3499997,0 -94.3499997,0 0,0 0,-23.82 0,-23.82 0,0 51.7399997,-2.65 51.7399997,-2.65 0,0 45.65,0 45.65,0 34.43,-0.55 27.58,-21.15 27.4,-45 -0.06,-6.22 0.57,-14.85 -4.87,-19.59 -5.85,-5.08 -17.84,-4.21 -25.57,-4.23 0,0 -94.3499997,0 -94.3499997,0 0,0 0,-26.47 0,-26.47 0,0 91.3099997,0 91.3099997,0 8.4,-0.11 19.51,-0.13 26.45,-4.9 10.28,-7.12 7.18,-31.84 7.03,-42.75 -0.13,-6.27 0.12,-14.77 -5.3,-19.59 -5.78,-5.13 -17.44,-4.21 -25.14,-4.23 0,0 -94.3499997,0 -94.3499997,0 0,0 0,-26.74 0,-26.74 0,0 91.3099997,0 91.3099997,0 4.72,0.27 13.91,0.43 18.2,0 28.7,-7.09 5.84,-45.47 20.57,-59.08 5.3,-4.9 17.71,-6.14 25.14,-6.72 0,0 66.96,0 66.96,0 0,0 0,-82.17 0,-82.17 z m 687.82,598.24 c 0,0 0,-378.53 0,-378.53 0,0 0,-79.41 0,-79.41 0,0 -3.1,-30.18 -3.1,-30.18 0,0 -24.29,-4.24 -24.29,-4.24 0,0 -389.56,0 -389.56,0 0,0 -45.66,2.65 -45.66,2.65 0,0 -109.56,0 -109.56,0 0,0 -51.74,2.65 -51.74,2.65 0,0 -124.78,0 -124.78,0 0,0 0,373.23 0,373.23 0,0 0,79.41 0,79.41 0,0 3.1,30.18 3.1,30.18 0,0 24.29,4.24 24.29,4.24 0,0 721.3,0 721.3,0 z"
         style="fill:#ff6600;fill-opacity:1;stroke:url(#linearGradient1168);stroke-width:3.36614;stroke-miterlimit:4;stroke-dasharray:none" />
      <path
         id="Selection"
         fill="none"
         stroke="black"
         stroke-width="1"
         d="m 29.07307,292.8679 c -7.45,-6.22 -13.26,-11.94 -17.98,-20.07 -29.22,-50.08 19.11,-90.42 69.72,-107.49 0,0 72.1,-20.28 72.1,-20.28 9.13,-6.43 5.91,-15.11 7.76,-23.77 1.47,-6.96 8.31,-18.34 12.88,-24.169997 25.53,-32.5 69.63,-54.92 111.18,-68.77 34.24,-11.38 85.09,-20.4899998 121.74,-23.8699998 0,0 27.39,0 27.39,0 0,0 33.48,-2.76 33.48,-2.76 0,0 39.56,2.76 39.56,2.76 0,0 24.35,0 24.35,0 38.65,3.54 91.58,14.4699998 127.82,26.5199998 18.42,6.14 54.06,22.13 70,31.98 8.13,5.05 29.59,21.73 36.65,23.4 10.19,2.4 33.39,-5.93 45.53,-7.44 33.23,-4.16 67.56,-4.98 100.43,1.93 23.56,4.92 52.56,14.08 69.43,29.619997 15.15,13.95 15.12,26.92 28.36003,33.04 0,0 54.39,11.75 54.39,11.75 40.11,7.91 104.48,25.83 129.13,55.56 23.22,27.98 7.25,65.89 -19.6,86.88 -39.96,31.21 -123.75,45.34 -176.49003,45.47 0,0 0,-18.53 0,-18.53 13.45003,-3.33 17.53003,-2.17 30.44003,-3.78 33.69,-4.21 81.26,-15.7 106.24,-36.4 15.01,-12.47 29.07,-34.01 22.04,-52.46 -6.09,-15.86 -23.65,-27.51 -40.02,-35 -36.16,-16.52 -67.05,-22.42 -106.53,-29.06 -9.28003,-1.54 -38.43003,-4.74 -44.70003,-8.23 -8.25,-4.61 -9.99,-17.79 -17.26,-28.2 -9.71,-13.87 -26.75,-24 -44.56,-28.27 -31.53,-7.989997 -62.91,-7.539997 -94.34,0 -20.91,5.32 -42.58,19.06 -63.89,13.21 -15.12,-4.15 -23.07,-16.779997 -34.02,-25.779997 -16.59,-13.63 -39.6,-26.71 -60.36,-34.86 -88.29,-34.73 -185.86,-41.43 -280,-23.45 -50.43,9.6 -83.57,19.05 -124.75,47.85 -16.68,11.68 -33.57,30.579997 -39.9,48.549997 -5.6,15.99 2.68,22.79 -4.68,30.42 -6.94,7.22 -52.02,12.68 -65.01,15.59 -38.29,8.57 -88.84,32.9 -84.89,73.11 1.19,11.99 8.56,21.36 14.89,31.76 0,0 -36.53,13.24 -36.53,13.24 z"
         style="fill:#00ff00;fill-opacity:1;stroke:url(#linearGradient1210);stroke-width:3.36614;stroke-miterlimit:4;stroke-dasharray:none" />
    </g>
    <g
       inkscape:label="Layer 1"
       id="layer1-7"
       transform="matrix(1.2309649,0,0,1.5534828,98.864161,32.245296)">
      <text
         xml:space="preserve"
         transform="scale(0.26458333)"
         id="text7750"
         style="font-style:normal;font-variant:normal;font-weight:normal;font-stretch:normal;font-size:85.3333px;line-height:1.25;font-family:FreeMono;-inkscape-font-specification:FreeMono;white-space:pre;shape-inside:url(#rect7752);fill:#000000;fill-opacity:1;stroke:none" />
      <text
         xml:space="preserve"
         transform="matrix(0.26458333,0,0,0.26458333,0,0.52916663)"
         id="text27812"
         style="font-style:normal;font-weight:normal;font-size:112px;line-height:1.25;font-family:sans-serif;white-space:pre;shape-inside:url(#rect27814);fill:#000000;fill-opacity:1;stroke:url(#linearGradient47483);stroke-width:1.07717;stroke-miterlimit:4;stroke-dasharray:none"><tspan
           x="4.4550781"
           y="105.58203"
           id="tspan47563"><tspan
             style="fill:#ff0000;stroke-linecap:round;stroke-linejoin:round"
             id="tspan47557">ASSUME</tspan><tspan
             style="fill:#00ff00;stroke-linecap:round;stroke-linejoin:round"
             id="tspan47559">THE</tspan><tspan
             style="fill:#0000ff;stroke-linecap:round;stroke-linejoin:round"
             id="tspan47561">ROLE</tspan></tspan></text>
    </g>
  </g>
</svg>
